<?xml version="1.0" encoding="UTF-8" standalone="no"?>
<!-- Created with Inkscape (http://www.inkscape.org/) -->

<svg
   xmlns:dc="http://purl.org/dc/elements/1.1/"
   xmlns:cc="http://creativecommons.org/ns#"
   xmlns:rdf="http://www.w3.org/1999/02/22-rdf-syntax-ns#"
   xmlns:svg="http://www.w3.org/2000/svg"
   xmlns="http://www.w3.org/2000/svg"
   xmlns:sodipodi="http://sodipodi.sourceforge.net/DTD/sodipodi-0.dtd"
   xmlns:inkscape="http://www.inkscape.org/namespaces/inkscape"
   width="5000mm"
   height="2812.5mm"
   viewBox="0 0 5000 2812.5"
   version="1.1"
   id="svg8"
   inkscape:version="0.92.4 (5da689c313, 2019-01-14)"
   sodipodi:docname="koide9doc_v1.svg">
  <defs
     id="defs2" />
  <sodipodi:namedview
     id="base"
     pagecolor="#ffffff"
     bordercolor="#666666"
     borderopacity="1.0"
     inkscape:pageopacity="0.0"
     inkscape:pageshadow="2"
     inkscape:zoom="0.056568542"
     inkscape:cx="10072.505"
     inkscape:cy="5438.5714"
     inkscape:document-units="mm"
     inkscape:current-layer="layer1"
     showgrid="false"
     width="320mm"
     inkscape:window-width="1920"
     inkscape:window-height="1001"
     inkscape:window-x="-9"
     inkscape:window-y="-9"
     inkscape:window-maximized="1" />
  <metadata
     id="metadata5">
    <rdf:RDF>
      <cc:Work
         rdf:about="">
        <dc:format>image/svg+xml</dc:format>
        <dc:type
           rdf:resource="http://purl.org/dc/dcmitype/StillImage" />
        <dc:title></dc:title>
      </cc:Work>
    </rdf:RDF>
  </metadata>
  <g
     inkscape:label="Calque 1"
     inkscape:groupmode="layer"
     id="layer1"
     transform="translate(0,2515.5)">
    <flowRoot
       xml:space="preserve"
       id="flowRoot4110"
       style="font-style:normal;font-weight:normal;font-size:40px;line-height:1.25;font-family:sans-serif;letter-spacing:0px;word-spacing:0px;fill:#000000;fill-opacity:1;stroke:none"
       transform="matrix(0.26458333,0,0,0.26458333,0,-5328)"><flowRegion
         id="flowRegion4112"><rect
           id="rect4114"
           width="9535.8398"
           height="3458.7622"
           x="20073.752"
           y="5776.2236" /></flowRegion><flowPara
         id="flowPara4116"></flowPara></flowRoot>    <g
       id="g4355"
       transform="matrix(-15.665614,0,0,3.6396029,8833.6239,-3097.4107)">
      <g
         id="g4298"
         transform="matrix(1.1893988,0,0,1.0507585,-68.178859,-5.6624216)">
	<g
   id="g4296">
		
	</g>

</g>
      <g
         id="g4300">
</g>
      <g
         id="g4302">
</g>
      <g
         id="g4304">
</g>
      <g
         id="g4306">
</g>
      <g
         id="g4308">
</g>
      <g
         id="g4310">
</g>
      <g
         id="g4312">
</g>
      <g
         id="g4314">
</g>
      <g
         id="g4316">
</g>
      <g
         id="g4318">
</g>
      <g
         id="g4320">
</g>
      <g
         id="g4322">
</g>
      <g
         id="g4324">
</g>
      <g
         id="g4326">
</g>
      <g
         id="g4328">
</g>
    </g>
    <path
       id="path4367"
       d="m 3190.2329,-1817.0451 c 5.6403,5.6823 10.2433,11.591 13.9386,17.8163 l -101.0707,101.0804 c -6.2238,-3.6649 -12.1234,-8.2752 -17.8284,-13.9621 -10.8916,-10.8672 -28.5903,-10.8672 -39.417,0 -10.885,10.8672 -10.885,28.5526 0,39.4241 45.2517,45.2423 99.9038,45.9028 149.3047,37.9853 -11.864,57.4801 -16.9207,121.0229 33.8415,171.7483 22.95,22.9289 49.8547,36.1125 82.3348,40.3018 4.7327,0.6154 9.1411,-2.7507 9.7245,-7.5146 0.6484,-4.7503 -2.7228,-9.1254 -7.5203,-9.7363 -28.5254,-3.6826 -52.1237,-15.2419 -72.2212,-35.3523 -46.7427,-46.735 -40.0652,-105.776 -27.6826,-162.7946 8.5576,-1.701 15.2352,-3.2077 22.561,-4.8682 -12.9012,56.6522 -21.9775,111.5222 19.9678,152.9005 92.6428,92.493 250.6349,-64.6737 354.0395,38.7181 4.0844,4.0856 4.0844,10.7359 0,14.8216 -4.0843,4.0898 -10.697,4.0898 -14.7813,0 -65.6085,-65.5605 -159.8072,-6.981 -249.9865,-2.3888 -4.7975,0.2499 -8.4928,4.2979 -8.2335,9.1296 0.2593,4.8004 4.3436,8.4922 9.1411,8.2478 18.736,-0.9546 37.472,-4.1306 54.3928,-7.6277 -7.9093,49.3771 -7.261,104.0612 37.9907,149.3034 10.8915,10.8946 28.5254,10.8988 39.417,0 10.8914,-10.8942 10.8914,-28.5295 0,-39.4283 -5.7052,-5.6827 -10.3081,-11.5912 -13.9386,-17.812 l 101.0707,-101.0846 c 6.2239,3.6691 12.1234,8.2794 17.8285,13.9617 10.8267,10.8718 28.5254,10.8718 39.4169,0 10.8916,-10.8672 10.8916,-28.5523 0,-39.4241 -45.2517,-45.2419 -99.9686,-45.9024 -149.3047,-37.9852 13.4848,-65.6102 13.6792,-124.2394 -33.8415,-171.7484 -50.7623,-50.7256 -114.2963,-45.6765 -171.736,-33.8274 2.5931,-16.5044 4.2139,-33.0812 3.6304,-49.7708 -0.1296,-4.8004 -4.1491,-8.5692 -8.9466,-8.4198 -4.7974,0.1546 -8.5576,4.1625 -8.428,8.9672 0.5187,15.5902 -0.9724,32.615 -4.6029,53.2182 -7.3258,1.674 -14.2627,3.3027 -22.2369,5.135 9.7246,-48.2508 12.5771,-94.176 -24.5708,-131.3198 -4.0843,-4.0855 -4.0843,-10.7316 0,-14.8215 4.1492,-4.0987 10.7619,-4.0987 14.8463,0 16.2724,16.2735 26.8398,34.6556 32.2855,56.1907 1.2318,4.6556 5.8996,7.4741 10.5674,6.2935 4.6678,-1.181 7.5204,-5.9132 6.2885,-10.5689 -6.2237,-24.6568 -18.2821,-45.6629 -36.8236,-64.2167 -5.2513,-5.2662 -12.253,-8.1663 -19.7085,-8.1663 -24.7653,0 -37.2128,30.1316 -19.7086,47.5903 z m 275.5947,510.11 c 4.1491,4.099 4.1491,10.7271 0,14.8258 -4.0844,4.0944 -10.697,4.0991 -14.7814,0 -28.2013,-28.1723 -36.6941,-61.199 -36.6941,-94.0447 0,-15.8847 2.0098,-31.7329 4.7327,-46.9659 7.261,-1.6606 14.4572,-3.3527 22.172,-5.1352 -9.7246,48.2508 -12.5771,94.1762 24.5708,131.32 z m -9.1412,-47.2012 c -7.261,-23.6028 -4.4732,-51.834 3.2416,-88.2718 36.4348,-7.7228 64.636,-10.4962 88.2343,-3.2395 z m -43.3716,-134.8713 c -28.6551,6.6323 -55.3653,12.5004 -79.547,12.2425 l 91.8,-91.7601 c 0.2593,24.1684 -5.6403,50.8791 -12.253,79.5176 z m 9.984,-101.8313 -111.8327,111.789 c -13.1607,-2.7642 -25.4136,-8.2251 -36.6292,-17.4634 l 130.9576,-130.949 c 9.2708,11.1794 14.7165,23.4266 17.5043,36.6234 z m -29.7573,-48.929 -130.9576,130.9532 c -9.2708,-11.1794 -14.7166,-23.4308 -17.5043,-36.6234 l 111.8326,-111.7889 c 13.1607,2.7642 25.4136,8.2205 36.6293,17.4591 z m -138.478,-7.506 c 28.5903,-6.6324 55.3653,-12.4959 79.4823,-12.2423 l -91.7353,91.7602 c -0.2593,-24.1641 5.5755,-50.8795 12.253,-79.5179 z m 171.9954,-13.7535 c 46.7428,46.735 40.0004,105.7718 27.6826,162.7947 -6.1589,1.2263 -12.4474,2.5609 -22.561,4.8681 13.031,-57.3804 21.783,-111.1192 -19.903,-152.8416 -91.9296,-91.8776 -251.3479,64.0224 -354.1043,-38.7816 -4.1492,-4.0853 -4.1492,-10.7314 0,-14.8213 4.0843,-4.0852 10.6971,-4.0852 14.7814,0 92.3834,92.4026 250.7644,-64.5785 354.1043,38.7817 z m -218.6086,-32.8457 c -36.4347,7.7227 -64.7008,10.4962 -88.2992,3.2392 l 91.5408,-91.5115 c 7.261,23.6029 4.4733,51.8341 -3.2416,88.2723 z m 0,0"
       inkscape:connector-curvature="0"
       style="fill:#ffccaa;fill-opacity:1;stroke-width:1.1582197" />
    <g
       id="g4718"
       transform="matrix(1.3113627,0,0,1.2748877,1186.8117,-1274.2679)"
       style="fill:#b1a1c8;fill-opacity:1">
      <g
         id="g4643"
         style="fill:#b1a1c8;fill-opacity:1">
	<g
   id="g4641"
   style="fill:#b1a1c8;fill-opacity:1">
		<path
   id="path4639"
   d="m 511.976,416.063 c -0.005,-0.075 -0.004,-0.149 -0.011,-0.224 -0.027,-0.297 -0.07,-0.588 -0.131,-0.873 -0.006,-0.028 -0.015,-0.056 -0.022,-0.084 -0.059,-0.262 -0.132,-0.518 -0.218,-0.768 -0.023,-0.067 -0.048,-0.132 -0.073,-0.198 -0.084,-0.227 -0.179,-0.448 -0.284,-0.663 -0.018,-0.038 -0.03,-0.077 -0.049,-0.115 L 471.076,334.02 V 73.72 c 0,-8.006 -6.513,-14.519 -14.519,-14.519 H 55.441 c -8.006,0 -14.519,6.513 -14.519,14.519 V 334.018 L 0.811,413.137 c -0.019,0.038 -0.031,0.077 -0.049,0.115 -0.105,0.215 -0.199,0.436 -0.284,0.662 -0.025,0.066 -0.05,0.132 -0.073,0.199 -0.085,0.251 -0.159,0.508 -0.218,0.77 -0.006,0.027 -0.015,0.054 -0.021,0.081 -0.061,0.286 -0.104,0.577 -0.131,0.874 -0.007,0.074 -0.007,0.149 -0.011,0.223 C 0.014,416.217 0,416.371 0,416.529 v 19.026 c 0,9.509 7.735,17.244 17.244,17.244 h 477.512 c 9.509,0 17.244,-7.735 17.244,-17.244 v -19.026 c 0,-0.158 -0.014,-0.312 -0.024,-0.466 z M 55.923,74.203 H 456.077 V 328.312 H 55.923 Z M 53.029,343.311 H 458.97 l 33.318,65.717 h -164.78 l -8.271,-29.989 c -1.684,-6.105 -7.282,-10.369 -13.615,-10.369 h -99.246 c -6.333,0 -11.932,4.264 -13.615,10.368 l -8.271,29.99 H 19.711 Z m 258.919,65.718 H 200.052 l 6.993,-25.358 h 97.91 z M 497,435.554 c 0,1.237 -1.007,2.244 -2.244,2.244 H 17.244 c -1.237,0 -2.244,-1.007 -2.244,-2.244 v -11.526 h 482 z"
   inkscape:connector-curvature="0"
   style="fill:#b1a1c8;fill-opacity:1" />

	</g>

</g>
      <g
         id="g4649"
         style="fill:#b1a1c8;fill-opacity:1">
	<g
   id="g4647"
   style="fill:#b1a1c8;fill-opacity:1">
		<path
   id="path4645"
   d="m 432.577,213.756 c -4.143,0 -7.5,3.357 -7.5,7.5 v 76.055 H 86.923 v -76.055 c 0,-4.143 -3.357,-7.5 -7.5,-7.5 -4.143,0 -7.5,3.357 -7.5,7.5 v 79.294 c 0,6.485 5.275,11.761 11.761,11.761 h 344.633 c 6.485,0 11.761,-5.275 11.761,-11.761 v -79.294 c -10e-4,-4.141 -3.358,-7.5 -7.501,-7.5 z"
   inkscape:connector-curvature="0"
   style="fill:#b1a1c8;fill-opacity:1" />

	</g>

</g>
      <g
         id="g4655"
         style="fill:#b1a1c8;fill-opacity:1">
	<g
   id="g4653"
   style="fill:#b1a1c8;fill-opacity:1">
		<path
   id="path4651"
   d="M 428.316,90.203 H 83.684 c -6.485,0 -11.761,5.275 -11.761,11.761 v 79.294 c 0,4.143 3.357,7.5 7.5,7.5 4.143,0 7.5,-3.357 7.5,-7.5 v -76.055 h 338.154 v 76.055 c 0,4.143 3.357,7.5 7.5,7.5 4.143,0 7.5,-3.357 7.5,-7.5 v -79.294 c 0,-6.487 -5.275,-11.761 -11.761,-11.761 z"
   inkscape:connector-curvature="0"
   style="fill:#b1a1c8;fill-opacity:1" />

	</g>

</g>
      <g
         id="g4657"
         style="fill:#b1a1c8;fill-opacity:1">
</g>
      <g
         id="g4659"
         style="fill:#b1a1c8;fill-opacity:1">
</g>
      <g
         id="g4661"
         style="fill:#b1a1c8;fill-opacity:1">
</g>
      <g
         id="g4663"
         style="fill:#b1a1c8;fill-opacity:1">
</g>
      <g
         id="g4665"
         style="fill:#b1a1c8;fill-opacity:1">
</g>
      <g
         id="g4667"
         style="fill:#b1a1c8;fill-opacity:1">
</g>
      <g
         id="g4669"
         style="fill:#b1a1c8;fill-opacity:1">
</g>
      <g
         id="g4671"
         style="fill:#b1a1c8;fill-opacity:1">
</g>
      <g
         id="g4673"
         style="fill:#b1a1c8;fill-opacity:1">
</g>
      <g
         id="g4675"
         style="fill:#b1a1c8;fill-opacity:1">
</g>
      <g
         id="g4677"
         style="fill:#b1a1c8;fill-opacity:1">
</g>
      <g
         id="g4679"
         style="fill:#b1a1c8;fill-opacity:1">
</g>
      <g
         id="g4681"
         style="fill:#b1a1c8;fill-opacity:1">
</g>
      <g
         id="g4683"
         style="fill:#b1a1c8;fill-opacity:1">
</g>
      <g
         id="g4685"
         style="fill:#b1a1c8;fill-opacity:1">
</g>
    </g>
    <g
       id="g4929"
       transform="matrix(1.1559535,0,0,1.1559454,1569.2244,-1912.422)"
       style="fill:#ffaaaa;stroke:#000000;stroke-opacity:1">
      <g
         id="g4809"
         style="fill:#ffaaaa;stroke:#000000;stroke-opacity:1">
	<g
   id="g4807"
   style="fill:#ffaaaa;stroke:#000000;stroke-opacity:1">
		<path
   id="path4805"
   d="m 470.71,0 c -22.768,0 -41.29,18.523 -41.29,41.29 0,3.702 0.498,7.288 1.415,10.705 l -59.788,29.894 c -7.565,-9.625 -19.301,-15.825 -32.465,-15.825 -22.768,0 -41.29,18.523 -41.29,41.29 0,16.773 10.058,31.232 24.456,37.689 l -15.486,69.685 c -0.238,-0.004 -0.473,-0.018 -0.712,-0.018 -19.905,0 -36.566,14.159 -40.439,32.934 l -183.36,0.095 C 77.913,228.915 61.231,214.709 41.292,214.709 18.522,214.71 0,233.232 0,256 c 0,22.086 17.431,40.176 39.259,41.239 l 20.666,134.775 c -15.688,5.857 -26.893,20.99 -26.893,38.696 0,22.768 18.522,41.29 41.29,41.29 22.768,0 41.29,-18.522 41.29,-41.29 0,-1.678 -0.112,-3.33 -0.308,-4.956 l 121.462,-40.488 c 7.148,12.343 20.49,20.669 35.75,20.669 22.768,0 41.29,-18.522 41.29,-41.29 0,-16.773 -10.058,-31.232 -24.456,-37.689 l 15.486,-69.685 c 0.238,0.004 0.473,0.018 0.712,0.018 22.768,0 41.29,-18.522 41.29,-41.29 0,-16.773 -10.058,-31.232 -24.456,-37.689 l 15.484,-69.685 c 0.238,0.004 0.473,0.018 0.712,0.018 22.768,0 41.29,-18.523 41.29,-41.29 0,-3.702 -0.498,-7.288 -1.415,-10.705 l 59.788,-29.894 c 7.567,9.627 19.302,15.827 32.466,15.827 22.768,0 41.29,-18.523 41.29,-41.29 C 512,18.523 493.478,0 470.71,0 Z M 16.516,256 c 0,-13.661 11.113,-24.774 24.774,-24.774 13.661,0 24.774,11.113 24.774,24.774 0,13.661 -11.113,24.774 -24.774,24.774 -13.661,0 -24.774,-11.113 -24.774,-24.774 z m 57.807,239.484 c -13.661,0 -24.774,-11.113 -24.774,-24.774 0,-13.661 11.113,-24.774 24.774,-24.774 13.661,0 24.774,11.113 24.774,24.774 0,13.661 -11.113,24.774 -24.774,24.774 z m 156.903,-90.839 c 0,1.678 0.112,3.33 0.308,4.956 L 110.072,450.089 C 103.227,438.268 90.699,430.134 76.245,429.468 L 55.586,294.736 c 13.236,-4.9 23.297,-16.398 26.165,-30.482 31.264,-0.017 152.011,-0.078 183.321,-0.095 2.658,13.208 11.643,24.147 23.642,29.529 l -15.486,69.685 c -0.238,-0.004 -0.473,-0.018 -0.712,-0.018 -22.768,0 -41.29,18.522 -41.29,41.29 z m 66.064,0 c 0,13.661 -11.114,24.774 -24.774,24.774 -13.66,0 -24.774,-11.113 -24.774,-24.774 0,-13.661 11.114,-24.774 24.774,-24.774 13.66,0 24.774,11.113 24.774,24.774 z M 330.323,256 c 0,13.661 -11.114,24.774 -24.774,24.774 -13.66,0 -24.774,-11.113 -24.774,-24.774 0,-13.661 11.114,-24.774 24.774,-24.774 13.659,0 24.774,11.113 24.774,24.774 z m 8.258,-123.871 c -13.66,0 -24.774,-11.114 -24.774,-24.774 0,-13.66 11.114,-24.774 24.774,-24.774 13.66,0 24.774,11.114 24.774,24.774 0,13.66 -11.114,24.774 -24.774,24.774 z M 470.71,66.065 c -13.66,0 -24.774,-11.114 -24.774,-24.774 0,-13.66 11.114,-24.774 24.774,-24.774 13.66,0 24.774,11.114 24.774,24.774 0,13.659 -11.114,24.774 -24.774,24.774 z"
   inkscape:connector-curvature="0"
   style="fill:#ffaaaa;stroke:#000000;stroke-opacity:1" />

	</g>

</g>
      <g
         id="g4815"
         style="fill:#ffaaaa;stroke:#000000;stroke-opacity:1">
	<g
   id="g4813"
   style="fill:#ffaaaa;stroke:#000000;stroke-opacity:1">
		<circle
   id="circle4811"
   r="8.809"
   cy="50.098999"
   cx="50.098999"
   style="fill:#ffaaaa;stroke:#000000;stroke-opacity:1" />

	</g>

</g>
      <g
         id="g4821"
         style="fill:#ffaaaa;stroke:#000000;stroke-opacity:1">
	<g
   id="g4819"
   style="fill:#ffaaaa;stroke:#000000;stroke-opacity:1">
		<circle
   id="circle4817"
   r="8.809"
   cy="83.130997"
   cx="83.130997"
   style="fill:#ffaaaa;stroke:#000000;stroke-opacity:1" />

	</g>

</g>
      <g
         id="g4827"
         style="fill:#ffaaaa;stroke:#000000;stroke-opacity:1">
	<g
   id="g4825"
   style="fill:#ffaaaa;stroke:#000000;stroke-opacity:1">
		<circle
   id="circle4823"
   r="8.809"
   cy="149.196"
   cx="149.196"
   style="fill:#ffaaaa;stroke:#000000;stroke-opacity:1" />

	</g>

</g>
      <g
         id="g4833"
         style="fill:#ffaaaa;stroke:#000000;stroke-opacity:1">
	<g
   id="g4831"
   style="fill:#ffaaaa;stroke:#000000;stroke-opacity:1">
		<circle
   id="circle4829"
   r="8.809"
   cy="83.130997"
   cx="248.29201"
   style="fill:#ffaaaa;stroke:#000000;stroke-opacity:1" />

	</g>

</g>
      <g
         id="g4839"
         style="fill:#ffaaaa;stroke:#000000;stroke-opacity:1">
	<g
   id="g4837"
   style="fill:#ffaaaa;stroke:#000000;stroke-opacity:1">
		<circle
   id="circle4835"
   r="8.809"
   cy="461.901"
   cx="461.901"
   style="fill:#ffaaaa;stroke:#000000;stroke-opacity:1" />

	</g>

</g>
      <g
         id="g4845"
         style="fill:#ffaaaa;stroke:#000000;stroke-opacity:1">
	<g
   id="g4843"
   style="fill:#ffaaaa;stroke:#000000;stroke-opacity:1">
		<circle
   id="circle4841"
   r="8.809"
   cy="263.70801"
   cx="461.901"
   style="fill:#ffaaaa;stroke:#000000;stroke-opacity:1" />

	</g>

</g>
      <g
         id="g4851"
         style="fill:#ffaaaa;stroke:#000000;stroke-opacity:1">
	<g
   id="g4849"
   style="fill:#ffaaaa;stroke:#000000;stroke-opacity:1">
		<circle
   id="circle4847"
   r="8.809"
   cy="296.73999"
   cx="428.86899"
   style="fill:#ffaaaa;stroke:#000000;stroke-opacity:1" />

	</g>

</g>
      <g
         id="g4853"
         style="fill:#ffaaaa;stroke:#000000;stroke-opacity:1">
</g>
      <g
         id="g4855"
         style="fill:#ffaaaa;stroke:#000000;stroke-opacity:1">
</g>
      <g
         id="g4857"
         style="fill:#ffaaaa;stroke:#000000;stroke-opacity:1">
</g>
      <g
         id="g4859"
         style="fill:#ffaaaa;stroke:#000000;stroke-opacity:1">
</g>
      <g
         id="g4861"
         style="fill:#ffaaaa;stroke:#000000;stroke-opacity:1">
</g>
      <g
         id="g4863"
         style="fill:#ffaaaa;stroke:#000000;stroke-opacity:1">
</g>
      <g
         id="g4865"
         style="fill:#ffaaaa;stroke:#000000;stroke-opacity:1">
</g>
      <g
         id="g4867"
         style="fill:#ffaaaa;stroke:#000000;stroke-opacity:1">
</g>
      <g
         id="g4869"
         style="fill:#ffaaaa;stroke:#000000;stroke-opacity:1">
</g>
      <g
         id="g4871"
         style="fill:#ffaaaa;stroke:#000000;stroke-opacity:1">
</g>
      <g
         id="g4873"
         style="fill:#ffaaaa;stroke:#000000;stroke-opacity:1">
</g>
      <g
         id="g4875"
         style="fill:#ffaaaa;stroke:#000000;stroke-opacity:1">
</g>
      <g
         id="g4877"
         style="fill:#ffaaaa;stroke:#000000;stroke-opacity:1">
</g>
      <g
         id="g4879"
         style="fill:#ffaaaa;stroke:#000000;stroke-opacity:1">
</g>
      <g
         id="g4881"
         style="fill:#ffaaaa;stroke:#000000;stroke-opacity:1">
</g>
    </g>
    <g
       id="g5067"
       transform="matrix(2.9821237,0,0,2.9821237,1838.4918,-1664.8666)">
      <g
         id="g5004">
	<g
   id="g5002">
		<g
   id="g5000">
			<path
   id="path4988"
   d="m 154.834,70.021 c 1.212,0.637 2.56,0.968 3.929,0.967 3.164,-0.001 6.072,-1.739 7.571,-4.525 0.404,-0.758 10.271,-18.542 37.188,-14.429 4.655,0.696 8.995,-2.507 9.7,-7.161 0.706,-4.653 -2.49,-9 -7.142,-9.714 -39.367,-5.988 -54.287,22.258 -54.904,23.462 -2.12,4.16 -0.486,9.251 3.658,11.4 z"
   inkscape:connector-curvature="0" />

			<path
   id="path4990"
   d="m 449.313,328.05 -51.642,-44.642 c -2.048,-1.742 -4.255,-3.29 -6.59,-4.623 8.46,-4.825 16.03,-11.065 22.382,-18.447 l 2.696,-3.142 c 17.774,-20.797 24.534,-48.839 18.188,-75.45 L 406.427,65.417 C 397.304,26.995 362.941,-0.097 323.451,0 h -134.9 c -39.49,-0.097 -73.853,26.995 -82.975,65.417 L 77.655,181.746 c -6.347,26.612 0.414,54.654 18.192,75.45 l 2.688,3.137 c 6.357,7.388 13.934,13.632 22.401,18.459 -2.352,1.336 -4.573,2.89 -6.635,4.641 L 62.688,328.05 c -1.714,1.479 -2.769,3.579 -2.933,5.837 -0.164,2.258 0.576,4.489 2.058,6.2 10.325,12.025 25.028,19.424 40.838,20.55 1.492,0.112 2.976,0.168 4.454,0.167 14.228,0.006 27.983,-5.112 38.746,-14.417 0.066,-0.053 0.147,-0.068 0.212,-0.124 l 0.077,-0.099 7.46,-6.432 v 1.073 c 0.003,7.424 1.94,14.719 5.621,21.167 l 24.725,43.262 c 2.826,4.81 7.155,8.557 12.321,10.664 v 10.77 c 0.041,13.046 7.527,24.923 19.279,30.587 -2.013,4.922 -2.654,10.297 -1.854,15.554 2.304,14.517 15.321,27.433 38.688,38.383 0.128,0.06 0.266,0.035 0.396,0.089 1.012,0.446 2.101,0.689 3.207,0.717 l 0.014,0.003 h 0.004 0.004 l 0.014,-0.003 c 1.104,-0.028 2.193,-0.271 3.204,-0.716 0.131,-0.054 0.27,-0.029 0.399,-0.089 23.367,-10.95 36.383,-23.867 38.688,-38.383 0.8,-5.257 0.159,-10.633 -1.854,-15.554 11.752,-5.664 19.239,-17.542 19.279,-30.588 v -10.77 c 5.166,-2.107 9.495,-5.854 12.321,-10.664 l 24.725,-43.262 c 3.681,-6.449 5.618,-13.745 5.621,-21.171 v -1.067 l 7.558,6.517 0.006,0.005 0.006,0.008 0.026,0.016 c 10.795,9.381 24.618,14.54 38.92,14.526 1.488,0 2.983,-0.054 4.479,-0.167 15.805,-1.119 30.501,-8.525 40.804,-20.563 3.071,-3.568 2.674,-8.948 -0.888,-12.026 z M 122.168,69.4 c 7.301,-30.737 34.792,-52.409 66.383,-52.333 h 134.9 c 31.592,-0.076 59.083,21.597 66.383,52.333 l 18.547,77.276 c -2.652,26.257 -13.057,83.724 -53.31,83.724 -31.017,0 -41.062,-4.246 -50.775,-8.354 -15.174,-6.714 -31.733,-9.701 -48.296,-8.713 -16.563,-0.989 -33.122,1.999 -48.296,8.713 -9.712,4.108 -19.758,8.354 -50.775,8.354 -40.545,0 -50.814,-58.328 -53.336,-83.614 z m -18.267,274.217 c -8.352,-0.593 -16.34,-3.65 -22.954,-8.783 l 25.171,-21.764 21.754,25.188 c -7.288,4.107 -15.627,5.971 -23.971,5.359 z m 49.7,-26.417 -12.245,10.556 -22.326,-25.85 6.426,-5.556 c 7.802,-6.763 18.908,-8.165 28.146,-3.552 V 317.2 Z m 45.163,79.567 -24.725,-43.262 c -2.206,-3.869 -3.368,-8.246 -3.371,-12.7 v -50.671 h 17.067 V 332.8 c 0.047,15.521 10.569,29.052 25.6,32.922 v 35.345 h -7.163 c -3.061,-0.004 -5.887,-1.644 -7.408,-4.3 z m 65.77,-88.355 v -18.278 h 42.667 V 332.8 c -0.009,9.422 -7.645,17.057 -17.067,17.067 h -1.212 c 0.767,-2.781 1.174,-5.649 1.212,-8.533 -0.047,-15.521 -10.569,-29.053 -25.6,-32.922 z m 17.067,58.522 v 34.133 h -17.067 v -26.812 c 5.108,-1.333 9.835,-3.84 13.804,-7.322 h 3.263 z m -8.533,-25.6 c 0,9.426 -7.641,17.067 -17.067,17.067 -9.426,0 -17.067,-7.641 -17.067,-17.067 0.009,-9.422 7.645,-17.057 17.067,-17.067 9.426,0 17.067,7.641 17.067,17.067 z m -25.6,32.921 v 26.812 h -17.067 v -34.133 h 3.263 c 3.969,3.481 8.695,5.988 13.804,7.321 z m 0,-65.843 c -15.031,3.869 -25.553,17.401 -25.6,32.922 0.037,2.885 0.445,5.752 1.212,8.533 h -1.212 c -9.422,-0.009 -17.057,-7.645 -17.067,-17.067 v -42.667 h 42.667 z m 33.983,161.722 v 0 c -1.224,7.737 -10.272,16.105 -25.452,23.796 -15.07,-7.634 -24.103,-15.952 -25.423,-23.641 -0.489,-3.324 0.289,-6.711 2.18,-9.488 h 46.48 c 1.858,2.733 2.646,6.055 2.215,9.333 z m 17.217,-43.467 c -0.009,9.422 -7.645,17.057 -17.067,17.067 h -51.2 c -9.422,-0.009 -17.057,-7.645 -17.067,-17.067 v -8.533 h 85.333 v 8.533 z M 341.334,340.8 c -0.002,4.456 -1.164,8.834 -3.371,12.704 l -24.725,43.262 c -1.521,2.656 -4.347,4.297 -7.408,4.3 h -7.163 v -35.345 c 15.031,-3.869 25.553,-17.401 25.6,-32.922 v -42.667 h 17.067 z m 7.342,-67.733 h -185.35 c -19.934,0.011 -38.875,-8.702 -51.838,-23.846 L 108.8,246.088 C 94.964,229.865 89.482,208.119 93.972,187.275 c 11.422,38.684 33.363,60.192 62.957,60.192 34.479,0 46.667,-5.154 57.421,-9.7 13.074,-5.818 27.374,-8.347 41.65,-7.367 14.276,-0.981 28.576,1.548 41.65,7.367 10.754,4.546 22.942,9.7 57.421,9.7 29.595,0 51.535,-21.507 62.957,-60.192 4.49,20.842 -0.991,42.585 -14.824,58.808 l -2.696,3.142 c -12.961,15.142 -31.9,23.853 -51.832,23.842 z m 9.725,44.133 v -24.401 c 9.24,-4.518 20.279,-3.134 28.117,3.526 l 6.474,5.597 -22.327,25.851 z m 49.742,26.417 c -8.349,0.616 -16.694,-1.243 -23.991,-5.345 l 21.751,-25.185 25.165,21.759 c -6.607,5.127 -14.584,8.179 -22.925,8.771 z"
   inkscape:connector-curvature="0"
   style="stroke:#190202;stroke-width:1.98683119;stroke-miterlimit:4;stroke-dasharray:none;stroke-opacity:1" />

			<path
   id="path4992"
   d="m 162.134,102.4 c 0,4.713 3.821,8.533 8.533,8.533 4.712,0 8.533,-3.82 8.533,-8.533 0,-9.426 7.641,-17.067 17.067,-17.067 9.426,0 17.067,7.641 17.067,17.067 0,4.713 3.82,8.533 8.533,8.533 4.713,0 8.533,-3.82 8.533,-8.533 0,-18.851 -15.282,-34.133 -34.133,-34.133 -18.851,0 -34.133,15.282 -34.133,34.133 z"
   inkscape:connector-curvature="0" />

			<path
   id="path4994"
   d="m 308.48,51.821 v 0 c 26.783,-4.058 36.704,13.546 37.183,14.421 2.172,4.17 7.308,5.797 11.485,3.639 4.177,-2.158 5.822,-7.288 3.677,-11.473 -0.621,-1.204 -15.542,-29.479 -54.904,-23.463 -3.019,0.452 -5.567,2.482 -6.682,5.324 -1.115,2.842 -0.626,6.063 1.281,8.447 1.907,2.384 4.943,3.568 7.96,3.105 z"
   inkscape:connector-curvature="0" />

			<path
   id="path4996"
   d="m 290.134,110.721 c 4.713,0 8.533,-3.821 8.533,-8.533 0,-9.426 7.641,-17.067 17.067,-17.067 9.426,0 17.067,7.641 17.067,17.067 0,4.713 3.82,8.533 8.533,8.533 4.713,0 8.533,-3.82 8.533,-8.533 0,-18.851 -15.282,-34.133 -34.133,-34.133 -18.851,0 -34.133,15.282 -34.133,34.133 0,4.713 3.821,8.533 8.533,8.533 z"
   inkscape:connector-curvature="0" />

			<path
   id="path4998"
   d="m 314.451,128 h -116.9 c -5.129,0.039 -9.95,2.456 -13.05,6.542 -3.68,4.821 -4.952,11.06 -3.454,16.937 7.875,31.396 38.696,53.321 74.954,53.321 36.258,0 67.079,-21.925 74.958,-53.321 1.494,-5.878 0.221,-12.116 -3.458,-16.937 -3.1,-4.086 -7.921,-6.502 -13.05,-6.542 z m -0.046,19.329 c -5.875,23.412 -30.438,40.404 -58.404,40.404 -27.966,0 -52.529,-16.992 -58.4,-40.404 -0.308,-1.221 0.196,-2.2 -0.05,-2.263 h 116.517 c 0.426,0.674 0.548,1.495 0.337,2.263 z"
   inkscape:connector-curvature="0" />

		</g>

	</g>

</g>
      <g
         id="g5006">
</g>
      <g
         id="g5008">
</g>
      <g
         id="g5010">
</g>
      <g
         id="g5012">
</g>
      <g
         id="g5014">
</g>
      <g
         id="g5016">
</g>
      <g
         id="g5018">
</g>
      <g
         id="g5020">
</g>
      <g
         id="g5022">
</g>
      <g
         id="g5024">
</g>
      <g
         id="g5026">
</g>
      <g
         id="g5028">
</g>
      <g
         id="g5030">
</g>
      <g
         id="g5032">
</g>
      <g
         id="g5034">
</g>
    </g>
    <rect
       style="fill:#8089ff;fill-opacity:1;stroke:#000000;stroke-width:16.23647881;stroke-linejoin:round;stroke-miterlimit:4.19999981;stroke-dasharray:none;stroke-opacity:1"
       id="rect5218"
       width="4976.7061"
       height="904.77454"
       x="14.213888"
       y="-605.81531" />
    <g
       id="g4497"
       transform="matrix(-0.47329861,-0.86921277,0.86921277,-0.47329861,825.52006,-365.85678)"
       style="fill:#ffff00;fill-opacity:1">
      <g
         id="g4431"
         style="fill:#ffff00;fill-opacity:1"
         transform="matrix(0.88116025,0,0,0.88116025,-140.7096,-124.60663)">
	<g
   id="g4429"
   style="fill:#ffff00;fill-opacity:1">
		<path
   id="path4427"
   d="m 451.403,273.574 c -4.433,-5.868 -9.266,-11.731 -14.398,-17.574 5.132,-5.843 9.965,-11.706 14.398,-17.574 32.912,-43.574 42.255,-82.792 26.296,-110.426 -2.419,-4.19 -5.416,-8.048 -8.91,-11.53 3.355,-6.499 5.285,-13.851 5.285,-21.655 0,-26.139 -21.269,-47.407 -47.407,-47.407 -26.044,0 -47.241,21.119 -47.393,47.13 -10.465,0.873 -21.402,2.456 -32.711,4.722 C 325.941,38.53 293.341,0 256,0 218.671,0 186.08,38.507 165.456,99.205 102.602,86.73 52.961,95.68 34.296,128 c -15.954,27.634 -6.611,66.852 26.301,110.426 4.433,5.868 9.267,11.731 14.399,17.574 -5.132,5.842 -9.966,11.706 -14.399,17.574 -32.912,43.574 -42.255,82.792 -26.301,110.421 1.752,3.038 3.818,5.913 6.146,8.587 -1.606,4.756 -2.516,9.83 -2.516,15.122 0,26.139 21.269,47.407 47.407,47.407 22.758,0 41.809,-16.127 46.361,-37.549 10.763,-0.853 22.057,-2.491 33.738,-4.836 C 186.056,473.464 218.657,512 256,512 c 37.333,0 69.927,-38.515 90.551,-99.222 18.035,3.579 35.017,5.449 50.454,5.449 38.347,0 67.394,-11.185 80.699,-34.227 15.953,-27.634 6.611,-66.852 -26.301,-110.426 z M 426.667,66.37 c 15.685,0 28.444,12.759 28.444,28.444 0,15.685 -12.759,28.444 -28.444,28.444 -15.685,0 -28.444,-12.759 -28.444,-28.444 C 398.222,79.13 410.982,66.37 426.667,66.37 Z m -81.412,111.188 c -10.421,-6.943 -21.226,-13.663 -32.366,-20.095 -11.255,-6.498 -22.491,-12.498 -33.648,-18.024 18.565,-7.421 36.81,-13.404 54.307,-17.829 4.843,17.202 8.804,36.001 11.707,55.948 z M 256,18.963 c 28.41,0 54.38,33.18 71.928,84.553 -23.09,5.911 -47.329,14.382 -71.816,25.105 -24.918,-10.96 -49.163,-19.358 -72.015,-25.177 C 201.646,52.112 227.604,18.963 256,18.963 Z m -77.561,102.701 c 17.301,4.405 35.551,10.409 54.256,17.861 -11.237,5.55 -22.462,11.517 -33.583,17.938 -11.139,6.432 -21.943,13.151 -32.365,20.095 2.899,-19.926 6.855,-38.705 11.692,-55.894 z M 50.722,137.482 c 9.759,-16.907 32.5,-24.986 63.056,-24.986 13.876,0 29.403,1.727 46.014,4.988 -6.372,22.667 -11.192,47.854 -14.157,74.864 -21.54,15.83 -41.002,32.57 -57.704,49.677 -4.334,-5.002 -8.412,-10.016 -12.199,-15.029 -27.626,-36.57 -36.741,-69.195 -25.01,-89.514 z m 92.709,156.687 C 127.727,281.81 113.387,269.003 100.771,256 c 12.616,-13.004 26.956,-25.81 42.66,-38.168 -0.793,12.428 -1.209,25.168 -1.209,38.168 0,13 0.416,25.74 1.209,38.169 z M 85.333,436.148 c -15.685,0 -28.444,-12.759 -28.444,-28.444 0,-15.685 12.759,-28.444 28.444,-28.444 15.685,0 28.444,12.759 28.444,28.444 0.001,15.685 -12.758,28.444 -28.444,28.444 z M 131.83,398.51 c -4.295,-21.752 -23.503,-38.214 -46.497,-38.214 -13.476,0 -25.627,5.681 -34.267,14.739 -0.107,-0.177 -0.241,-0.339 -0.344,-0.517 -11.731,-20.32 -2.616,-52.945 25.009,-89.514 3.787,-5.013 7.865,-10.027 12.199,-15.029 16.701,17.106 36.164,33.848 57.704,49.677 2.966,27.022 7.79,52.22 14.167,74.896 -9.664,1.873 -19.005,3.189 -27.971,3.962 z m 34.917,-64.068 c 10.421,6.943 21.226,13.663 32.365,20.095 11.26,6.5 22.493,12.459 33.655,17.987 -18.554,7.413 -36.815,13.429 -54.315,17.859 -4.843,-17.2 -8.804,-35.997 -11.705,-55.941 z M 256,493.037 c -28.409,0 -54.377,-33.18 -71.926,-84.549 23.099,-5.92 47.364,-14.417 71.835,-25.125 24.905,10.953 49.151,19.383 71.993,25.201 -17.55,51.327 -43.506,84.473 -71.902,84.473 z M 333.567,390.321 C 316.249,385.912 298,379.952 279.277,372.49 c 11.257,-5.555 22.494,-11.534 33.612,-17.953 11.14,-6.432 21.944,-13.152 32.366,-20.095 -2.899,19.92 -6.853,38.695 -11.688,55.879 z m 14.715,-80.998 c -14.148,10.05 -29.148,19.709 -44.875,28.788 -15.669,9.046 -31.547,17.213 -47.358,24.442 -15.73,-7.172 -31.635,-15.308 -47.457,-24.442 -15.726,-9.079 -30.727,-18.738 -44.875,-28.788 -1.653,-17.203 -2.533,-35.06 -2.533,-53.323 0,-18.263 0.88,-36.12 2.533,-53.323 14.148,-10.049 29.149,-19.71 44.875,-28.788 15.68,-9.052 31.544,-17.227 47.322,-24.449 15.743,7.177 31.658,15.307 47.493,24.449 15.727,9.079 30.727,18.74 44.875,28.788 1.653,17.203 2.532,35.06 2.532,53.323 0,18.263 -0.879,36.12 -2.532,53.323 z m 34.717,-196.058 c 7.211,17 24.071,28.957 43.668,28.957 11.433,0 21.933,-4.068 30.131,-10.833 1.713,1.9 3.232,3.928 4.48,6.093 11.731,20.319 2.616,52.944 -25.009,89.514 -3.786,5.013 -7.863,10.027 -12.199,15.029 -16.701,-17.107 -36.163,-33.848 -57.703,-49.677 -2.966,-27.02 -7.789,-52.216 -14.164,-74.889 10.674,-2.063 20.973,-3.473 30.796,-4.194 z m -14.428,104.567 c 15.704,12.358 30.044,25.164 42.66,38.168 -12.616,13.003 -26.956,25.81 -42.66,38.169 0.793,-12.429 1.207,-25.169 1.207,-38.169 0,-13 -0.414,-25.74 -1.207,-38.168 z m 92.707,156.686 c -14.197,24.589 -55.875,30.47 -109.074,20.016 6.375,-22.671 11.197,-47.866 14.163,-74.882 21.539,-15.829 41.001,-32.571 57.703,-49.677 4.336,5.002 8.413,10.016 12.199,15.029 27.625,36.57 36.74,69.195 25.009,89.514 z"
   inkscape:connector-curvature="0"
   style="fill:#ffff00;fill-opacity:1" />

	</g>

</g>
      <g
         id="g4437"
         style="fill:#ffff00;fill-opacity:1">
	
</g>
      <g
         id="g4439"
         style="fill:#ffff00;fill-opacity:1">
</g>
      <g
         id="g4441"
         style="fill:#ffff00;fill-opacity:1">
</g>
      <g
         id="g4443"
         style="fill:#ffff00;fill-opacity:1">
</g>
      <g
         id="g4445"
         style="fill:#ffff00;fill-opacity:1">
</g>
      <g
         id="g4447"
         style="fill:#ffff00;fill-opacity:1">
</g>
      <g
         id="g4449"
         style="fill:#ffff00;fill-opacity:1">
</g>
      <g
         id="g4451"
         style="fill:#ffff00;fill-opacity:1">
</g>
      <g
         id="g4453"
         style="fill:#ffff00;fill-opacity:1">
</g>
      <g
         id="g4455"
         style="fill:#ffff00;fill-opacity:1">
</g>
      <g
         id="g4457"
         style="fill:#ffff00;fill-opacity:1">
</g>
      <g
         id="g4459"
         style="fill:#ffff00;fill-opacity:1">
</g>
      <g
         id="g4461"
         style="fill:#ffff00;fill-opacity:1">
</g>
      <g
         id="g4463"
         style="fill:#ffff00;fill-opacity:1">
</g>
      <g
         id="g4465"
         style="fill:#ffff00;fill-opacity:1">
</g>
      <g
         id="g4467"
         style="fill:#ffff00;fill-opacity:1">
</g>
    </g>
    <text
       xml:space="preserve"
       style="font-style:normal;font-variant:normal;font-weight:normal;font-stretch:normal;font-size:899.11578369px;line-height:1.25;font-family:Haettenschweiler;-inkscape-font-specification:'Haettenschweiler, Normal';font-variant-ligatures:normal;font-variant-caps:normal;font-variant-numeric:normal;font-feature-settings:normal;text-align:start;letter-spacing:0px;word-spacing:0px;writing-mode:lr-tb;text-anchor:start;fill:#000000;fill-opacity:1;stroke:none;stroke-width:22.4778862"
       x="26.74651"
       y="153.15344"
       id="text4120"
       transform="scale(0.8392763,1.1915027)"><tspan
         sodipodi:role="line"
         id="tspan4118"
         x="26.74651"
         y="153.15344"
         style="font-style:normal;font-variant:normal;font-weight:normal;font-stretch:normal;font-size:866.75610352px;font-family:Haettenschweiler;-inkscape-font-specification:'Haettenschweiler, Normal';font-variant-ligatures:normal;font-variant-caps:normal;font-variant-numeric:normal;font-feature-settings:normal;text-align:start;writing-mode:lr-tb;text-anchor:start;fill:#000000;stroke-width:22.4778862">Quoi de neuf docteur ?</tspan></text>
    <g
       id="g6164"
       transform="matrix(1.0128689,0,0,1.0128689,3344.3789,-1199.383)"
       style="fill:#a8e7b0;fill-opacity:1">
      <path
         id="path6102"
         d="M 320,342.74219 V 288 h 16 v -16 h -96 v 16 h 16 v 54.74219 c -5.44141,2.3789 -10.39063,5.48047 -15.07031,8.91406 L 192,261.96094 V 224 h 16 v -16 h -16 v -24 c 0,-4.41406 -3.57422,-8 -8,-8 h -8 v -24 c 0,-4.41406 -3.57422,-8 -8,-8 h -48 c -4.42578,0 -8,3.58594 -8,8 v 24 h -8 c -4.425781,0 -8,3.58594 -8,8 v 24 H 80 v 16 h 16 v 37.96094 L 4.878906,429.00781 C 1.6875,434.86328 0,441.48828 0,448.16016 V 456 c 0,22.05469 17.945312,40 40,40 h 208 c 5.67187,0 11.23828,-1.26562 16.36719,-3.56641 C 271.83984,494.74219 279.77734,496 288,496 c 44.11328,0 80,-35.88672 80,-80 0,-31.86328 -19.07031,-60.61719 -48,-73.25781 z M 304,288 v 16 h -32 v -16 z m -37.32813,67.72656 C 269.86328,354.59375 272,351.57422 272,348.18359 V 320 h 32 v 28.18359 c 0,3.39063 2.13672,6.41016 5.32812,7.54297 20.35157,7.21094 35.20704,24.1211 40.46485,44.35156 -6.08985,0.21094 -11.80078,2.61719 -16.13672,6.95313 l -6.625,6.625 C 325.53516,415.14453 323.48047,416 321.375,416 h -2.75 c -2.10547,0 -4.16797,-0.85547 -5.65625,-2.34375 l -6.625,-6.625 C 301.81641,402.49609 295.78516,400 289.375,400 h -2.75 c -6.41016,0 -12.44141,2.49609 -16.96875,7.03125 l -6.625,6.625 C 261.53516,415.14453 259.48047,416 257.375,416 h -2.75 c -2.10547,0 -4.16797,-0.85547 -5.65625,-2.34375 l -6.625,-6.625 c -4.32813,-4.33594 -10.03906,-6.73438 -16.13672,-6.95313 5.25781,-20.23046 20.11328,-37.14843 40.46484,-44.35156 z M 128,160 h 32 v 16 h -32 z m -16,32 h 64 v 16 h -64 z m -0.97656,75.83203 C 111.66406,266.65625 112,265.33594 112,264 v -40 h 64 v 40 c 0,1.33594 0.33594,2.65625 0.97656,3.83203 l 28.51953,52.28125 c -5.97656,0.27735 -11.57422,2.65625 -15.83984,6.91797 l -6.625,6.625 C 181.53516,335.14453 179.48047,336 177.375,336 h -2.75 c -2.10547,0 -4.16797,-0.85547 -5.65625,-2.34375 l -6.625,-6.625 C 157.81641,322.49609 151.78516,320 145.375,320 h -2.75 c -6.41016,0 -12.44141,2.49609 -16.96875,7.03125 l -6.625,6.625 C 117.53516,335.14453 115.48047,336 113.375,336 h -2.75 c -2.10547,0 -4.16797,-0.85547 -5.65625,-2.34375 l -6.625,-6.625 c -4.253906,-4.26172 -9.863281,-6.64062 -15.839844,-6.91797 z M 40,480 C 26.769531,480 16,469.23047 16,456 v -7.83984 c 0,-4 1.015625,-7.98438 2.929688,-11.4961 L 73.839844,336 H 81.375 c 2.105469,0 4.167969,0.85547 5.65625,2.34375 l 6.625,6.625 C 98.183594,349.50391 104.21484,352 110.625,352 h 2.75 c 6.41016,0 12.44141,-2.49609 16.96875,-7.03125 l 6.625,-6.625 C 138.46484,336.85547 140.51953,336 142.625,336 h 2.75 c 2.10547,0 4.16797,0.85547 5.65625,2.34375 l 6.625,6.625 C 162.18359,349.50391 168.21484,352 174.625,352 h 2.75 c 6.41016,0 12.44141,-2.49609 16.96875,-7.03125 l 6.625,-6.625 C 202.46484,336.85547 204.51953,336 206.625,336 h 7.53516 l 14.48046,26.54297 C 215.6875,376.92969 208,395.82422 208,416 c 0,26.18359 12.70312,49.39844 32.20703,64 z m 248,0 c -35.28906,0 -64,-28.71094 -64,-64 h 1.375 c 2.10547,0 4.16797,0.85547 5.65625,2.34375 l 6.625,6.625 C 242.18359,429.50391 248.21484,432 254.625,432 h 2.75 c 6.41016,0 12.44141,-2.49609 16.96875,-7.03125 l 6.625,-6.625 C 282.46484,416.85547 284.51953,416 286.625,416 h 2.75 c 2.10547,0 4.16797,0.85547 5.65625,2.34375 l 6.625,6.625 C 306.18359,429.50391 312.21484,432 318.625,432 h 2.75 c 6.41016,0 12.44141,-2.49609 16.96875,-7.03125 l 6.625,-6.625 C 346.46484,416.85547 348.51953,416 350.625,416 H 352 c 0,35.28906 -28.71094,64 -64,64 z m 0,0"
         inkscape:connector-curvature="0"
         style="fill:#a8e7b0;fill-opacity:1" />
      <path
         id="path6104"
         d="m 56,416 c -13.230469,0 -24,10.76953 -24,24 0,13.23047 10.769531,24 24,24 13.230469,0 24,-10.76953 24,-24 0,-13.23047 -10.769531,-24 -24,-24 z m 0,32 c -4.414062,0 -8,-3.59375 -8,-8 0,-4.40625 3.585938,-8 8,-8 4.414062,0 8,3.59375 8,8 0,4.40625 -3.585938,8 -8,8 z m 0,0"
         inkscape:connector-curvature="0"
         style="fill:#a8e7b0;fill-opacity:1" />
      <path
         id="path6106"
         d="m 120,400 c -13.23047,0 -24,10.76953 -24,24 0,13.23047 10.76953,24 24,24 13.23047,0 24,-10.76953 24,-24 0,-13.23047 -10.76953,-24 -24,-24 z m 0,32 c -4.41406,0 -8,-3.59375 -8,-8 0,-4.40625 3.58594,-8 8,-8 4.41406,0 8,3.59375 8,8 0,4.40625 -3.58594,8 -8,8 z m 0,0"
         inkscape:connector-curvature="0"
         style="fill:#a8e7b0;fill-opacity:1" />
      <path
         id="path6108"
         d="m 176,368 c -13.23047,0 -24,10.76953 -24,24 0,13.23047 10.76953,24 24,24 13.23047,0 24,-10.76953 24,-24 0,-13.23047 -10.76953,-24 -24,-24 z m 0,32 c -4.41406,0 -8,-3.59375 -8,-8 0,-4.40625 3.58594,-8 8,-8 4.41406,0 8,3.59375 8,8 0,4.40625 -3.58594,8 -8,8 z m 0,0"
         inkscape:connector-curvature="0"
         style="fill:#a8e7b0;fill-opacity:1" />
      <path
         id="path6110"
         d="m 184,448 h 16 v 16 h -16 z m 0,0"
         inkscape:connector-curvature="0"
         style="fill:#a8e7b0;fill-opacity:1" />
      <path
         id="path6112"
         d="m 168,432 h 16 v 16 h -16 z m 0,0"
         inkscape:connector-curvature="0"
         style="fill:#a8e7b0;fill-opacity:1" />
      <path
         id="path6114"
         d="m 152,448 h 16 v 16 h -16 z m 0,0"
         inkscape:connector-curvature="0"
         style="fill:#a8e7b0;fill-opacity:1" />
      <path
         id="path6116"
         d="m 88,376 h 16 v 16 H 88 Z m 0,0"
         inkscape:connector-curvature="0"
         style="fill:#a8e7b0;fill-opacity:1" />
      <path
         id="path6118"
         d="M 488,112 H 376 c -4.42578,0 -8,3.58594 -8,8 v 32 c 0,4.41406 3.57422,8 8,8 h 8 v 288 c 0,26.47266 21.52734,48 48,48 26.47266,0 48,-21.52734 48,-48 V 160 h 8 c 4.42578,0 8,-3.58594 8,-8 v -32 c 0,-4.41406 -3.57422,-8 -8,-8 z m -56,368 c -17.64844,0 -32,-14.35156 -32,-32 V 272 h 64 v 176 c 0,17.64844 -14.35156,32 -32,32 z m 32,-224 h -64 v -96 h 64 z m 16,-112 h -96 v -16 h 96 z m 0,0"
         inkscape:connector-curvature="0"
         style="fill:#a8e7b0;fill-opacity:1" />
      <path
         id="path6120"
         d="m 416,440 h 16 v 16 h -16 z m 0,0"
         inkscape:connector-curvature="0"
         style="fill:#a8e7b0;fill-opacity:1" />
      <path
         id="path6122"
         d="m 432,408 h 16 v 16 h -16 z m 0,0"
         inkscape:connector-curvature="0"
         style="fill:#a8e7b0;fill-opacity:1" />
      <path
         id="path6124"
         d="m 416,376 h 16 v 16 h -16 z m 0,0"
         inkscape:connector-curvature="0"
         style="fill:#a8e7b0;fill-opacity:1" />
      <path
         id="path6126"
         d="m 432,344 h 16 v 16 h -16 z m 0,0"
         inkscape:connector-curvature="0"
         style="fill:#a8e7b0;fill-opacity:1" />
      <path
         id="path6128"
         d="m 416,312 h 16 v 16 h -16 z m 0,0"
         inkscape:connector-curvature="0"
         style="fill:#a8e7b0;fill-opacity:1" />
      <path
         id="path6130"
         d="m 128,88 c 0,-4.40625 3.58594,-8 8,-8 h 24 v 48 h 16 V 80 h 80 v 176 h 16 V 80 h 24 c 4.41406,0 8,3.59375 8,8 v 168 h 16 V 88 C 320,74.769531 309.23047,64 296,64 h -24 v -8 c 0,-4.40625 3.58594,-8 8,-8 h 96 c 4.41406,0 8,3.59375 8,8 v 40 h 16 V 56 C 400,42.769531 389.23047,32 376,32 h -96 c -13.23047,0 -24,10.769531 -24,24 v 8 H 176 V 24 c 0,-4.40625 3.58594,-8 8,-8 h 272 c 4.41406,0 8,3.59375 8,8 v 72 h 16 V 24 C 480,10.769531 469.23047,0 456,0 H 184 c -13.23047,0 -24,10.769531 -24,24 v 40 h -24 c -13.23047,0 -24,10.769531 -24,24 v 40 h 16 z m 0,0"
         inkscape:connector-curvature="0"
         style="fill:#a8e7b0;fill-opacity:1" />
      <path
         id="path6132"
         d="m 48,120 c 0,13.23047 10.769531,24 24,24 13.230469,0 24,-10.76953 24,-24 C 96,106.76953 85.230469,96 72,96 58.769531,96 48,106.76953 48,120 Z m 32,0 c 0,4.40625 -3.585938,8 -8,8 -4.414062,0 -8,-3.59375 -8,-8 0,-4.40625 3.585938,-8 8,-8 4.414062,0 8,3.59375 8,8 z m 0,0"
         inkscape:connector-curvature="0"
         style="fill:#a8e7b0;fill-opacity:1" />
      <path
         id="path6134"
         d="M 40,80 C 62.054688,80 80,62.054688 80,40 80,17.945312 62.054688,0 40,0 17.945312,0 0,17.945312 0,40 0,62.054688 17.945312,80 40,80 Z M 40,16 C 53.230469,16 64,26.769531 64,40 64,53.230469 53.230469,64 40,64 26.769531,64 16,53.230469 16,40 16,26.769531 26.769531,16 40,16 Z m 0,0"
         inkscape:connector-curvature="0"
         style="fill:#a8e7b0;fill-opacity:1" />
      <path
         id="path6136"
         d="m 32,224 c 17.648438,0 32,-14.35156 32,-32 0,-17.64844 -14.351562,-32 -32,-32 -17.648438,0 -32,14.35156 -32,32 0,17.64844 14.351562,32 32,32 z m 0,-48 c 8.824219,0 16,7.17578 16,16 0,8.82422 -7.175781,16 -16,16 -8.824219,0 -16,-7.17578 -16,-16 0,-8.82422 7.175781,-16 16,-16 z m 0,0"
         inkscape:connector-curvature="0"
         style="fill:#a8e7b0;fill-opacity:1" />
    </g>
    <g
       id="g6405"
       transform="matrix(1.1862367,0,0,1.1862367,2301.397,-2315.8275)"
       style="fill:#decd87">
      <g
         id="g6267"
         style="fill:#decd87">
	<g
   id="g6265"
   style="fill:#decd87">
		<path
   id="path6263"
   d="m 475.266,126.603 c -0.001,0 -0.001,0 -0.002,0 l -0.016,-0.016 -31.12,-4.44 c -4.374,-0.623 -7.415,-4.674 -6.792,-9.048 0.299,-2.102 1.422,-3.998 3.12,-5.272 l 25.152,-18.864 c 3.535,-2.651 4.251,-7.665 1.6,-11.2 l -28.8,-38.4 c -2.651,-3.535 -7.665,-4.251 -11.2,-1.6 l -25.144,18.864 c -3.52,2.671 -8.538,1.983 -11.209,-1.537 -1.297,-1.709 -1.853,-3.868 -1.543,-5.991 l 4.448,-31.12 c 0.627,-4.374 -2.41,-8.427 -6.783,-9.055 -0.003,0 -0.006,-10e-4 -0.009,-10e-4 L 339.48,2.139 c -4.373,-0.628 -8.428,2.408 -9.056,6.782 0,0.001 0,0.001 0,0.002 l -4.448,31.12 c -0.623,4.374 -4.674,7.415 -9.048,6.792 -2.102,-0.299 -3.998,-1.422 -5.272,-3.12 L 292.8,18.563 c -2.651,-3.535 -7.665,-4.251 -11.2,-1.6 l -24.04,18.04 c -10.876,-1.156 -21.844,-1.156 -32.72,0 -71.226,8.141 -127.081,64.943 -134.024,136.296 -0.216,2.264 -0.296,4.512 -0.408,6.76 h -2.4 c -3.796,0.007 -7.065,2.681 -7.824,6.4 l -5.528,26.288 -22.144,-15.272 c -3.178,-2.193 -7.47,-1.802 -10.2,0.928 l -24,24 c -2.726,2.729 -3.116,7.015 -0.928,10.192 l 15.2,22.104 -26.296,5.528 C 2.61,259.033 -0.008,262.294 0,266.059 v 32 c -0.002,3.784 2.649,7.052 6.352,7.832 l 26.296,5.528 -15.2,22.104 c -2.188,3.177 -1.798,7.463 0.928,10.192 l 24,24 c 2.73,2.73 7.022,3.121 10.2,0.928 l 22.104,-15.24 5.528,26.296 c 0.759,3.719 4.028,6.393 7.824,6.4 h 32 c 3.784,0.002 7.052,-2.649 7.832,-6.352 l 5.528,-26.296 22.104,15.2 c 3.177,2.188 7.463,1.798 10.192,-0.928 l 12.424,-12.464 v 22.8 c 0.036,11.381 6.133,21.88 16,27.552 v 44.448 c 0,17.673 14.327,32 32,32 h 32 c 17.673,0 32,-14.327 32,-32 v -44.448 c 9.867,-5.672 15.964,-16.171 16,-27.552 v -31.664 c 0.217,-13.323 7.187,-25.623 18.504,-32.656 6.639,-4.307 12.935,-9.122 18.832,-14.4 l -10.672,-11.92 c -5.275,4.728 -10.911,9.037 -16.856,12.888 -15.885,9.97 -25.609,27.334 -25.808,46.088 v 31.664 c 0,8.837 -7.163,16 -16,16 h -64 c -8.837,0 -16,-7.163 -16,-16 v -32.328 c -0.185,-18.399 -9.756,-35.428 -25.376,-45.152 -63.407,-39.842 -82.511,-123.541 -42.669,-186.948 24.72,-39.341 67.862,-63.286 114.325,-63.452 -0.119,0.285 -0.224,0.576 -0.312,0.872 -0.297,2.1 0.253,4.233 1.528,5.928 l 18.856,25.144 c 1.988,2.573 2.179,6.107 0.48,8.88 -1.636,2.79 -4.799,4.312 -8,3.848 l -31.12,-4.448 c -4.374,-0.627 -8.427,2.41 -9.055,6.783 0,0.003 -0.001,0.006 -0.001,0.009 l -6.792,47.512 c -0.627,4.373 2.41,8.427 6.783,9.055 0.003,0 0.006,0.001 0.009,0.001 l 31.12,4.448 c 4.374,0.623 7.415,4.674 6.792,9.048 -0.299,2.102 -1.422,3.998 -3.12,5.272 l -25.144,18.856 c -3.535,2.651 -4.251,7.665 -1.6,11.2 l 28.8,38.4 c 2.651,3.535 7.665,4.251 11.2,1.6 l 25.152,-18.856 c 3.538,-2.646 8.552,-1.923 11.198,1.616 1.266,1.693 1.811,3.819 1.514,5.912 l -4.44,31.12 c -0.628,4.373 2.408,8.428 6.782,9.056 0.001,0 0.001,0 0.002,0 l 47.52,6.792 c 0.374,0.048 0.751,0.072 1.128,0.072 3.983,0.005 7.362,-2.921 7.928,-6.864 l 4.44,-31.12 c 0.623,-4.374 4.674,-7.415 9.048,-6.792 2.102,0.299 3.998,1.422 5.272,3.12 l 18.864,25.144 c 2.651,3.535 7.665,4.251 11.2,1.6 l 38.4,-28.8 c 3.535,-2.651 4.251,-7.665 1.6,-11.2 l -18.856,-25.144 c -1.979,-2.577 -2.17,-6.105 -0.48,-8.88 1.601,-2.827 4.793,-4.359 8,-3.84 l 31.12,4.44 c 4.373,0.628 8.428,-2.409 9.056,-6.782 0,-0.001 0,-0.001 0,-0.002 l 6.784,-47.52 c 0.628,-4.374 -2.408,-8.428 -6.782,-9.056 z M 210.112,410.059 h 64 v 16 h -64 z m 0,32 h 64 v 8 c 0,8.837 -7.163,16 -16,16 h -32 c -8.837,0 -16,-7.163 -16,-16 z m -63.688,-137.96 c 4.368,3.572 8.932,6.898 13.672,9.96 7.559,4.777 13.249,12.004 16.12,20.472 l -17.16,17.128 -16.616,-11.456 c -7.276,-5.014 -17.239,-3.18 -22.254,4.096 -1.202,1.745 -2.046,3.711 -2.482,5.784 l -4.192,19.976 H 94.496 l -4.192,-19.944 c -1.82,-8.647 -10.305,-14.182 -18.952,-12.362 -2.073,0.436 -4.039,1.28 -5.784,2.482 L 48.944,351.659 34.368,337.115 45.816,320.507 c 5.019,-7.273 3.191,-17.237 -4.082,-22.256 -1.746,-1.205 -3.714,-2.051 -5.79,-2.488 L 16,291.563 v -19.008 l 19.944,-4.2 c 8.644,-1.833 14.166,-10.326 12.333,-18.971 -0.435,-2.051 -1.268,-3.996 -2.453,-5.725 l -11.456,-16.656 14.576,-14.544 16.632,11.456 c 7.279,5.009 17.242,3.169 22.251,-4.11 1.2,-1.743 2.042,-3.707 2.477,-5.778 l 1.4,-6.656 c 1.282,9.218 3.405,18.298 6.344,27.128 -26.323,3.138 -45.118,27.022 -41.98,53.345 3.138,26.323 27.022,45.118 53.345,41.98 15.846,-1.89 29.717,-11.531 37.011,-25.725 z M 134,292.827 c -5.974,16.605 -24.277,25.223 -40.882,19.25 -16.605,-5.974 -25.223,-24.277 -19.25,-40.882 4.57,-12.703 16.631,-21.164 30.131,-21.136 0.104,0 0.2,0 0.304,0 7.357,15.863 17.404,30.332 29.697,42.768 z m 326.512,-119.856 -23.2,-3.312 c -13.122,-1.874 -25.278,7.245 -27.152,20.366 -0.9,6.301 0.74,12.702 4.56,17.794 l 14.056,18.744 -25.6,19.2 -14.064,-18.736 c -7.952,-10.605 -22.995,-12.756 -33.599,-4.804 -5.092,3.818 -8.459,9.503 -9.361,15.804 l -3.24,23.232 -31.672,-4.528 3.312,-23.2 c 1.879,-13.121 -7.235,-25.281 -20.356,-27.159 -6.305,-0.903 -12.709,0.737 -17.804,4.559 l -18.744,14.056 -19.2,-25.6 18.736,-14.064 c 10.605,-7.952 12.756,-22.995 4.804,-33.599 -3.818,-5.092 -9.503,-8.459 -15.804,-9.361 l -23.2,-3.312 4.528,-31.672 23.2,3.312 c 13.121,1.879 25.281,-7.235 27.159,-20.356 0.903,-6.305 -0.737,-12.709 -4.559,-17.804 l -14.104,-18.76 25.6,-19.2 14.064,18.744 c 7.952,10.605 22.995,12.756 33.599,4.804 5.092,-3.818 8.459,-9.503 9.361,-15.804 l 3.312,-23.2 31.672,4.52 -3.312,23.2 c -1.874,13.122 7.244,25.278 20.366,27.152 6.301,0.9 12.702,-0.74 17.794,-4.56 l 18.744,-14.056 19.2,25.6 -18.744,14.064 c -10.605,7.952 -12.756,22.995 -4.804,33.599 3.818,5.092 9.503,8.459 15.804,9.361 l 23.2,3.312 z"
   inkscape:connector-curvature="0"
   style="fill:#decd87" />

	</g>

</g>
      <g
         id="g6273"
         style="fill:#decd87">
	<g
   id="g6271"
   style="fill:#decd87">
		<path
   id="path6269"
   d="m 344,76.171 c -35.346,0 -64,28.654 -64,64 0,35.346 28.654,64 64,64 35.346,0 64,-28.654 64,-64 -0.04,-35.33 -28.67,-63.961 -64,-64 z m 0,112 c -26.51,0 -48,-21.49 -48,-48 0,-26.51 21.49,-48 48,-48 26.51,0 48,21.49 48,48 -0.031,26.497 -21.503,47.969 -48,48 z"
   inkscape:connector-curvature="0"
   style="fill:#decd87" />

	</g>

</g>
      <g
         id="g6279"
         style="fill:#decd87">
	<g
   id="g6277"
   style="fill:#decd87">
		<rect
   id="rect6275"
   height="24"
   width="16"
   y="354.05899"
   x="234.112"
   style="fill:#decd87" />

	</g>

</g>
      <g
         id="g6285"
         style="fill:#decd87">
	<g
   id="g6283"
   style="fill:#decd87">
		<path
   id="path6281"
   d="m 207.12,275.491 c -49.385,-19.292 -73.78,-74.966 -54.487,-124.351 7.476,-19.136 20.893,-35.369 38.279,-46.313 L 182.36,91.291 c -52.336,32.971 -68.035,102.126 -35.064,154.462 12.769,20.269 31.701,35.91 54.016,44.626 19.752,7.568 32.795,26.528 32.8,47.68 h 16 c 0.025,-27.752 -17.077,-52.641 -42.992,-62.568 z"
   inkscape:connector-curvature="0"
   style="fill:#decd87" />

	</g>

</g>
      <g
         id="g6291"
         style="fill:#decd87">
	<g
   id="g6289"
   style="fill:#decd87">
		<rect
   id="rect6287"
   height="16"
   width="56"
   y="298.05899"
   x="394.112"
   style="fill:#decd87" />

	</g>

</g>
      <g
         id="g6297"
         style="fill:#decd87">
	<g
   id="g6295"
   style="fill:#decd87">
		<rect
   id="rect6293"
   height="62.48"
   width="16"
   transform="matrix(0.6401,-0.7683,0.7683,0.6401,-133.6437,446.8239)"
   y="334.82199"
   x="402.11301"
   style="fill:#decd87" />

	</g>

</g>
      <g
         id="g6303"
         style="fill:#decd87">
	<g
   id="g6301"
   style="fill:#decd87">
		<rect
   id="rect6299"
   height="56"
   width="16"
   y="362.05899"
   x="346.112"
   style="fill:#decd87" />

	</g>

</g>
      <g
         id="g6309"
         style="fill:#decd87">
	<g
   id="g6307"
   style="fill:#decd87">
		<rect
   id="rect6305"
   height="15.992"
   width="65.968002"
   transform="matrix(0.9701,-0.2425,0.2425,0.9701,-32.2251,14.3351)"
   y="130.058"
   x="9.1280003"
   style="fill:#decd87" />

	</g>

</g>
      <g
         id="g6315"
         style="fill:#decd87">
	<g
   id="g6313"
   style="fill:#decd87">
		<rect
   id="rect6311"
   height="68.816002"
   width="15.992"
   transform="matrix(0.5812,-0.8137,0.8137,0.5812,-34.3557,73.3688)"
   y="35.657001"
   x="46.111"
   style="fill:#decd87" />

	</g>

</g>
      <g
         id="g6321"
         style="fill:#decd87">
	<g
   id="g6319"
   style="fill:#decd87">
		<rect
   id="rect6317"
   height="66.056"
   width="16"
   transform="matrix(0.9688,-0.2477,0.2477,0.9688,-5.133,27.2971)"
   y="1.024"
   x="97.938004"
   style="fill:#decd87" />

	</g>

</g>
      <g
         id="g6323"
         style="fill:#decd87">
</g>
      <g
         id="g6325"
         style="fill:#decd87">
</g>
      <g
         id="g6327"
         style="fill:#decd87">
</g>
      <g
         id="g6329"
         style="fill:#decd87">
</g>
      <g
         id="g6331"
         style="fill:#decd87">
</g>
      <g
         id="g6333"
         style="fill:#decd87">
</g>
      <g
         id="g6335"
         style="fill:#decd87">
</g>
      <g
         id="g6337"
         style="fill:#decd87">
</g>
      <g
         id="g6339"
         style="fill:#decd87">
</g>
      <g
         id="g6341"
         style="fill:#decd87">
</g>
      <g
         id="g6343"
         style="fill:#decd87">
</g>
      <g
         id="g6345"
         style="fill:#decd87">
</g>
      <g
         id="g6347"
         style="fill:#decd87">
</g>
      <g
         id="g6349"
         style="fill:#decd87">
</g>
      <g
         id="g6351"
         style="fill:#decd87">
</g>
    </g>
  </g>
</svg>
