<svg xmlns="http://www.w3.org/2000/svg" viewBox="0 0 5562.76115 992.57139"><defs><style>.cls-1,.cls-10,.cls-5,.cls-6,.cls-9{fill:red;}.cls-1,.cls-10,.cls-11,.cls-5,.cls-6{stroke:#000;stroke-miterlimit:10;}.cls-1{stroke-width:5px;}.cls-2{fill:#ffb932;}.cls-3{fill:#d30114;}.cls-4{fill:#fdf5e6;}.cls-5{stroke-width:2px;}.cls-6{stroke-width:4px;}.cls-7{fill:#bab8b9;}.cls-8{fill:#9e9c9d;}.cls-10{stroke-width:3px;}.cls-11{stroke-width:6px;}</style></defs><title>logo_mise_en_lumiere</title><g id="Texte"><path class="cls-1" d="M366.61816,590.76465l86.70166-6.33692q1.24-.08935,8.07276,11.20606,29.44555,43.40772,99.22607,148.332,3.26954,4.44141,14.29492,20.91992l.24854-.01855q.99756-4.544.81787-5.34766L463.00049,590.43262c.12109-.957.3457-1.44922.68017-1.47364l.49659-.0371q.98877-.07179,26.335,38.54785,45.54345,67.85742,85.90136,128.35742l.49707-.03613.95557-6.98536L474.76221,594.4541a3.00693,3.00693,0,0,1,2.05615-.96387q98.61694,146.74952,101.57129,152.02344l.49658-.03613q30.32154-162.88036,32.18652-172.57813l93.40918-6.82617c.33008-.02441.54151.16309.63135.56348q-11.08374,13.623-11.13428,22.37207a85.734,85.734,0,0,0,1.63379,12.89648Q748.73609,802.416,752.272,812.5293q3.9624,10.89843,15.98828,20.59375,6.34131,4.62158,6.52149,5.4209l-103.34766,7.55273-.04541-.2002Q683.07886,831.62013,682.501,824.544a61.9949,61.9949,0,0,0-1.54541-12.49707L650.01563,687.80859l-.99073-2.165-.248.01856Q633.894,768.915,615.9751,863.36914a2.71865,2.71865,0,0,1-1.80811.94531l-30.8042,2.251c-.33447.02441-.543-.16211-.63281-.5625-.0459-.94434.18359-1.4375.68018-1.47363l29.811-2.17871q.74487-.05421,10.24317-54.43946.40575-.43651,24.03222-129.07129-3.917-15.167-5.93554-24.17382l-.08985-.40039-.24853.01757-34.37012,187.584q-2.8418,15.46141-3.76709,16.95312l-1.69434.32715-31.55078,2.30567c-.334.02441-.541-.16309-.63086-.56348l-.09033-.40039a1.53563,1.53563,0,0,0,.272-1.03711l31.30225-2.28711q.74487-.05419,10.81152-57.5332,11.30933-59.80225,28.23438-151.95118-4.051-15.76756-5.375-20.55468l-.248.01855L595.70166,837.19141q-2.751,13.6245-3.26758,14.67871l-30.55762,2.2334q-.54345-.16115-11.95019-17.22754L450.9917,690.96387l-.24854.01855.08985.40039q26.84106,131.86085,30.61963,148.667,3.64086,16.207,15.66992,23.667l7.80762,5.53125.40429,1.80078a2.28785,2.28785,0,0,1-2.21484,1.38183L436.04346,877.332c-.99317.07324-1.63526-.15039-1.91895-.67285l-.04492-.2002c-.02979-.13183.29248-.56054.97314-1.291l1.53516.0918,66.08252-4.82911q-15.82251-10.84423-19.28906-17.30273a61.00174,61.00174,0,0,1-5.26953-14.46094q-3.416-15.20361-31.29151-153.90625-12.28784-17.606-12.46777-18.40918l-.24854.01856.17969.80078q31.28979,153.90526,34.39307,167.71094,3.59692,16.01073,15.918,23.64843l7.80664,5.53125.40429,1.80078a2.2864,2.2864,0,0,1-2.21337,1.38282l-67.07618,4.90234q-1.7417.12744-2.16748-.65527l-.08984-.40039c-.06006-.26563.27685-.62989,1.01709-1.09082l1.78418.07226,66.08252-4.8291q-16.06715-10.82373-19.29-17.30078a61.057,61.057,0,0,1-5.26807-14.46191q-2.24706-10.00342-35.40332-173.334-8.88428-12.5669-10.124-14.7168l-.248.01856.17969.80078q35.17529,172.33595,37.69531,183.53809,3.59692,16.00928,14.83447,23.32129,2.18482,1.875,9.07081,6.6582l.04492.20019-67.07617,4.90235-.04493-.2002q14.47119-16.51172,10.74024-33.12207-34.52784-191.90333-37.98633-207.31152l-.49414-2.20117q-3.68554-16.4048-15.75732-26.30469-.09009-.39845-4.84961-4.72949Zm348.5625-19.7793.24854-.01758c.33008-.02441.52685.09766.58691.36328q.22486,1.00342-6.85547,11.07618Q703.05078,591.19629,706.60547,607q53.12183,200.51074,56.65869,210.624a42.34115,42.34115,0,0,0,9.19824,13.97168q5.09474,4.7124,13.62744,11.20606l.26954,1.20019a3.08848,3.08848,0,0,1-2.62061,1.81934L680.39111,853.374c-.333.02442-.541-.16406-.63086-.56445.45069-.97949.84229-1.48437,1.17627-1.50879l102.84961-7.5166q-18.39258-13.29932-22.26367-23.79492-1.49047.10839-38.30713-140.17383-15.5918-57.0249-18.96-72.03418l-.89892-4.00195q-3.59547-16.00488,8.84082-30.33887Q713.43726,571.11426,715.18066,570.98535Zm11.53467,5.25879q1.98486-.145,2.21143.85449L720.76123,589.085q-4.908,8.49464-1.583,23.30078,53.07715,200.313,56.61377,210.42481a40.60144,40.60144,0,0,0,9.19873,13.96972q5.09547,4.71387,13.62793,11.207l.26953,1.2002a3.09169,3.09169,0,0,1-2.62158,1.81934l-104.09277,7.60644-.22461-1c-.05957-.26562.27734-.62988,1.01807-1.09082L796.314,848.96973Q777.9214,835.67187,774.09521,825.375q-1.49048.1084-38.104-140.39258-15.835-57.00585-19.207-72.01562l-.89893-4.002Q712.10962,592.15724,726.71533,576.24414Z" transform="translate(-44.5 5.4004)"/><path class="cls-1" d="M811.09521,557.874l97.13575-7.09863q.13476.60059-4.34668,9.87695-6.36109,11.042-1.2334,33.85059l41.48828,184.68359q6.38232,28.415,11.3916,32.72559.18018.80127,12.40723,12.51562l-98.875,7.22657-.04541-.2002q11.58032-15.895,8.07373-31.5039-1.93214-10.83986-2.51465-13.44239-28.43335-127.67431-44.16211-197.709-3.7749-16.80762-20.01953-30.66992Zm105.64356-1.82226,1.9873-.14551c.33008-.02344.52686.09863.58643.36426q.13549.60059-4.98,11.5498-5.68067,9.5669-.55469,32.377l41.35352,184.084q6.42846,28.61572,10.87353,31.542,2.67921,4.07667,12.7002,12.69824l.4043,1.80079a2.61811,2.61811,0,0,1-2.21436,1.38281l-99.62012,7.28027c-.334.02442-.81982-.27734-1.46728-.91015l-.04492-.2002c-.05957-.26562.21093-.55469.81445-.87207l99.86865-7.29883q-15.99609-13.8794-17.7041-21.48437-1.2854-2.34669-3.17285-10.751L909.99023,594.57617q-4.27-19.00635,4.91456-34.32226Q916.82739,556.45117,916.73877,556.05176Zm13.34228,4.31347.99317-.07226q.79028.14649.88037.54492l.17969.80078q.09081.40284-5.27442,11.36719-5.67993,9.56837-.50927,32.57812L967.7041,789.668q6.38305,28.415,10.82861,31.3418,2.97438,4.25829,12.7002,12.69824l.40479,1.80078a2.28812,2.28812,0,0,1-2.21534,1.38184l-99.37158,7.26171c-.33349.02442-.72314-.21679-1.17285-.72656l-.08984-.40039.76855-1.07324,1.53565.0918,97.88085-7.15332q-15.75072-13.89844-17.456-21.50391-1.53443-2.32764-3.41992-10.73145L922.563,599.96289q-4.4048-19.60694,5.48047-35.17871l1.5166-3.36426c-.334.02442-.51172-.02929-.542-.16406Z" transform="translate(-44.5 5.4004)"/><path class="cls-1" d="M1109.45068,535.46094q18.13184-1.32569,58.21582,2.86328a72.16366,72.16366,0,0,0,13.52588.63867l1.49073-.10937a41.32379,41.32379,0,0,0,13.0791-3.59864l.49707-.03711,13.48486,60.02735-.74512.05468a61.88994,61.88994,0,0,0-20.55078-20.667q-10.02172-6.38379-15.168-6.82324a81.42031,81.42031,0,0,0-23.4165-1.94922l-5.46533.39942q-24.09961,1.76073-33.55518,18.1123-3.75806,8.00684-1.55469,17.80762l.31446,1.40039q3.68628,16.40918,26.6167,28.56152a330.94135,330.94135,0,0,0,36.38427,18.085q26.79054,12.48486,42.75049,19.4502,39.63282,19.06934,52.59766,39.67969a71.15634,71.15634,0,0,1,10.02392,23.26562q8.13648,36.21826-24.25586,64.00488-31.14257,23.22657-76.35791,26.52832l-2.98095.21778q-49.18946,3.59472-90.90576-11.25293-3.5647-2.38038-17.20069-6.87793a3.68262,3.68262,0,0,1-1.10449-1.5459l.65527-.45508.24805-.01855q.7456-.05421,12.84522,4.34863a218.41313,218.41313,0,0,0,80.74658,8.74316l6.95556-.50879q46.70289-3.41309,77.26416-29.23828,26.83374-25.55127,19.32715-58.96777-6.832-30.41161-39.918-49.55371l.04493.20019q25.92846,17.6294,31.95166,44.44141,8.3606,37.21728-26.15284,64.55078-29.90185,20.89893-72.38086,24l-2.98144.21777q-51.4248,3.75879-94.291-12.83593l-13.125-58.42676.49659-.03613a151.10985,151.10985,0,0,0,29.189,31.01757q9.22558,6.24171,9.72607,6.20313l-.04492-.2002a127.5954,127.5954,0,0,1-25.853-25.15918q-4.75929-6.564-6.26905-7.67773l-.13476-.59961q.10913-.61816.61035-.6543l.74512-.05468q1.49048-.1084,9.85595,11.27929a133.78188,133.78188,0,0,0,23.39453,22.085q9.63721,5.80665,9.68164,6.00391l-.04541-.20019q-11.98608-7.25685-32.34668-33.83692l.45215-.23633,1.24219-.09082q1.49048-.10839,6.76611,7.64063,14.99415,18.42773,24.97266,24.61426,14.35254,9.9331,17.582,9.69628a97.62894,97.62894,0,0,0,25.855,1.56836l.99365-.07324q32.79346-2.39648,45.88916-21.65722a36.32481,36.32481,0,0,0,4.36573-27.77442,41.78158,41.78158,0,0,0-11.42725-20.51953q-16.58643-12.00587-30.625-18.30273-30.27173-12.22559-59.70312-26.34668-23.13282-11.93262-35.29541-22.23243-24.79542-21.57275-29.7461-36.874a55.479,55.479,0,0,1-2.16015-7.36719l-.44971-2.001q-7.596-33.813,27.16064-56.69336Q1075.41578,537.94873,1109.45068,535.46094Zm-34.89355,129.04883.08984.40039,3.43067,1.7832-.04493-.2002Zm12.04687-72.26465.35938,1.60058q3.64088,16.207,25.57812,28.4336l-.04492-.2002q-14.80737-9.69434-17.95019-23.70312-5.66309-25.21143,22.41845-36.21289a68.062,68.062,0,0,1,15.69873-3.18067l2.48438-.18164a90.19747,90.19747,0,0,1,46.51025,9.21094l-.04492-.2002q-26.02515-15.79248-52.603-13.84961l-5.21728.38086q-23.354,1.70655-34.07276,16.93067A27.731,27.731,0,0,0,1086.604,592.24512Zm10.4502,4.93066.31494,1.40039q3.68628,16.40919,27.1582,28.72559l-.04492-.2002q-14.55689-9.71337-17.70166-23.72168-5.66309-25.21141,22.16992-36.19433a68.01513,68.01513,0,0,1,15.69873-3.18164l2.48389-.18164a83.4683,83.4683,0,0,1,19.624.80371l.24805-.01856-.04492-.20019a82.02241,82.02241,0,0,0-29.33106-3.55078l-5.46533.39941q-24.10034,1.76075-33.30713,18.09473A26.53,26.53,0,0,0,1097.0542,597.17578ZM1233.22656,681.794l.04541.20019q26.69238,18.79395,32.71826,45.60547,8.13574,36.21827-24.459,64.22363-31.18872,23.02441-76.15479,26.31153l-2.98095.21777a245.12225,245.12225,0,0,1-61.0376-3.06543l-.249.01855.04541.2002a225.8301,225.8301,0,0,0,70.7456,5.8125l6.707-.49023q46.70289-3.4131,77.26465-29.23829,26.833-25.55127,19.32666-58.96875Q1268.18678,701.40674,1233.22656,681.794Zm-129.9375-2.90918.04492.20019q28.68531,14.1753,53.35987,23.96192l-.04492-.2002a498.88518,498.88518,0,0,0-46.58838-20.79688A66.91472,66.91472,0,0,0,1103.28906,678.88477Zm101.70557-139.62793.49707-.03614c.3291-.02441.71973.21973,1.17285.72754l13.48438,60.02735a2.31231,2.31231,0,0,1-1.1543,2.72851q-.50025.03663-1.30811-1.32812c-.06006-.26563-.0083-.40625.15869-.41895q-2.00389-7.78418-2.81054-11.38672l-10.96778-48.82226c-.02978-.13086.03663-.20606.20362-.21875l-.33838-.38086-.08984-.40039A2.427,2.427,0,0,0,1204.99463,539.25684Zm12.48291,4.98535.248-.01758c.32959-.02441.63867.22656.9248.74609l13.52979,60.22657c.17968.80078.03662,1.28808-.43067,1.45605a10.11722,10.11722,0,0,1-2.32617-.2373l-.13135-2.83789-12.81054-57.0254C1216.21143,545.35156,1216.544,544.584,1217.47754,544.24219Z" transform="translate(-44.5 5.4004)"/><path class="cls-1" d="M1310.03711,521.81836l214.8916-15.70508c.32959-.02441.5415.16406.63135.56445l10.833,48.22168q.04467.20215,8.12451,4.69336L1533.73,511.57129q-.405-1.8003.54395-2.07324a3.19912,3.19912,0,0,1,2.36865,2.6748l11.2373,50.02246L1558.124,569.582l-11.77685-52.42383a1.4623,1.4623,0,0,1,.83838-1.8916l.248-.01855q1.28541.10986,1.73633,2.10937l11.59717,51.624q.62988,2.80371-1.85547,2.98242l-1.24121.09082a62.73387,62.73387,0,0,1-9.11621-6.8584,3.06971,3.06971,0,0,1-2.21484,1.38281l-1.24219.09082q-.25049.01758-15.90821-11.24414a46.6873,46.6873,0,0,0-20.06835-7.27832q-12.6438-2.32764-45.68506.084l-38.50684,2.81445,17.89014,79.63672.248-.01856q45.4629-3.32226,54.728-9.28711,6.50318-2.50635,15.09766-11.47558l4.749-5.83789.33789.38183,14.51856,64.62989q8.05664,5.51073,8.14648,5.9121l.248-.01757-14.65381-65.2295c-.0459-.94433.18311-1.4375.67969-1.47363l.99316-.07226q.79174.14648,1.19531,1.94629l14.1587,63.02832q.67455,3.00146-.92969,3.72851l-1.98731.14551q-17.53784-11.73194-20.01855-11.55274-10.56738-2.07275-29.19873-.71386l-40.74219,2.97754,21.84522,97.24511,28.81787-2.10644q45.95727-3.35889,77.66406-22.96289a73.60272,73.60272,0,0,0,16.09912-18.25977l.6333-1.67383.74512-.05468q-.64893,55.56883-.96582,58.64355l-226.81641,16.57617q-.74561.05421-.88037-.5459,16.54688-16.25829,12.18848-35.66894.1809-1.43409-1.75049-10.04L1337.69482,569.624q-6.65185-29.61035-12.272-33.2705-.17944-.79687-9.18213-8.27735-.405-1.80176-6.06884-5.65722ZM1605.92334,723.9082q.7456-.05419,1.01514,1.14551-.39918,55.55127-.69678,59.84375a3.69381,3.69381,0,0,1-2.05664.96484l-227.3125,16.61231q-2.23681.1626-2.5957-1.43848a4.829,4.829,0,0,1,1.89746-.54492l227.56152-16.62988q.46948-58.6084.94531-59.86231Zm11.82715,5.44043.7456-.05468c.32959-.02344.72022.2207,1.17334.72753q-.55882,55.97315-.90039,60.0625a3.01239,3.01239,0,0,1-2.05615.9629l-227.81006,16.64843c-.33349.02442-.72314-.21679-1.17285-.72656l-.08984-.40039c-.05957-.26563.21-.55566.81347-.87305l227.81006-16.64843q.34791-53.51221,1.03516-59.46192Zm-217.04-190.56543,20.99121,93.44239,6.95605-.50782-19.64257-87.43945q-.13477-.60059.61084-.65527l31.05371-2.26953q47.94286-3.50391,59.12109.15429,8.0581,1.04,22.936,7.67871l-.04493-.20019q-17.46825-10.31543-31.39941-12.75488-14.06837-3.0381-49.34228-.46192Zm11.44238,7.09571,19.23828,85.63867,8.44629-.61719-18.29394-81.4375q.10839-.6167.61035-.6543l31.30176-2.28711q43.72264-3.19628,54.92187-.55664l.249-.01855-.04541-.2002q-17.67993-5.61914-50.71728-3.208Zm14.2666,109.59375,24.94678,111.05078,6.95606-.50781-23.59815-105.04786c-.08984-.40039.02832-.6123.36133-.63672l39.25293-2.86914q31.30079-2.28661,43.21875,3.55274l5.10107,2.47461-.04492-.2002q-18.687-13.478-47.75-11.35644Zm11.4419,7.0957,23.19385,103.24707,8.44628-.61719-22.25-99.0459c-.05957-.26562.07325-.41113.40723-.43554l39.5-2.88672q17.88721-1.30665,27.43848-.37793l.24853-.01856-.04492-.20019q-11.35767-4.45752-36.4458-2.624Zm99.25049-104.46777q7.69042,6.14941,8.48437,6.29492l-.26953-1.20117a68.27392,68.27392,0,0,0-7.71777-5.12989Zm2.40234,54.5332q1.82666.27539,2.4585,3.07422l14.06933,62.6289q.67457,3.00147-1.17822,3.74707l-.49707.03614-.78955-.14551c-.28711-2.01367-.53076-3.48633-.74072-4.4209l-13.21534-58.82617Q1538.27271,612.72462,1539.51416,612.63379Z" transform="translate(-44.5 5.4004)"/><path class="cls-1" d="M1817.833,484.708l214.8916-15.70508c.33008-.02393.542.16406.63184.56445l10.83251,48.22168q.04542.20216,8.125,4.69336l-10.78808-48.021q-.40429-1.8003.54394-2.07373a3.19973,3.19973,0,0,1,2.36866,2.6748l11.2373,50.02246,10.24463,7.38672-11.77686-52.42383a1.46169,1.46169,0,0,1,.8379-1.8916l.248-.01807q1.28541.10988,1.73682,2.10938l11.59717,51.62353q.62988,2.80371-1.856,2.98243l-1.24121.09082a62.73462,62.73462,0,0,1-9.11621-6.8584,3.06971,3.06971,0,0,1-2.21485,1.38281l-1.24218.09082q-.2505.01758-15.90821-11.24414a46.67466,46.67466,0,0,0-20.06836-7.27832q-12.64307-2.32764-45.68505.084l-38.50684,2.81446,17.89014,79.63672.248-.01856q45.4629-3.32226,54.728-9.28711,6.50318-2.50635,15.09766-11.47558l4.749-5.83789.33789.38183,14.51856,64.62988q8.05664,5.51075,8.14648,5.91211l.248-.01855-14.65381-65.22949c-.04541-.94336.1831-1.43653.67969-1.47266l.99365-.07227q.791.14649,1.19482,1.94629l14.15918,63.02832q.67456,3.00147-.93017,3.72852l-1.98731.14551q-17.53784-11.73194-20.01807-11.55274-10.56812-2.07421-29.19873-.71386l-40.74267,2.97753,21.84521,97.24512,28.81787-2.10644q45.95728-3.35889,77.66407-22.96289a73.59306,73.59306,0,0,0,16.09912-18.25977l.63379-1.6748.74511-.05372q-.64818,55.56885-.9663,58.64356l-226.81641,16.57617q-.7456.05419-.87988-.54687,16.54614-16.25684,12.188-35.668.1809-1.43409-1.75049-10.04l-40.27442-179.28223q-6.65186-29.61034-12.272-33.27-.17944-.79687-9.18213-8.27734-.405-1.80176-6.06885-5.65772Zm295.88623,202.08984q.7456-.0542,1.01514,1.14551-.39918,55.55127-.69678,59.84375a3.699,3.699,0,0,1-2.05664.96484l-227.3125,16.61231q-2.23682.1626-2.59571-1.43848a4.829,4.829,0,0,1,1.89746-.54492L2111.53174,746.751q.46949-58.6084.94531-59.86231Zm11.82715,5.44043.7456-.05469c.32959-.02343.72022.22071,1.17334.72754q-.55811,55.97314-.90039,60.0625a3.01042,3.01042,0,0,1-2.05615.96289L1896.69922,770.585c-.334.02442-.72363-.2168-1.17334-.72656l-.08984-.40039c-.05958-.26563.21-.55567.814-.873l227.80957-16.64844q.34789-53.5122,1.03516-59.46191Zm-217.04-190.56543,20.99121,93.44238,6.95605-.50781L1916.811,507.168q-.13477-.60059.61084-.65527l31.05371-2.26954q47.94286-3.50389,59.12109.15332,8.0581,1.04,22.936,7.67969l-.04492-.20019q-17.46825-10.3169-31.39892-12.75489-14.0691-3.03808-49.34278-.46191Zm11.44238,7.0957,19.23828,85.63868,8.44629-.61719-18.29394-81.4375q.10839-.61669.61035-.6543l31.30175-2.28711q43.72266-3.19629,54.92188-.55664l.249-.01855-.04541-.2002q-17.67993-5.61913-50.71728-3.208Zm14.2666,109.59375,24.94678,111.05079,6.95605-.50782L1942.52,623.85742c-.08984-.40039.02832-.6123.36133-.63672l39.25293-2.86914q31.30077-2.28808,43.21875,3.55274l5.10156,2.47461-.04492-.2002q-18.687-13.478-47.75-11.35644Zm11.4419,7.09571,23.19384,103.24707,8.44629-.61719-22.25-99.0459c-.05957-.26562.07325-.41113.40723-.43554l39.50049-2.88672q17.88647-1.30665,27.43847-.37891l.248-.01758-.04492-.20019q-11.35767-4.45752-36.4458-2.624Zm99.251-104.46778q7.68971,6.14941,8.48438,6.29493l-.26953-1.20118a68.287,68.287,0,0,0-7.71826-5.12988Zm2.40284,54.53321q1.82519.27539,2.45751,3.07422l14.06934,62.6289q.67457,3.00147-1.17822,3.7461l-.49658.03711-.79-.14649c-.28711-2.01269-.53076-3.48535-.74073-4.41992L2047.417,581.61719Q2046.06861,575.61425,2047.311,575.52344Z" transform="translate(-44.5 5.4004)"/><path class="cls-1" d="M2151.10449,460.35156l78.00684-5.70068q1.42017.71192,41.28515,37.6582,175.04517,159.87378,178.16065,162.49365l-.44971-2.001q-.22485-.999-31.60693-29.417l-177.957-162.71143-.5625-1.3833,1.35547-.7085q3.991,3.1692,181.07031,165.33057,24.18164,22.2334,26.62207,24.08789l-.85449-3.80176q-189.42042-173.26172-196.02784-179.085a2.27119,2.27119,0,0,1,1.17627-1.50928l.24854-.01855q4.58057,3.531,186.4624,170.22412,4.71534,4.13086,6.99317,6.4043l.24853-.01758-35.24023-156.87207q-5.25879-23.40968-12.27637-28.79541-5.68579-5.07569-5.91016-6.07666-.501.03661-5.68506-5.0752l.45166-.23681,58.87793-4.30274c.33008-.02392.54151.16406.63135.56446q-9.25341,16.13378-8.7168,20.7705-1.34179,6.405,1.31348,18.2085l52.59033,234.10644c.08985.4004-.03173.61231-.36181.63672l-61.85938,4.52051q-1.66919-.68847-23.03467-20.48437-20.60229-18.6299-30.86377-27.2334-1.05908-1.34326-64.11669-58.36133-67.23561-60.98-73.79639-66.60156l36.499,162.47363q4.13526,18.41161,18.42041,26.92285,5.46168,4.07667,5.64112,4.876.36035,1.60254-2.53223,2.21777l-64.5918,4.7207c-.99365.07227-1.63525-.15039-1.91894-.67285-.0293-.13183.27685-.63086.92822-1.49121l1.53564.0918,63.59766-4.64844q-19.18214-13.44141-21.78809-25.05078-.501.03661-2.47412-8.76758l-36.8584-164.07519q-10.44506-9.40284-10.73925-9.58692L2261.25,702.251q4.136,18.41161,18.37549,26.72363,5.25659,4.29639,5.437,5.09375.36035,1.60254-2.28271,2.20117l-65.33692,4.77442c-.334.02441-.542-.16309-.63183-.56348-.02979-.13184.44335-.64356,1.42382-1.52832l64.09522-4.6836q-19.18214-13.44286-21.7876-25.0498-.501.03661-2.72363-8.751l-38.7461-172.47851q-7.66992-7.166-8.34668-7.93067l-.249.01758,39.78027,177.08008q4.0459,18.00879,17.38282,26.79688l6.13672,4.83886.04492.2002-64.5918,4.7207-.04492-.20019q13.36085-15.82179,10.17187-30.03028.24537-.01758-2.60351-13.84179-28.34474-127.27589-44.02735-197.10889-3.41528-15.20361-16.34375-26.66748Q2151.28321,461.15478,2151.10449,460.35156Zm304.252-16.94726.49658-.03662c.33056-.02393.7207.22168,1.17383.72851q.13476.60059-4.59473,9.894-6.8562,11.07863-2.71924,29.48536l52.5459,233.90625q.62988,2.80371-2.104,3.001l-62.85254,4.59375c-.334.02442-.541-.16406-.63086-.56445l-.09034-.40039c-.05957-.26563.27686-.63086,1.01709-1.09082l62.10743-4.53906-52.186-232.30616q-4.89917-21.80712,2.72412-33.959Q2453.88745,444.73316,2455.35645,443.4043Zm12.687,4.76709c.916.34033,1.42138.71,1.51123,1.11035s-1.44141,3.69971-4.59473,9.89453q-6.8562,11.07861-2.71924,29.48437l52.5459,233.90674q.62988,2.80371-2.10351,3.001l-63.34961,4.62988-.04493-.19922.09229-1.83789,62.853-4.59277-52.18653-232.30664q-5.03321-22.40772,3.17578-34.1958Q2466.93286,448.86353,2468.04346,448.17139Z" transform="translate(-44.5 5.4004)"/><path class="cls-1" d="M2719.26807,418.82959l99.12353-7.24414.13477.60059q-12.10035,16.95263-7.87549,35.75927.29,2.42065,1.5498,8.022,31.03638,139.28247,46.27491,207.11279l.0205,1.21777,7.20508-.52637q-17.17089-76.43115-47.41894-213.333-3.37207-15.00734,9.43164-34.44922l.49609-.03613c.33008-.02442.7207.22021,1.17383.72705l.08984.40039q.13477.60058-5.25,10.34912-6.33545,10.02465-1.34472,32.23193l.44922,2.001q30.3164,136.08326,45.10546,201.90967l2.23633-.16407q-17.97949-80.0332-46.07129-207.32959-3.3706-15.00732,9.43164-34.45068l.99414-.07227a.80817.80817,0,0,1,.63184.564l.17969.80078q.13476.59911-4.57129,8.87549-7.10742,11.09619-2.47266,31.70459l.89844,4.001q15.41895,68.63307,43.71191,195.70752l40.99121-2.99609q38.5049-2.814,69.93653-19.14355,10.37109-6.6548,20.77832-23.2793c-.11914-.53125-.0166-.81348.31738-.83789l.13477.60058q-4.55567,57.28125-4.82813,58.31543l-224.58056,16.41309-.04493-.2002q13.4751-16.43847,11.67871-24.44531,1.24073-.09081-4.083-24.9209l-39.10645-174.07861q-7.28027-32.41406-11.77148-35.54443-.31349-1.39746-13.42188-13.66162Zm295.45849,201.30713a2.87332,2.87332,0,0,1,1.93946,1.89258l-5.168,60.16992a2.72218,2.72218,0,0,1-1.80762.94629L2784.36377,699.6123q-.25048.019-.92481-.74609l-.08984-.40039c-.05957-.26562.12891-.54883.56543-.85449l225.32666-16.4668,5.0332-60.77148Zm6.31641,5.63965q1.916.67675,2.18848,1.874l-5.416,60.18945a2.72554,2.72554,0,0,1-1.80859.94434L2790.93018,705.2334c-.334.02441-.72364-.2168-1.17383-.72754l-.18067-.80078c-.05957-.26563.07325-.41113.40723-.43555l225.57471-16.48535,5.0332-60.77051Z" transform="translate(-44.5 5.4004)"/><path class="cls-1" d="M3044.83789,395.03662l97.63281-7.13525.08985.40039q-7.76221,13.79-7.56446,20.28076-1.67724,3.78222,3.8086,28.19385L3162.80762,543.625q10.69774,47.62353,15.91015,51.71484,3.98877,7.63917,19.01758,18.33789l3.76953,2.165-.0459-.20019q-17.98681-11.499-24.59277-40.91211l-32.63379-145.26611q-4.49413-20.00538,6.42969-35.44971-.22411-.999,1.37891-1.72754a1.62671,1.62671,0,0,1,1.1289.52685l.13477.60059q.09081.40284-5.16016,10.74854-5.06982,8.91283-.21387,30.52246l25.57618,113.85254q10.38281,46.2202,15.57226,51.332a55.49925,55.49925,0,0,0,10.39746,11.44336,78.3542,78.3542,0,0,0,13.96875,9.35156q-11.981-9.498-16.53222-18.51953-4.89552-9.40576-8.93653-27.41309L3156.4668,434.46826q-4.22314-18.80566,4.8916-33.30469,1.7168-3.5808,3.708-3.728l.38281.58252.08984.40039q.09083.40283-5.11621,10.94873-5.11377,8.71655-.25781,30.32177L3185.74121,553.541q10.20411,45.42333,15.14356,50.55175,3.69433,7.46046,19.64941,18.90137,2.81982,2.439,16.11914,4.3125a124.81991,124.81991,0,0,0,22.85254.56738l4.47266-.32714a106.1323,106.1323,0,0,0,51.30468-17.78223q14.0332-10.5835,17.03516-28.7002,3.85107-12.0747-5.67773-54.49707l-22.33985-99.4458q-7.23633-32.21191-12.33691-34.689-.69873-1.97974-7.89551-8.16748-.26954-1.20117-6.11328-5.8584l-.08985-.40039,57.38672-4.19385c.33008-.02393.52735.09863.58692.36426a44.20725,44.20725,0,0,0-6.42969,35.45068l27.64453,123.05518q9.16846,40.81933,3.82227,57.48047-10.22608,36.54492-48.43067,54.17968a175.256,175.256,0,0,1-55.61328,13.2168l-4.96875.36328q-47.45361,3.46729-87.76562-11.89062l-.249.01757.04492.2002q12.63722,6.80859,19.09571,8.57031a206.69325,206.69325,0,0,0,74.55957,8.17774l2.23535-.16309a16.228,16.228,0,0,1,2.5293.01856,15.05229,15.05229,0,0,1,2.43945-.38184l2.23633-.16406q49.43262-3.61232,79.90722-29.83789,12.25343-12.89357,15.55957-20.66211a62.44071,62.44071,0,0,0,7.70118-21.916q2.77148-16.87646-3.834-46.29394L3337.96,417.34033q-4.62891-20.606,3.64942-33.21289,1.74315-4.5996,3.05468-5.51172,1.58057.2937,1.76074,1.09229-10.23046,17.42432-6.85546,32.43066l28.18359,125.457q10.11328,45.02052,2.416,62.46289-10.89991,33.54346-46.30372,50.16114a173.34972,173.34972,0,0,1-58.36914,14.43457l-4.7207.34472a222.2369,222.2369,0,0,1-59.09473-3.40918l-.248.01856.04492.19922a214.72245,214.72245,0,0,0,68.30566,6.19433l2.48438-.18164a11.83693,11.83693,0,0,1,2.28125.03711,15.02377,15.02377,0,0,1,2.43847-.38183l2.23633-.16407q49.43409-3.6123,79.90625-29.83789,12.25488-12.89355,15.60547-20.46191a65.14746,65.14746,0,0,0,7.65625-22.11621q2.81689-16.68018-3.78906-46.09375l-28.4082-126.45752q-4.71974-21.00879,4.25976-33.86768-.13476-.60059,1.87891-4.002l-.58692-.36377-.08984-.40039a2.41025,2.41025,0,0,0,1.15234-.49121l.99414-.07276c.32911-.02392.73438.28711,1.21778.92872q-.79542,2.09325-5.59082,12.20459-4.1455,9.65844-1.042,23.46337l27.5996,122.85645q10.11329,45.02051,2.665,62.44434-11.10644,33.76025-46.50781,50.37988a175.44262,175.44262,0,0,1-58.41406,14.2334l-4.71973.34472q-54.65625,3.99464-99.91113-16.49218-11.42139-3.63721-31.37207-16.01172-8.10058-5.71-20.50879-18.22852-13.48974-15.07764-21.26465-49.69629L3071.72656,443.916q-6.9668-31.01369-11.32226-33.543-.40577-1.80176-9.61133-9.06006-.40429-1.80175-5.86524-5.876Zm102.083,243.09912.04492.2002,4.94238,2.89258.24805-.01856A25.95418,25.95418,0,0,0,3146.9209,638.13574Z" transform="translate(-44.5 5.4004)"/><path class="cls-1" d="M3437.98047,366.30518l86.70215-6.33643q1.23925-.09082,8.07226,11.20605,29.44629,43.40625,99.22657,148.33106,3.271,4.44141,14.29492,20.91992l.248-.01855q.99756-4.54395.81934-5.34668L3534.36426,365.97314c.12012-.957.34472-1.4497.67969-1.47412l.49609-.03613q.99024-.07251,26.335,38.54736,45.54345,67.8567,85.90137,128.35791l.49707-.03711.95605-6.98437L3546.126,369.99414a3.00751,3.00751,0,0,1,2.05566-.96338q98.61621,146.74878,101.57031,152.02393l.49707-.03711q30.3208-162.87964,32.18653-172.57764l93.40918-6.82666c.33007-.02392.542.16406.63183.56445q-11.08448,13.62159-11.13476,22.37207a85.71644,85.71644,0,0,0,1.63476,12.89649q53.12256,200.50928,56.65723,210.624,3.96387,10.897,15.98926,20.59278,6.34131,4.623,6.52148,5.42187l-103.34765,7.55274-.04493-.2002q11.68945-14.27783,11.11133-21.35352a61.98987,61.98987,0,0,0-1.54394-12.49707l-30.94043-124.23779-.99121-2.16455-.24805.01807q-14.88282,83.25366-32.80176,177.70752a2.72138,2.72138,0,0,1-1.80762.94433l-30.80468,2.252c-.334.02441-.542-.16309-.63184-.56348-.04687-.94336.18164-1.43652.67871-1.47363l29.81152-2.17871q.7456-.05421,10.24317-54.43946.40576-.43652,24.03223-129.07031-3.91554-15.167-5.93555-24.17481l-.08985-.40039-.249.01807L3678.21582,617.4082q-2.84179,15.46143-3.76758,16.95215l-1.69336.32715-31.55078,2.30664c-.334.02441-.542-.16406-.63183-.56445l-.08985-.40039a1.53964,1.53964,0,0,0,.27246-1.03614l31.30078-2.28808q.74708-.05419,10.8125-57.5332,11.3086-59.80225,28.23438-151.95069-4.05175-15.76758-5.375-20.55469l-.248.01807-38.415,210.04688q-2.7495,13.626-3.26757,14.67968l-30.55665,2.23242q-.54492-.16113-11.95019-17.22753l-98.93555-145.91163-.248.01807.08984.40039q26.84033,131.86084,30.61914,148.667,3.64159,16.207,15.66992,23.667l7.80762,5.53125.4043,1.80078a2.28739,2.28739,0,0,1-2.21485,1.38183l-67.07617,4.90137c-.99316.07324-1.63574-.15039-1.919-.67285l-.04492-.2002c-.02929-.13183.292-.56054.97266-1.291l1.53613.09179,66.082-4.8291q-15.82177-10.84276-19.28906-17.30175a61.089,61.089,0,0,1-5.26953-14.46192q-3.41456-15.20361-31.291-153.90527-12.28857-17.606-12.46777-18.40967l-.249.01807.17968.80078Q3536.937,596.6162,3540.04,610.42285q3.59619,16.01074,15.918,23.64844l7.80664,5.53027.4043,1.80078a2.28527,2.28527,0,0,1-2.21387,1.38282l-67.07617,4.90234q-1.74024.12744-2.167-.65527l-.08984-.40039c-.06055-.26563.27637-.62989,1.01758-1.09082l1.7832.07226,66.082-4.8291q-16.06639-10.82373-19.28906-17.30078a61.08881,61.08881,0,0,1-5.26953-14.46192q-2.24707-10.00341-35.40234-173.333-8.88429-12.56763-10.124-14.7168l-.249.01807.18066.80078q35.1753,172.3352,37.69532,183.53857,3.59619,16.00927,14.835,23.32031,2.18407,1.87647,9.07031,6.65821l.04492.20019-67.07519,4.90235-.04493-.2002q14.47119-16.51025,10.73926-33.12207-34.52783-191.90259-37.98535-207.311l-.49512-2.20118q-3.68408-16.40478-15.75683-26.30468-.08935-.39844-4.85059-4.7295Zm348.56348-19.7793.248-.01807c.33008-.02392.52735.09864.58692.36426q.22559,1.00342-6.8545,11.07617-6.10986,8.78833-2.55566,24.59229,53.12109,200.51,56.6582,210.62451a42.347,42.347,0,0,0,9.19825,13.9707q5.09619,4.7124,13.62793,11.20606l.26953,1.20019a3.088,3.088,0,0,1-2.6211,1.81934l-103.34668,7.55273c-.334.02442-.542-.16308-.63183-.56347.45019-.98047.84179-1.48536,1.17675-1.50977l102.84961-7.5166q-18.39256-13.29931-22.26367-23.79492-1.49121.10839-38.30761-140.17383-15.59181-57.02417-18.959-72.03369l-.89941-4.002q-3.59473-16.00488,8.83984-30.33837Q3784.80177,346.65455,3786.544,346.52588Zm11.53418,5.25879c1.32324-.09668,2.0625.18847,2.21191.85449l-8.165,11.98584q-4.91016,8.49609-1.584,23.30078,53.07861,200.313,56.61425,210.42481a40.61148,40.61148,0,0,0,9.19825,13.9707q5.09472,4.71387,13.62793,11.207l.26953,1.2002a3.09177,3.09177,0,0,1-2.6211,1.81836l-104.09277,7.60742-.22461-1c-.05957-.26563.27637-.63086,1.01758-1.09082l103.34668-7.55274q-18.39258-13.29932-22.21875-23.5957-1.49121.10986-38.10352-140.3916-15.835-57.0066-19.207-72.01563l-.89941-4.002Q3783.47168,367.69824,3798.07813,351.78467Z" transform="translate(-44.5 5.4004)"/><path class="cls-1" d="M3882.459,333.415l97.13575-7.09912q.13476.60059-4.34668,9.87646-6.36182,11.042-1.2334,33.85157l41.48828,184.68359q6.38232,28.415,11.3916,32.72461.18018.80127,12.40723,12.5166l-98.875,7.22559-.04492-.2002q11.57958-15.895,8.07324-31.50391-1.93214-10.83984-2.51465-13.44238-28.43262-127.67358-44.16211-197.708-3.7749-16.8076-20.01953-30.67041Zm105.64356-1.82275,1.9873-.145c.33008-.02442.52637.09814.58692.36377q.13476.60059-4.98047,11.5498-5.68066,9.56689-.55469,32.377l41.35352,184.0835q6.42773,28.61573,10.873,31.543,2.67921,4.07519,12.7002,12.69824l.40527,1.80078a2.62058,2.62058,0,0,1-2.21484,1.38184l-99.62012,7.28125c-.334.02441-.81933-.27832-1.46679-.91016l-.04493-.20019c-.05957-.26563.21-.55567.81348-.87305l99.86914-7.29883q-15.99609-13.87793-17.7041-21.4834-1.28467-2.34815-3.17285-10.752l-45.5791-202.89209q-4.27-19.00635,4.915-34.32275Q3988.19043,331.99268,3988.10254,331.59229Zm13.3418,4.31347.99316-.07275q.791.14647.88086.54541l.17969.80078q.09081.40283-5.27442,11.36768-5.68066,9.56688-.50976,32.57714l41.35351,184.084q6.38379,28.415,10.8291,31.34179,2.9751,4.25831,12.7002,12.69825l.4043,1.80078a2.28642,2.28642,0,0,1-2.21485,1.38183l-99.37109,7.26172c-.334.02442-.72363-.21679-1.17383-.72656l-.08984-.40039.76855-1.07324,1.53613.09179,97.88086-7.15332q-15.75146-13.89843-17.456-21.5039-1.53369-2.32764-3.41992-10.73145l-45.53418-202.69238q-4.40479-19.60693,5.48047-35.17822l1.5166-3.36426c-.334.02441-.51172-.0293-.542-.16406Z" transform="translate(-44.5 5.4004)"/><path class="cls-1" d="M4077.44434,319.57227l214.8916-15.70508c.33008-.02393.542.16406.63183.56445l10.833,48.22168q.04541.20216,8.124,4.69385l-10.7871-48.02149q-.40431-1.80028.543-2.07373a3.19957,3.19957,0,0,1,2.36914,2.67481l11.23731,50.02246,10.24512,7.38672-11.77735-52.42383a1.46249,1.46249,0,0,1,.83789-1.8916l.24805-.01807q1.28613.10986,1.73731,2.10938l11.59667,51.624c.41993,1.86914-.20214,2.86133-1.85546,2.98242l-1.24219.09033a62.81327,62.81327,0,0,1-9.11621-6.85839,3.06886,3.06886,0,0,1-2.21485,1.38281l-1.24218.09082q-.2505.01831-15.90821-11.24414a46.66767,46.66767,0,0,0-20.06738-7.27783q-12.64454-2.32764-45.68555.084l-38.50683,2.814,17.88965,79.63672.249-.01806q45.46288-3.32227,54.72754-9.28711,6.50391-2.50635,15.09765-11.47608l4.749-5.83789.33789.38233,14.51855,64.62988q8.05665,5.51074,8.14649,5.91211l.248-.01807-14.65332-65.22949c-.04589-.94385.18262-1.437.67872-1.47314l.99414-.07276q.791.14649,1.19531,1.94629l14.15918,63.02832q.67383,3.00147-.93067,3.729l-1.9873.145q-17.53712-11.73122-20.01856-11.55274-10.56738-2.07276-29.19824-.71387l-40.74316,2.97754,21.8457,97.24512,28.81836-2.10645q45.95655-3.35888,77.66406-22.96289a73.60089,73.60089,0,0,0,16.09864-18.25976l.63379-1.67481.74511-.05371q-.64891,55.56885-.96582,58.64356L4135.81934,592.915q-.74561.0542-.87989-.54688,16.54542-16.25684,12.1875-35.668.18018-1.43409-1.751-10.04l-40.27442-179.28223q-6.65186-29.61034-12.27148-33.27-.17871-.79687-9.18164-8.27734-.4043-1.80177-6.06934-5.65772Zm295.88574,202.08984q.74561-.05419,1.01562,1.14551-.3999,55.55127-.69726,59.84375a3.69371,3.69371,0,0,1-2.05567.96484L4144.2793,600.22852q-2.23536.16258-2.59473-1.43848a4.82442,4.82442,0,0,1,1.89648-.54492l227.5625-16.62989q.46875-58.60839.94532-59.8623Zm11.82812,5.44043.74512-.05469c.33008-.02344.7207.2207,1.17383.72754q-.55811,55.97314-.90039,60.0625a3.0126,3.0126,0,0,1-2.05664.96289l-227.80957,16.64844c-.334.02441-.72364-.2168-1.17285-.72656l-.08985-.40039q-.09083-.39844.81348-.87305l227.80957-16.64844q.34716-53.5122,1.03515-59.46191Zm-217.04-190.56494L4189.10938,429.98l6.956-.5083-19.64258-87.43945q-.13476-.60059.61035-.65528l31.05371-2.26953q47.94288-3.50391,59.1211.1543,8.0581,1.0393,22.93554,7.67871l-.04492-.2002q-17.4668-10.31543-31.39843-12.75488-14.06837-3.03808-49.34278-.46191Zm11.44239,7.0957,19.23828,85.63867,8.44629-.61767-18.29492-81.4375q.10986-.61671.61035-.65381l31.30273-2.2876q43.72119-3.19556,54.92188-.55664l.248-.01807-.04492-.20019q-17.67919-5.61987-50.7168-3.208Zm14.2666,109.59375,24.94629,111.05029,6.956-.50781-23.59863-105.04785c-.08984-.40039.02832-.6123.3623-.63672l39.252-2.86865q31.30224-2.28809,43.21972,3.55224l5.10157,2.4751-.0459-.20019q-18.68555-13.47876-47.75-11.35694Zm11.4414,7.0957,23.19434,103.24659,8.44629-.61719-22.25-99.04541c-.06055-.26563.07324-.41162.40723-.436l39.5-2.88672q17.8872-1.30663,27.43847-.37841l.248-.01807-.04492-.2002q-11.35693-4.45678-36.44531-2.624Zm99.251-104.46826q7.69043,6.15015,8.48438,6.29541l-.26953-1.20117a68.3172,68.3172,0,0,0-7.71778-5.13037Zm2.40235,54.53321q1.82666.27612,2.458,3.07421l14.06934,62.62891q.67383,3.00147-1.17871,3.74707l-.4961.03613-.79-.146c-.28711-2.0127-.53125-3.48584-.74122-4.42041l-13.21484-58.82617Q4305.68066,410.47851,4306.92188,410.3877Z" transform="translate(-44.5 5.4004)"/><path class="cls-1" d="M4552.208,285.48633q39.498-2.88722,69.02344,9.39453.74706-.05419,21.625,8.58887,33.72363,15.22924,40.959,47.44433,6.42774,28.61573-16.38281,51.8374-14.76562,14.09692-49.73047,24.78565l.04492.20019q35.00976,34.45826,87.043,74.98926,24.68262,19.96,50.65723,37.78711l1.78418.07227.04492.20019-.31739.83692q.26954,1.1997,9.90918,2.52929a4.04238,4.04238,0,0,1,1.69336,1.91016l-.47461,1.25488,11.31153,2.02051a4.36172,4.36172,0,0,1,1.39746,1.72852q.62988,2.80371-16.01953,8.49218a63.87791,63.87791,0,0,1-14.34375,2.47168l-9.43946.68946q-34.53369,2.52391-61.30078-10.97559-9.123-2.38331-29.70312-15.31934a627.98608,627.98608,0,0,1-59.1836-46.51953q-7.06639-5.58544-40.36328-34.6748l15.55274,69.23144q6.06738,27.01319,10.89746,30.52442,3.4248,4.01954,16.24512,13.8623l.31445,1.40039q-.43359,1.45607-3.91113,1.709l-98.12793,7.1709q-3.72657.27246-3.90625-.52735l-.08985-.40039c-.05957-.26562.27637-.62988,1.01758-1.09082l102.35254-7.47949q-18.97558-13.6626-20.68652-21.2666-.8335-.3457-3.80274-11.31446l-19.05859-84.83886q-10.20117-9.42187-10.69336-9.3877l17.1709,76.43457q6.06738,27.01319,10.94043,30.72461,3.17871,4.03711,16.20019,13.66211l.35938,1.60059q-.43066,1.45605-4.15723,1.72754l-97.88086,7.15234q-3.72656.27246-4.24512-.90918c-.05957-.26562.27735-.63086,1.01856-1.09082l102.60156-7.49805q-18.97851-13.66113-20.73144-21.46679-.8335-.3457-3.75879-11.11426l-20.72168-92.24219q-.271-1.20117-8.93457-8.2959l18.60937,82.83789q6.293,28.01661,11.2793,31.10645,3.06738,4.65526,15.99805,13.87988l.08984.40039-101.85645,7.44434-.08984-.40039q14.04053-17.29542,10.49121-33.10352-1.05907-5.81982-2.80762-13.625l-38.43261-171.07764q-7.10157-31.61279-11.70508-34.12548-.86133-1.56153-8.88867-8.09522-.36036-1.5996-5.77637-5.47607l-.08984-.40039q22.53954-.8313,36.20214-1.83155,24.34571-1.779,84.584-11.26709Q4541.81153,286.4502,4552.208,285.48633Zm-54.09571,28.96875,22.96875,102.24609,6.95606-.50879-21.665-96.44336q-.18018-.79833,21.61523-3.81689l7.45313-.54443q21.85841-1.59814,39.44727,5.86181l-.04493-.20019q-18.7998-12.85841-49.85254-10.59278Q4511.66456,311.8401,4498.1123,314.45508Zm11.05958,6.51269,21.35058,95.043,8.35645-1.0166-20.27246-90.24121q-.13478-.60059,21.61425-3.81689l7.45313-.54444a87.93979,87.93979,0,0,1,20.61816.73047l.49805-.03662-.04492-.2002q-15.71486-4.749-34.8418-3.35156Q4527.44043,318.0061,4509.17188,320.96777Zm12.27832,5.20411,19.82226,88.24023q11.42432-.83423,30.45117-8.32666,31.19971-15.09375,22.61719-53.31055-3.64014-16.207-12.416-24.9209-3.54492-3.40209-13.97363-4.87695a142.09719,142.09719,0,0,0-21.81347-.43945Q4539.67188,323.01,4521.4502,326.17188Zm115.82812-21.68409a61.24959,61.24959,0,0,1,23.55957,36.30957q6.87744,30.61377-19.95312,53.92871-13.67433,9.95069-26.3252,14.33057l-21.25879,7.65479q37.2876,36.73242,94.28418,81.374,25.72266,20.08521,49.01172,36.07764l1.37793.50879-.04492-.2002q-25.7754-18.0454-66.38477-50.4668-33.59766-27.03075-70.27734-62.18115,33.63428-10.99952,46.3164-20.87549,28.31836-23.42432,21.3545-54.439l-.49414-2.2002q-5.57373-24.80859-30.66993-39.85742Zm9.88672,3.54785q19.29345,15.06446,24.417,37.87452,6.38232,28.41357-16.38476,51.83789-14.76562,14.09619-49.73145,24.78515l.04492.2002q34.92335,34.05541,85.19434,73.49756,31.11328,24.98072,57.585,42.772l.543.16309.49609-.03711q-51.65038-37.71242-92.84961-72.7334-24.25928-21.41235-42.97851-39.56885,33.6372-10.99952,46.36132-20.67432,28.31837-23.42431,21.35645-54.439l-.49414-2.20117Q4674.74659,322.90332,4647.165,308.03564Zm7.77051,229.04346.04492.2002,4.64844,2.71093-.04493-.19921A19.51451,19.51451,0,0,0,4654.93555,537.0791Zm16.63379,7.7334q19.72559,13.61133,60.96093,10.59473,21.61524-1.57911,30.293-7.90821a45.48035,45.48035,0,0,0-9.52539-4.18554q-9.85546,5.60155-24.01172,6.63672l-9.44043.68945Q4693.75977,552.54687,4671.56934,544.8125Zm66.62988,12.21484-9.44141.68946a132.2863,132.2863,0,0,1-31.11718-1.3877l-.25.01856.08984.40039q19.708,5.68066,47.28516,3.66308,21.85986-1.59668,33.29785-9.1455l-.0459-.2002a105.56446,105.56446,0,0,1-12.14649-2.36523A62.94389,62.94389,0,0,1,4738.19922,557.02734Zm26.25293-11.27539.0459.2002a1.78844,1.78844,0,0,1,.834.34668l.4961-.03613-.08985-.4004a2.83627,2.83627,0,0,1-1.03808-.12792Z" transform="translate(-44.5 5.4004)"/><path class="cls-1" d="M4789.69727,267.51953l214.8916-15.70459c.33008-.02392.542.16406.63281.56445l10.832,48.22168q.04541.20216,8.125,4.69385l-10.78808-48.02148q-.40431-1.8003.54394-2.07373a3.198,3.198,0,0,1,2.36816,2.67431L5027.54,307.89648l10.24414,7.38672-11.77637-52.42382a1.4627,1.4627,0,0,1,.83789-1.89161l.24805-.01806q1.28613.11059,1.7373,2.10937l11.59668,51.624c.4209,1.86914-.20117,2.86181-1.85546,2.98242l-1.24122.09082a62.702,62.702,0,0,1-9.11621-6.85889A3.06751,3.06751,0,0,1,5026,312.28027l-1.24219.09082q-.25048.01832-15.90918-11.24365a46.67926,46.67926,0,0,0-20.06738-7.27832q-12.64307-2.32764-45.68457.084l-38.50781,2.81445,17.89062,79.63672.24805-.01807q45.46289-3.323,54.72754-9.2876,6.50536-2.50562,15.09863-11.47607l4.749-5.83789.3379.38232,14.51855,64.62989q8.05664,5.51146,8.14648,5.9121l.24805-.01806-14.65332-65.22949c-.04687-.94336.18262-1.43653.67871-1.47315l.99414-.07275q.78809.14647,1.19434,1.94678l14.15918,63.02832q.67383,3.00146-.93067,3.72851l-1.9873.14551q-17.53711-11.7312-20.01758-11.55322-10.56885-2.07276-29.19922-.71387l-40.74219,2.97754,21.84571,97.24512,28.81738-2.10645q45.95655-3.35889,77.66406-22.9624a73.57484,73.57484,0,0,0,16.09864-18.26026l.63476-1.67382.74512-.05469q-.65039,55.57031-.9668,58.64355l-226.8164,16.57617q-.7456.05421-.87989-.54589,16.54542-16.25831,12.18848-35.66895.18018-1.43262-1.75195-10.03955l-40.27442-179.28223q-6.65185-29.61034-12.27148-33.2705-.18018-.79687-9.18262-8.27686-.40429-1.80175-6.06738-5.6582ZM5085.584,469.60986q.74415-.05493,1.01465,1.14551-.39843,55.55053-.69629,59.84424a3.6969,3.6969,0,0,1-2.05664.96387l-227.3125,16.6123q-2.23534.1626-2.5957-1.43848a4.82443,4.82443,0,0,1,1.89746-.54492l227.56055-16.62988q.4702-58.60693.94531-59.86182Zm11.82715,5.44043.74512-.0542c.33008-.02441.71973.22022,1.17383.72705q-.55958,55.97242-.90137,60.062a3.0039,3.0039,0,0,1-2.05469.96289l-227.81054,16.64843c-.334.02442-.72266-.21679-1.17383-.72656l-.08985-.40039q-.08935-.39843.81348-.87305l227.81055-16.64843q.34716-53.51148,1.03515-59.46094Zm-217.04-190.56543,20.99121,93.44239,6.95606-.5083-19.64356-87.43946q-.13476-.60059.61036-.65527l31.05468-2.269q47.94288-3.50391,59.12207.1538,8.05665,1.04,22.93457,7.6792l-.04492-.20019q-17.4668-10.31616-31.39746-12.75537-14.07129-3.03808-49.34277-.46143Zm11.44239,7.09571,19.23828,85.63867,8.44629-.61719-18.29492-81.4375q.10986-.61743.61132-.6543l31.30078-2.28759q43.72266-3.19484,54.92286-.55664l.249-.01807-.04492-.2002q-17.68067-5.61913-50.71778-3.208Zm14.2666,109.59423,24.94726,111.05079,6.95606-.50879L4914.38477,406.669c-.08985-.4004.02734-.61231.36132-.63672l39.252-2.86866q31.30224-2.28735,43.21972,3.55225l5.10059,2.4751-.04492-.2002q-18.687-13.47876-47.75-11.35644Zm11.4414,7.09522,23.19434,103.24658,8.44629-.61719-22.25-99.04541c-.05957-.26562.07422-.41113.40723-.43554l39.5-2.88672q17.8872-1.30737,27.43847-.37842l.24805-.01807-.04492-.20019q-11.35693-4.45752-36.44531-2.624Zm99.252-104.46777q7.6875,6.14941,8.48437,6.29541l-.27051-1.20118a68.31173,68.31173,0,0,0-7.71777-5.13085Zm2.40136,54.5332q1.82667.27612,2.459,3.07373l14.06836,62.62891q.67528,3.00145-1.17774,3.74707l-.49707.03613-.79-.14551q-.42919-3.019-.74121-4.42041l-13.21484-58.82617Q5017.93214,358.42628,5019.1748,358.33545Z" transform="translate(-44.5 5.4004)"/></g><g id="icones"><path class="cls-2" d="M5573.18,755.95687a15.85,15.85,0,0,0-7.92423-11.12731,14.51186,14.51186,0,0,0-12.8697-1.15811c0-.33388.09912-.6521.09912-.99118a15.514,15.514,0,0,0-20.96609-14.659c0-.33387.09913-.65209.09913-.99118a15.65009,15.65009,0,0,0-15.65023-15.65022,15.65008,15.65008,0,0,0-15.65022-15.65022c-.33908,0-.65731.07825-.99117.09911a14.362,14.362,0,0,0-.25041-11.08036,16.12493,16.12493,0,0,0-13.04185-9.82834,22.82243,22.82243,0,0,1-32.78657-4.399,13.17052,13.17052,0,1,1-25.91156-.87576,15.62539,15.62539,0,0,0-13.25117,7.30409,15.19341,15.19341,0,0,0-11.29946-1.64328,15.85425,15.85425,0,0,0-11.75854,12.348,15.51961,15.51961,0,0,0,3.91256,13.38094,15.57093,15.57093,0,0,0-12.12893,7.19389,15.21717,15.21717,0,0,0-12.73928-1.22594,15.72839,15.72839,0,0,0-9.66662,9.54143,15.41207,15.41207,0,0,0,.20867,11.096,15.60806,15.60806,0,0,0-11.58117,15.04508c0,.33908.07826.65731.09912.99118a14.50893,14.50893,0,0,0-12.8384,1.14246,15.86356,15.86356,0,0,0-7.95032,11.143,15.58344,15.58344,0,0,0,7.366,15.7024l2.89007,2.32666h18.2586v20.42354h182.58595v-20.434h23.47534l-.73034-.73034A15.58751,15.58751,0,0,0,5573.18,755.95687Z" transform="translate(-44.5 5.4004)"/><path class="cls-3" d="M5372.50765,971.7839l-45.297-178.90293a24.29882,24.29882,0,0,1,23.67879-29.76672h.22954a24.29918,24.29918,0,0,1,24.10656,21.21127l28.58252,187.45838Z" transform="translate(-44.5 5.4004)"/><path class="cls-4" d="M5403.80809,971.7839l-27.78958-181.27656a24.2987,24.2987,0,0,1,24.10657-27.3931h.866a24.29937,24.29937,0,0,1,24.29436,23.67879l9.82312,184.99085h-31.30045Z" transform="translate(-44.5 5.4004)"/><path class="cls-3" d="M5425.31672,788.03983l9.79183,183.74407H5466.409l9.12408-183.10762a24.3,24.3,0,0,0-23.00452-25.52943q-.62406-.03228-1.24811-.0326h-1.6537a24.299,24.299,0,0,0-24.31784,24.28133q0,.32178.00782.64425Z" transform="translate(-44.5 5.4004)"/><path class="cls-4" d="M5475.65827,786.17224,5466.409,971.78392h31.30045l26.99142-180.67141a24.29893,24.29893,0,0,0-24.01788-27.99825h-.75643A24.29947,24.29947,0,0,0,5475.65827,786.17224Z" transform="translate(-44.5 5.4004)"/><path class="cls-3" d="M5549.87685,763.11424a24.29925,24.29925,0,0,1,23.53795,30.33535l-44.40491,178.33433h-31.30045l28.12866-188.06353A24.29923,24.29923,0,0,1,5549.87685,763.11424Z" transform="translate(-44.5 5.4004)"/><path class="cls-2" d="M5382.94113,841.36536H5518.5764v62.6009H5382.94113Z" transform="translate(-44.5 5.4004)"/><path class="cls-2" d="M5346.42394,684.86312a15.5981,15.5981,0,0,0-29.35461-7.41364,15.4444,15.4444,0,0,0-1.94584-.193,15.6577,15.6577,0,1,0,2.17016,31.08135,15.58754,15.58754,0,0,0,27.13292-15.35222q-.08509-.14966-.1728-.29736A15.49333,15.49333,0,0,0,5346.42394,684.86312Z" transform="translate(-44.5 5.4004)"/><path class="cls-2" d="M5602.04427,695.2966a15.59809,15.59809,0,0,0-29.3546-7.413,15.44659,15.44659,0,0,0-1.94585-.193,15.6577,15.6577,0,1,0,2.17016,31.08135,15.58754,15.58754,0,1,0,27.13291-15.35222q-.08509-.14966-.17281-.298A15.49305,15.49305,0,0,0,5602.04427,695.2966Z" transform="translate(-44.5 5.4004)"/><path d="M5578.3394,755.19523a21.06137,21.06137,0,0,0-10.48043-14.88858,20.4414,20.4414,0,0,0-10.81431-2.8327,21.0809,21.0809,0,0,0-20.867-15.65022,20.94517,20.94517,0,0,0-15.525-15.12855,20.95131,20.95131,0,0,0-15.12856-15.525,19.3623,19.3623,0,0,0-1.66414-8.50329,21.44588,21.44588,0,0,0-17.403-12.93231,66.05949,66.05949,0,0,1-40.92012-.71208,21.67108,21.67108,0,0,1-31.96753.58558q-.54678.48027-1.05965.997a20.1544,20.1544,0,0,0-10.95516-.35473,21.13275,21.13275,0,0,0-15.65022,16.49012,20.76354,20.76354,0,0,0,1.04335,11.15339,20.89987,20.89987,0,0,0-5.67581,4.01689,20.198,20.198,0,0,0-12.87492.193,20.9242,20.9242,0,0,0-12.90622,12.74971,20.68892,20.68892,0,0,0-1.04334,9.72923,20.95544,20.95544,0,0,0-9.95355,12.90621,19.47216,19.47216,0,0,0-10.78822,2.81183A21.10812,21.10812,0,0,0,5323.1938,755.205a20.72492,20.72492,0,0,0,3.65171,15.19115,29.37546,29.37546,0,0,0-4.69506,23.77791L5368.449,977h164.64036L5578.475,794.7427a29.266,29.266,0,0,0-4.17339-23.83008,20.57319,20.57319,0,0,0,4.03775-15.71739ZM5338.891,749.33161a9.30219,9.30219,0,0,1,8.46155-.76165,5.21737,5.21737,0,0,0,6.98521-5.21674c0-.13042-.073-.52167-.08868-.66774a10.433,10.433,0,0,1,7.726-10.01615,5.217,5.217,0,0,0,3.66868-6.40094,5.15986,5.15986,0,0,0-.19433-.57906,10.19431,10.19431,0,0,1-.15128-7.38691,10.55822,10.55822,0,0,1,6.427-6.33834,10.017,10.017,0,0,1,8.48242.82425,5.21716,5.21716,0,0,0,6.97479-1.74239,10.2989,10.2989,0,0,1,8.08594-4.78375,5.21646,5.21646,0,0,0,3.48478-8.73283,10.30357,10.30357,0,0,1-2.60837-8.94671,10.56384,10.56384,0,0,1,7.88249-8.20593,9.91239,9.91239,0,0,1,7.49125,1.11116,5.21713,5.21713,0,0,0,6.97478-1.74239,10.43342,10.43342,0,0,1,19.22369,5.55061,5.21674,5.21674,0,1,0,10.43348,0,10.40214,10.40214,0,0,1,20.17837-3.563,5.217,5.217,0,0,0,3.876,3.31263,5.15887,5.15887,0,0,0,4.84636-1.565,10.43467,10.43467,0,0,1,8.52415-3.33872,10.91377,10.91377,0,0,1,8.71718,6.71917,9.07761,9.07761,0,0,1,.13043,7.20953,5.21638,5.21638,0,0,0,4.90374,7.00087c.22953,0,.75643-.073.986-.09912a10.43311,10.43311,0,0,1,10.43349,10.43348,5.217,5.217,0,0,0,5.21674,5.21675,10.4331,10.4331,0,0,1,10.43348,10.28741c0,.13042-.07825.68339-.08867.81381a5.21718,5.21718,0,0,0,6.99043,5.21674,10.23635,10.23635,0,0,1,3.53172-.673,10.43311,10.43311,0,0,1,10.43349,10.28741c0,.13042-.07825.68339-.08868.81381a5.21619,5.21619,0,0,0,6.9852,5.21674,9.35415,9.35415,0,0,1,8.48242.76686,10.58,10.58,0,0,1,5.36281,7.37126,10.34647,10.34647,0,0,1-1.16333,6.55223l-.12519-.07825a29.09479,29.09479,0,0,0-3.38045-2.01887c-.2817-.14607-.56341-.27649-.85031-.41213a28.8695,28.8695,0,0,0-3.43784-1.38766c-.10434-.0313-.19823-.07824-.30256-.10955a29.22584,29.22584,0,0,0-3.88126-.90771c-.31822-.05217-.63121-.09911-.94944-.14607a29.99793,29.99793,0,0,0-4.03775-.31822,29.44833,29.44833,0,0,0-24.51869,13.1827l-.06782.10956-.05739-.10434a29.46373,29.46373,0,0,0-24.55-13.18792h-.75643a29.32632,29.32632,0,0,1-48.64611,0h-1.6537a29.41459,29.41459,0,0,1-48.6409,0h-.866a34.97717,34.97717,0,0,1-54.46278.52167c-.52167.08869-1.00161.21911-1.50242.33909a28.9784,28.9784,0,0,0-3.65172,1.10074c-.48516.18258-.97553.35474-1.45025.56341a29.01454,29.01454,0,0,0-4.236,2.26406c-.10434.06782-.22432.12-.32866.1878l-.04695.02608a10.32112,10.32112,0,0,1-.94423-6.17141,10.5944,10.5944,0,0,1,5.39407-7.39733Zm180.65054,41.014-6.83915,45.803h-34.29487l2.478-49.71033a18.78028,18.78028,0,0,1,3.22916-9.55707,19.03641,19.03641,0,0,1,15.81716-8.55024h.75643a19.11149,19.11149,0,0,1,18.85332,22.01465Zm-88.98718-2.67619a19.06728,19.06728,0,0,1,18.794-19.3365c.08608-.0013.1715-.002.25758-.002h1.67457a19.21071,19.21071,0,0,1,19.062,20.06359l-2.3997,47.75405h-34.81653l-2.56141-48.19225Zm-46.309-10.79865a19.06265,19.06265,0,0,1,15.87977-8.5398h.866a19.20282,19.20282,0,0,1,19.08283,18.749l.03131.56862v.20345l2.551,48.29659h-34.24791l-7.30343-48.04619a18.81275,18.81275,0,0,1,3.16656-11.22643Zm-7.679,189.69636-44.27448-174.86a19.18192,19.18192,0,1,1,37.75878-6.59918l.61035,4.00124c.03652.6834.07825,1.36678.18259,2.18582l6.88088,44.85354V909.183h11.21077l1.11639,7.30344,7.679,50.08073h-21.16432Zm31.723,0-5.34716-35.06693L5399.5408,909.183h27.00707l3.057,57.38415Zm53.15337,0H5440.054l-3.04657-57.38415h27.31484Zm31.77,0H5471.8918l2.864-57.38415h27.03836Zm-17.93516-67.81763h-87.11958V846.5821h125.20179v52.16742Zm93.06667-106.55716-43.41371,174.37479h-21.16432l8.58154-57.38415h11.44554V836.14862l7.20432-51.64574a19.08286,19.08286,0,1,1,37.70137,5.93535q-.13889.88227-.36,1.74892Z" transform="translate(-44.5 5.4004)"/><path d="M5351.64068,700.51334a20.5271,20.5271,0,0,0-1.565-7.82511,20.52707,20.52707,0,0,0,1.565-7.82511,20.80947,20.80947,0,0,0-37.25275-12.8071,20.86772,20.86772,0,1,0,.35474,41.73393,20.80969,20.80969,0,0,0,36.898-13.27661Zm-29.83976,5.21675-2.13365-2.97876-3.47435.49037a7.43512,7.43512,0,0,1-1.06943.09912,10.43348,10.43348,0,0,1,0-20.867,11.05637,11.05637,0,0,1,1.29376.15129l3.53695.44864,1.70066-3.13005a10.38657,10.38657,0,0,1,19.55234,4.91939,10.22805,10.22805,0,0,1-1.46069,5.21674l-1.5285,2.60837,1.5285,2.60837a10.22811,10.22811,0,0,1,1.46069,5.21675,10.43311,10.43311,0,0,1-10.43348,10.43348A10.31941,10.31941,0,0,1,5321.80092,705.73009Z" transform="translate(-44.5 5.4004)"/><path d="M5607.261,695.2966a20.80947,20.80947,0,0,0-37.25275-12.8071,20.86772,20.86772,0,0,0,.35475,41.73393,20.80969,20.80969,0,0,0,36.898-13.27661,20.5271,20.5271,0,0,0-1.565-7.82511A20.52952,20.52952,0,0,0,5607.261,695.2966Zm-11.89417,10.43349a10.228,10.228,0,0,1,1.46069,5.21674,10.43311,10.43311,0,0,1-10.43349,10.43348,10.31862,10.31862,0,0,1-8.9728-5.21674l-2.13365-2.97876-3.47435.49037a7.51854,7.51854,0,0,1-1.07466.11477,10.43348,10.43348,0,0,1,0-20.867,11.0561,11.0561,0,0,1,1.29376.15128l3.537.44864,1.70066-3.13a10.38656,10.38656,0,0,1,19.55757,4.90373,10.22818,10.22818,0,0,1-1.46069,5.21675l-1.5285,2.60837Z" transform="translate(-44.5 5.4004)"/><path class="cls-5" d="M810.02852,422.87543a4.354,4.354,0,0,1,2.543,4.02294c.38291,5.59977,4.61889,9.15418,9.40411,8.73552a8.725,8.725,0,0,0,7.921-9.43985c-.32371-1.69714.20745-4.22072,1.6292-5.19938a4.261,4.261,0,0,0,1.95157-3.86075c-.33929-3.87812-6.39028-5.28353-8.18313-1.36815-1.40173,3.06041-8.0775,3.715-10.03687.87811a4.261,4.261,0,0,0-3.86075-1.95157,4.35986,4.35986,0,0,0-3.96049,4.71992A4.261,4.261,0,0,0,810.02852,422.87543Z" transform="translate(-44.5 5.4004)"/><path class="cls-6" d="M791.14373,428.897a30.33067,30.33067,0,0,0,60.02563-5.25156,13.01482,13.01482,0,1,0-10.25966-23.91664,29.6963,29.6963,0,0,0-43.81525,3.83334,12.9343,12.9343,0,0,0-4.19776-.37156,13.03453,13.03453,0,0,0-1.753,25.70642Zm19.4935-22.88509a12.66332,12.66332,0,0,1,8.98153,2.68234,12.66341,12.66341,0,0,1,8.3793-4.20122,13.08482,13.08482,0,0,1,14.15977,11.88146,12.72806,12.72806,0,0,1-3.52364,9.95636,17.42918,17.42918,0,0,1-34.6794,3.03405,12.72806,12.72806,0,0,1-5.199-9.19322A13.08482,13.08482,0,0,1,810.63723,406.01189Z" transform="translate(-44.5 5.4004)"/><path class="cls-6" d="M875.17862,536.23306l30.29783-2.65072a26.41914,26.41914,0,0,0,23.7376-28.6089l-3.03775-34.72165a8.6995,8.6995,0,0,1,3.97354-8.08656,8.1332,8.1332,0,0,0,3.39528-7.66453,8.92575,8.92575,0,0,0-5.07134-7.24392,8.17864,8.17864,0,0,0-8.21564.55637,26.18857,26.18857,0,0,0-11.44266,23.95752l3.03775,34.72165a8.725,8.725,0,0,1-7.921,9.43985l-11.66966,1.021A62.62288,62.62288,0,0,1,875.17862,536.23306Z" transform="translate(-44.5 5.4004)"/><path class="cls-6" d="M796.15086,490.3744l17.8096-1.55814a30.286,30.286,0,0,1,15.77769-9.75985,4.35524,4.35524,0,1,1,2.05606,8.46434,22.32318,22.32318,0,0,0-16.38745,19.08982,22.01294,22.01294,0,0,0,.99839,8.23237l-.27285.02387c.0276.11887.02918.24353.05852.36225a22.13445,22.13445,0,0,0-15.83774,23.177,4.35428,4.35428,0,0,0,4.71993,3.96049l41.995-3.67408c23.36159-2.04388,47.207-26.501,44.56743-56.67184a52.51085,52.51085,0,0,0-34.75015-44.62049,38.997,38.997,0,0,1-32.63126,24.275,38.36228,38.36228,0,0,1-4.37271.0082l.41222,4.71173A4.35986,4.35986,0,0,1,816.333,471.115l-21.701,1.89859a8.71357,8.71357,0,0,0,1.51887,17.36083Z" transform="translate(-44.5 5.4004)"/><g id="Ticket"><path d="M5207.925,869.19489a3.65324,3.65324,0,1,0-2.58228-1.07A3.67884,3.67884,0,0,0,5207.925,869.19489Z" transform="translate(-44.5 5.4004)"/><path d="M5260.24409,864.35845a3.65785,3.65785,0,1,0,1.06716,2.58229A3.6855,3.6855,0,0,0,5260.24409,864.35845Z" transform="translate(-44.5 5.4004)"/><path d="M5270.44484,857.81a3.65324,3.65324,0,1,0-2.58514-1.07A3.67884,3.67884,0,0,0,5270.44484,857.81Z" transform="translate(-44.5 5.4004)"/><path d="M5336.04063,879.845h-10.19076l17.939-17.93905a10.95806,10.95806,0,0,0,0-15.49515l-16.27126-16.27126a3.65355,3.65355,0,0,0-5.16457,0,10.95673,10.95673,0,0,1-15.49515-15.49515,3.651,3.651,0,0,0,0-5.16457L5290.5881,793.21a10.95462,10.95462,0,0,0-15.49514,0l-60.3228,60.32137a3.65241,3.65241,0,0,0,5.166,5.16458l60.32137-60.32137a3.651,3.651,0,0,1,5.16457,0l13.94578,13.94435A18.26937,18.26937,0,0,0,5324.68,837.63107l13.94435,13.94435a3.65614,3.65614,0,0,1,0,5.16457L5315.5193,879.845h-16.01161l11.99979-11.99979a3.65355,3.65355,0,0,0,0-5.16457l-37.18921-37.18922a3.6527,3.6527,0,0,0-5.166,0L5214.7987,879.845h-43.84181A10.96887,10.96887,0,0,0,5160,890.80192v23.00946a3.65293,3.65293,0,0,0,3.6523,3.6523,10.95689,10.95689,0,0,1,0,21.91377,3.652,3.652,0,0,0-3.6523,3.6523v23.00946a10.96979,10.96979,0,0,0,10.95689,10.95688h165.08374a10.96978,10.96978,0,0,0,10.95689-10.95688V943.02975a3.652,3.652,0,0,0-3.65229-3.6523,10.95689,10.95689,0,1,1,0-21.91377,3.65293,3.65293,0,0,0,3.65229-3.6523V890.80192A10.96886,10.96886,0,0,0,5336.04063,879.845Zm-64.30607-46.60671,32.02463,32.02463L5289.17712,879.845h-14.46223l10.70721-10.70865a3.6519,3.6519,0,0,0-5.16457-5.16457l-15.87322,15.87179h-39.255Zm67.95837,77.28742a18.26429,18.26429,0,0,0,0,35.78964v19.72382a3.6566,3.6566,0,0,1-3.6523,3.65229H5170.95689a3.6566,3.6566,0,0,1-3.6523-3.65229V946.31539a18.26429,18.26429,0,0,0,0-35.78964V890.80192a3.65568,3.65568,0,0,1,3.6523-3.65229h165.08374a3.65568,3.65568,0,0,1,3.6523,3.65229Z" transform="translate(-44.5 5.4004)"/><path d="M5238.00219,922.23734a3.651,3.651,0,1,0-2.58229,1.07A3.6839,3.6839,0,0,0,5238.00219,922.23734Z" transform="translate(-44.5 5.4004)"/><path d="M5274.15991,922.23734a3.651,3.651,0,1,0-2.58229,1.07A3.68387,3.68387,0,0,0,5274.15991,922.23734Z" transform="translate(-44.5 5.4004)"/><path d="M5256.08105,922.23734a3.651,3.651,0,1,0-2.58229,1.07A3.68387,3.68387,0,0,0,5256.08105,922.23734Z" transform="translate(-44.5 5.4004)"/><path d="M5217.341,923.30735a3.65324,3.65324,0,1,0-2.58229-1.07A3.68135,3.68135,0,0,0,5217.341,923.30735Z" transform="translate(-44.5 5.4004)"/><path d="M5292.23877,922.23734a3.651,3.651,0,1,0-2.58229,1.07A3.68387,3.68387,0,0,0,5292.23877,922.23734Z" transform="translate(-44.5 5.4004)"/><path d="M5217.341,940.83837h72.31544a3.6523,3.6523,0,1,0,0-7.30459H5217.341a3.6523,3.6523,0,1,0,0,7.30459Z" transform="translate(-44.5 5.4004)"/><path d="M5230.60629,951.0648a3.65324,3.65324,0,1,0,2.58228,1.07A3.68136,3.68136,0,0,0,5230.60629,951.0648Z" transform="translate(-44.5 5.4004)"/><path d="M5309.01365,898.47174H5197.98387a3.652,3.652,0,0,0-3.65229,3.6523v52.593a3.65293,3.65293,0,0,0,3.65229,3.6523H5213.198a3.6523,3.6523,0,1,0,0-7.30459h-11.56179V905.77633h103.72518V951.0648h-59.29273a3.6523,3.6523,0,0,0,0,7.30459h62.945a3.65293,3.65293,0,0,0,3.65229-3.6523V902.124A3.652,3.652,0,0,0,5309.01365,898.47174Z" transform="translate(-44.5 5.4004)"/></g><g id="Clapperboard"><path d="M5202.857,387.44863l19.76165,101.66489a34.56139,34.56139,0,0,0,40.47526,27.30092l243.99573-47.428a34.55265,34.55265,0,0,0,27.30091-40.47526l-19.76165-101.66489Z" transform="translate(-44.5 5.4004)"/><polygon points="5274.808 205.553 5226.423 227.45 5281.074 281.721 5333.584 258.544 5274.808 205.553"/><polygon points="5212.977 233.539 5160.827 257.124 5214.917 310.899 5267.506 287.692 5212.977 233.539"/><path d="M5489.04352,196.378l-20.0412-41.51423a20.85816,20.85816,0,0,0-27.198-10.15935l-43.44322,19.67037,55.59857,55.31014,31.65047-13.97353a6.88247,6.88247,0,0,0,3.6939-3.93926A6.962,6.962,0,0,0,5489.04352,196.378Z" transform="translate(-44.5 5.4004)"/><polygon points="5340.401 175.866 5288.539 199.339 5347.423 252.449 5395.892 231.056 5340.401 175.866"/><polygon points="5213.49 311.809 5202.339 370.233 5255.516 359.896 5266.668 301.472 5213.49 311.809"/><polygon points="5281.267 298.635 5270.115 357.058 5323.293 346.722 5334.445 288.298 5281.267 298.635"/><path d="M5494.67986,260.40085l-33.35943,6.48441-11.14879,58.43684,61.8256-12.01768-9.22215-47.44382A6.8899,6.8899,0,0,0,5494.67986,260.40085Z" transform="translate(-44.5 5.4004)"/><polygon points="5349.044 285.46 5337.892 343.884 5391.056 333.55 5402.221 275.124 5349.044 285.46"/><path d="M5191.883,257.82565l-10.5393,4.76344a20.7032,20.7032,0,0,0-10.40847,27.7245l22.22,47.224,7.06677,36.35536,32.01745-6.22356,10.4629-54.80071,3.16241-1.3882Z" transform="translate(-44.5 5.4004)"/></g><g id="movie-film"><path d="M180.86937,950.60367H261.1389a51.56363,51.56363,0,0,0,36.90391-15.45585c14.84529-15.01133,27.2942-24.31631,50.07833-24.31631H368v30.2494H348.12114c-11.61157,0-17.06824,3.467-28.925,15.45586a81.11759,81.11759,0,0,1-58.05719,24.31631H180.86937Z" transform="translate(-44.5 5.4004)"/><circle class="cls-7" cx="132.33518" cy="860.23558" r="126.01726"/><path class="cls-8" d="M196.10747,974.4292a126.0362,126.0362,0,0,1-49.41379-241.97409,126.036,126.036,0,1,0,79.55593,238.33627A126.28567,126.28567,0,0,1,196.10747,974.4292Z" transform="translate(-44.5 5.4004)"/><circle class="cls-4" cx="200.9872" cy="838.68346" r="30.97595"/><circle class="cls-4" cx="175.86339" cy="917.38885" r="30.97595"/><circle class="cls-4" cx="88.81338" cy="917.38885" r="30.97595"/><circle class="cls-4" cx="63.68317" cy="838.68346" r="30.97595"/><circle class="cls-4" cx="132.33518" cy="788.3909" r="30.97595"/><circle class="cls-4" cx="132.33518" cy="860.23558" r="18.10892"/><path d="M215.30715,840.25811a30.97594,30.97594,0,0,0,33.5044,23.8191,73.24886,73.24886,0,0,0,.58328-9.242,72.2915,72.2915,0,0,0-18.78728-48.71679A30.98361,30.98361,0,0,0,215.30715,840.25811Z" transform="translate(-44.5 5.4004)"/><path d="M240.94359,888.84063a30.97646,30.97646,0,0,0-48.37119,36.83645A72.676,72.676,0,0,0,240.94359,888.84063Z" transform="translate(-44.5 5.4004)"/><path d="M152.07818,887.34643a30.98186,30.98186,0,0,0-39.34948,1.49483,72.67852,72.67852,0,0,0,48.37182,36.8371A30.984,30.984,0,0,0,152.07818,887.34643Z" transform="translate(-44.5 5.4004)"/><path d="M123.06473,806.11839a72.2915,72.2915,0,0,0-18.78728,48.71679,73.24886,73.24886,0,0,0,.58328,9.242,30.97238,30.97238,0,0,0,18.204-57.95882Z" transform="translate(-44.5 5.4004)"/><path d="M176.83582,782.27616a72.27572,72.27572,0,0,0-30.401,6.66221,30.97682,30.97682,0,0,0,60.802,0A72.27356,72.27356,0,0,0,176.83582,782.27616Z" transform="translate(-44.5 5.4004)"/><path d="M199.76008,854.83518a22.92459,22.92459,0,1,0-22.9249,22.92426A22.95064,22.95064,0,0,0,199.76008,854.83518Zm-36.2127,0a13.28876,13.28876,0,1,1,13.28844,13.28844A13.30333,13.30333,0,0,1,163.54738,854.83518Z" transform="translate(-44.5 5.4004)"/><path class="cls-9" d="M280.365,825.22687a35.61911,35.61911,0,0,0-34.84891-27.74346,35.80667,35.80667,0,0,0-34.07419,46.86285c5.60741,17.38751,24.32724,27.922,42.10469,23.81525A35.8356,35.8356,0,0,0,280.365,825.22687Zm-35.94162,34.195a26.05448,26.05448,0,0,1-13.96489-4.683c-14.28735-9.99555-14.62395-31.77059-.78049-42.29162a67.57457,67.57457,0,0,1,14.8989,42.388C244.57692,856.36277,244.52553,857.89616,244.4234,859.42184Zm9.71869-1.45373c.04175-1.04453.07065-2.08968.07065-3.13293a77.18774,77.18774,0,0,0-15.7231-46.753c.36744-.1015.73682-.19914,1.11069-.28522a26.30633,26.30633,0,0,1,5.91639-.67836,26.16153,26.16153,0,0,1,8.62537,50.84952Z" transform="translate(-44.5 5.4004)"/><path class="cls-9" d="M184.64469,909.75422l-.00579.09186a35.78276,35.78276,0,0,0,35.74762,37.94266,36.125,36.125,0,0,0,35.4457-30.99458c2.59782-19.18621-11.15507-37.47884-30.32136-40.21863-.14068-.01992-.28073-.04176-.42141-.06038C204.80346,873.80362,185.9526,889.36675,184.64469,909.75422Zm9.684.31349a26.09745,26.09745,0,0,1,40.35482-19.97055,67.62345,67.62345,0,0,1-39.23514,29.88645A25.61869,25.61869,0,0,1,194.32868,910.06771Zm51.95507,5.43268a26.4095,26.4095,0,0,1-25.89915,22.65188,25.96818,25.96818,0,0,1-20.20567-9.533,77.22479,77.22479,0,0,0,41.57472-31.67358A25.96757,25.96757,0,0,1,246.28375,915.50039Z" transform="translate(-44.5 5.4004)"/><path class="cls-9" d="M111.62444,940.46871a35.47556,35.47556,0,0,0,21.66325,7.31938c20.31424,0,36.999-17.64448,35.74441-37.94971l-.0045-.07708a35.75719,35.75719,0,0,0-40.86681-33.18577,35.78816,35.78816,0,0,0-16.53635,63.89318Zm17.81535-54.34409c.05846-.00835.11691-.01735.176-.0257,15.75071-2.179,30.42414,11.04008,29.83315,26.9077-.00128.0257-.00193.05139-.00257.07709a25.94744,25.94744,0,0,1-1.22374,6.90053,67.62011,67.62011,0,0,1-39.2345-29.88645A26.11078,26.11078,0,0,1,129.43979,886.12462Zm-17.52114,10.82165a77.22823,77.22823,0,0,0,41.57408,31.67294,26.15093,26.15093,0,0,1-41.57408-31.67294Z" transform="translate(-44.5 5.4004)"/><path class="cls-9" d="M137.95207,813.5277a36.0934,36.0934,0,0,0-29.79716-16.04428,35.801,35.801,0,0,0-30.33228,54.76486,36.13871,36.13871,0,0,0,30.39009,16.83827,35.596,35.596,0,0,0,34.03308-24.79489A36.22686,36.22686,0,0,0,137.95207,813.5277Zm-3.6507,21.09731a26.35563,26.35563,0,0,1-25.05377,24.79745c-.10214-1.52631-.15289-3.059-.15289-4.58729a67.57626,67.57626,0,0,1,14.89441-42.38284c.11756.08929.23576.1773.35139.26788A26.60478,26.60478,0,0,1,134.30137,834.625ZM85.99572,847.14322a26.16494,26.16494,0,0,1,22.15854-40.02463,26.34173,26.34173,0,0,1,7.0258.96423,77.1964,77.1964,0,0,0-15.72117,46.75236c0,1.04388.02827,2.089.07,3.13421A25.96006,25.96006,0,0,1,85.99572,847.14322Z" transform="translate(-44.5 5.4004)"/><path class="cls-9" d="M141.73509,789.93086a35.72213,35.72213,0,1,0-.69441-6.93652A35.24583,35.24583,0,0,0,141.73509,789.93086Zm59.18835,3.26268c-6.46563,15.21175-26.2711,20.68618-39.60965,10.841a26.35847,26.35847,0,0,1-8.56753-10.84415l-.02248-.05268c-.03084-.07194-.57109-1.40426-.54411-1.41453a67.977,67.977,0,0,1,49.31164,0C201.49774,791.72569,200.93244,793.173,200.92344,793.19354Zm-24.08826-36.35916a26.18711,26.18711,0,0,1,26.13427,25.15591,77.61656,77.61656,0,0,0-52.2679,0A26.187,26.187,0,0,1,176.83518,756.83438Z" transform="translate(-44.5 5.4004)"/><path class="cls-10" d="M196,985c57-13,55-20,73-33,22.25617-23.46644,38.67167-62.34544,38.67167-97.16351a130.50185,130.50185,0,0,0-47.49977-100.865,4.81811,4.81811,0,1,0-6.18012,7.393,121.20873,121.20873,0,0,1-73.26241,214.60322c-1.29313.04111-2.59011.06873-3.89352.06873A121.20065,121.20065,0,1,1,238.48938,750.476a4.81885,4.81885,0,1,0,5.02827-8.22062A130.68831,130.68831,0,0,0,176.83646,724C104.69307,723.99936,46,782.69179,46,854.83518,46,926.97792,104.69307,985.671,176.83582,985.671q1.71133,0,3.413-.04432a4.82675,4.82675,0,0,0,.62055.04432" transform="translate(-44.5 5.4004)"/><g id="test"><path d="M5364,893.612" transform="translate(-44.5 5.4004)"/><path d="M5250,642c-303.18064-36.19848-1660.39733,102.35982-2435,154-30,2-271,17-271,17L330,943c-6.29679,0-44.17749,30.70741-53,30-1.043-.08363-4.76508-12.18924-3.95025-12.84564L308,932c0-7.05843,20.94157-20,28-20L2618,785c371.91943-20.796,2359.40354-195,2708-195" transform="translate(-44.5 5.4004)"/><path d="M4028,876" transform="translate(-44.5 5.4004)"/></g></g><path id="projo1" class="cls-11" d="M225.95467,371.20659a13.90576,13.90576,0,0,1-8.52477-13.393l2.2666-81.56258-68.15816-68.34827a32.0969,32.0969,0,0,1,0-45.30425L177.35257,136.713l-14.62661-14.667a57.078,57.078,0,0,1,0-80.47082,43.519,43.519,0,0,0,12.77443-30.92886V1.24493a3.63531,3.63531,0,1,1,7.27059,0v9.39952a50.764,50.764,0,0,1-14.90471,36.08337,49.768,49.768,0,0,0,0,70.1618l14.62661,14.667,23.095-23.15883V1.24493a3.64164,3.64164,0,0,1,3.63529-3.64533h23.89843a3.64164,3.64164,0,0,1,3.63529,3.64533v86.8465a31.72706,31.72706,0,0,1,25.01629,9.27191l68.16,68.34643,73.33609-2.27287a14.15455,14.15455,0,0,1,10.37332,24.15219l-44.1883,52.33246a67.33077,67.33077,0,0,1-75.75047,75.95972L241.51552,368.2119a13.87916,13.87916,0,0,1-9.88073,4.1885A14.35632,14.35632,0,0,1,225.95467,371.20659ZM403.471,170.72394l-11.32031.31715-167.07583,175.554c-.02183.02189-.04183.04375-.06363.0638l-.31626,11.35341a6.8414,6.8414,0,0,0,11.67839,5.04516L408.50046,182.43278a6.86382,6.86382,0,0,0-4.81131-11.71247C403.61826,170.72031,403.54374,170.72213,403.471,170.72394ZM330.015,173.00047,226.96706,276.33484l-1.6595,59.72155,156.26627-164.72ZM300.40731,309.15926A60.02268,60.02268,0,0,0,362.749,246.64539Zm10.14611-152.57011L210.59916,256.82134l12.7726,12.80607L323.326,169.397Zm-53.92231-54.07127a24.52534,24.52534,0,0,0-19.876-7.10659v69.88112a13.5304,13.5304,0,0,1-13.496,13.53332H219.084a13.53038,13.53038,0,0,1-13.496-13.53332V118.70865l-20.49217,20.54877-.03272.0328-.03273.03281-28.35349,28.43a24.8234,24.8234,0,0,0,0,34.99523l48.782,48.91678L305.4131,151.43465Zm-27.14662,60.68028V4.89027H212.85666V163.19816a8.31395,8.31395,0,1,0,16.62783,0Zm-11.9492-2.2911v-1.54745a3.63531,3.63531,0,1,1,7.27059,0v1.54745a3.63531,3.63531,0,1,1-7.27059,0Z" transform="translate(-44.5 5.4004)"/></g></svg>