<svg xmlns="http://www.w3.org/2000/svg" viewBox="0 0 5587.26115 987.17099"><defs><style>.cls-1,.cls-5,.cls-6,.cls-9{fill:red;}.cls-1,.cls-10,.cls-5,.cls-6{stroke:#000;stroke-miterlimit:10;}.cls-1{stroke-width:6px;}.cls-2{fill:#ffb932;}.cls-3{fill:#d30114;}.cls-4{fill:#fdf5e6;}.cls-5{stroke-width:2px;}.cls-10,.cls-6{stroke-width:3px;}.cls-7{fill:#bab8b9;}.cls-8{fill:#9e9c9d;}</style></defs><title>logo_mise_en_lumiere</title><g id="Texte"><path class="cls-1" d="M674.17822,807.291,533.87842,463.76221,494.54785,593.0791,401.24609,469.07959l5.15772,353.0874-42.67627,2.37012-2.50733-463.27832L477.95215,512.66406l50.627-160.70263,187.439,453.00537Z" transform="translate(-20 1.5)"/><path class="cls-1" d="M862.251,797.34277,778,433h41l84.25342,362.29916Z" transform="translate(-20 1.5)"/><path class="cls-1" d="M1025.48926,754.28223q71.95826-3.99756,94.83691-12.10352,46.57617-16.251,36.81934-63.56055-6.97193-33.78369-49.231-80.65332-42.2644-46.86474-82.563-90.42089Q979.874,455.39477,972.773,420.92529q-8.7854-42.57275,19.87451-65.69531,28.65381-23.12329,83.05274-26.145l30.124-1.67383,6.69385,32.43653q-52.71826,2.92894-70.84815,9.40527-35.42358,12.90821-28.312,47.36719,7.25318,35.14452,51.32275,84.63769,40.15358,42.88183,80.33155,85.75977,45.46141,52.16748,53.13623,89.32324,10.04149,48.65333-26.22022,78.00781-33.33763,27.148-95.25537,30.582l-44.3501,2.46387Z" transform="translate(-20 1.5)"/><path class="cls-1" d="M1359.50342,769.21875,1296.188,462.42383l-20.91992,1.16211-21.89551-32.27539,35.98193-1.999-22.87207-110.82519,143.0918-7.94922,6.834,33.11328-102.08886,5.67139,16.03808,77.71191,97.06836-5.39258,21.896,32.27539-112.13086,6.2295,56.48193,273.68213,102.08887-5.6709,6.83349,33.1123Z" transform="translate(-20 1.5)"/><path class="cls-1" d="M1934.37744,737.28223,1871.062,430.4873l-20.91992,1.16211-21.896-32.27539,35.98243-1.999-22.87207-110.8252,143.09179-7.94921,6.834,33.11328-102.08936,5.67138,16.03809,77.71192,97.06884-5.39258L2024.19531,421.98l-112.13086,6.22949,56.48194,273.68213,102.08935-5.6709,6.8335,33.11231Z" transform="translate(-20 1.5)"/><path class="cls-1" d="M2392.10352,711.85352l-70.98584-343.96143-129.70313-50.209,82.70068,400.72509-41.00293,2.27832L2138.418,261.8457l175.0293,68.8794L2299.083,261.12158l41.00293-2.27783,93.02051,450.73242Z" transform="translate(-20 1.5)"/><path class="cls-1" d="M2874.919,685.03125l-93.02051-450.73193,41.00293-2.27784,86.18652,417.62012,104.59961-5.81055,6.834,33.11231Z" transform="translate(-20 1.5)"/><path class="cls-1" d="M3324.26758,578.04785q7.9497,38.51806-9.90235,62.75-19.80175,27.0835-66.66406,29.67578-46.875,2.6045-77.05469-20.667-30.19335-23.26611-38.2832-62.46484l-76.00683-368.28955,41.00293-2.27784,75.72753,366.93848q5.16212,25.00782,20.57129,40.209,15.39845,15.2124,45.53516,13.5332,30.12451-1.67431,39.53906-17.57617,9.41455-15.90089,4.11426-41.58106l-75.86719-367.61328,41.00293-2.27783Z" transform="translate(-20 1.5)"/><path class="cls-1" d="M3788.6875,634.26855l-140.30078-343.5288-39.33008,129.31738-93.30176-124,5.15821,353.0874-42.67676,2.3711-2.64649-463.95508,116.73145,151.40576,51.46484-160.74951,186.74121,453.72754Z" transform="translate(-20 1.5)"/><path class="cls-1" d="M3967.75977,624.32031l-93.02051-450.73242,41.002-2.27783L4008.76172,622.043Z" transform="translate(-20 1.5)"/><path class="cls-1" d="M4106.25,65.03662l65.68848,59.917-41.83985,2.32422-65.68847-59.917Zm78.23633,547.24365-63.31445-306.79492-20.91993,1.16211-21.89648-32.27539,35.98242-1.999-22.87207-110.8252,143.09277-7.94922,6.834,33.11328-102.08985,5.67139,16.03809,77.71191,97.06836-5.39257,21.89551,32.27588-112.13086,6.229,56.48242,273.68311,102.08887-5.67188,6.834,33.1123Z" transform="translate(-20 1.5)"/><path class="cls-1" d="M4668.15332,585.41113l-164.01074-89.314,20.083,97.30908-41.00293,2.27832-93.02051-450.73242,30.96094-1.72022q92.88428-5.15991,169.59082,42.52588,76.69335,47.69166,92.32519,123.37061,12.55079,60.81885-19.24707,107.69678-31.80468,46.87645-99.998,73.22168l169.58985,91.73828Zm-25.51953-271.30175q-12.68849-61.48389-70.08106-99.65821-57.38964-38.15918-134.793-40.01513l60.94433,295.30664q73.919-10.93287,113.66406-52.10987Q4655.0332,374.25366,4642.63379,314.10938Z" transform="translate(-20 1.5)"/><path class="cls-1" d="M4894.92383,572.8125l-63.31445-306.79443-20.91993,1.16211-21.8955-32.27539,35.98144-1.999-22.87207-110.82519,143.0918-7.94922,6.834,33.11328L4849.74023,152.916l16.03809,77.71191,97.06836-5.39258,21.89551,32.27539-112.13086,6.22949,56.48242,273.68262,102.08887-5.6709,6.833,33.11133Z" transform="translate(-20 1.5)"/></g><g id="icones"><path class="cls-2" d="M5573.18,755.95687a15.85,15.85,0,0,0-7.92423-11.12731,14.51186,14.51186,0,0,0-12.8697-1.15811c0-.33388.09912-.6521.09912-.99118a15.514,15.514,0,0,0-20.96609-14.659c0-.33387.09913-.65209.09913-.99118a15.65009,15.65009,0,0,0-15.65023-15.65022,15.65008,15.65008,0,0,0-15.65022-15.65022c-.33908,0-.65731.07825-.99117.09911a14.362,14.362,0,0,0-.25041-11.08036,16.12493,16.12493,0,0,0-13.04185-9.82834,22.82243,22.82243,0,0,1-32.78657-4.399,13.17052,13.17052,0,1,1-25.91156-.87576,15.62539,15.62539,0,0,0-13.25117,7.30409,15.19341,15.19341,0,0,0-11.29946-1.64328,15.85425,15.85425,0,0,0-11.75854,12.348,15.51961,15.51961,0,0,0,3.91256,13.38094,15.57093,15.57093,0,0,0-12.12893,7.19389,15.21717,15.21717,0,0,0-12.73928-1.22594,15.72839,15.72839,0,0,0-9.66662,9.54143,15.41207,15.41207,0,0,0,.20867,11.096,15.60806,15.60806,0,0,0-11.58117,15.04508c0,.33908.07826.65731.09912.99118a14.50893,14.50893,0,0,0-12.8384,1.14246,15.86356,15.86356,0,0,0-7.95032,11.143,15.58344,15.58344,0,0,0,7.366,15.7024l2.89007,2.32666h18.2586v20.42354h182.58595v-20.434h23.47534l-.73034-.73034A15.58751,15.58751,0,0,0,5573.18,755.95687Z" transform="translate(-20 1.5)"/><path class="cls-3" d="M5372.50765,971.7839l-45.297-178.90293a24.29882,24.29882,0,0,1,23.67879-29.76672h.22954a24.29918,24.29918,0,0,1,24.10656,21.21127l28.58252,187.45838Z" transform="translate(-20 1.5)"/><path class="cls-4" d="M5403.80809,971.7839l-27.78958-181.27656a24.2987,24.2987,0,0,1,24.10657-27.3931h.866a24.29937,24.29937,0,0,1,24.29436,23.67879l9.82312,184.99085h-31.30045Z" transform="translate(-20 1.5)"/><path class="cls-3" d="M5425.31672,788.03983l9.79183,183.74407H5466.409l9.12408-183.10762a24.3,24.3,0,0,0-23.00452-25.52943q-.62406-.03228-1.24811-.0326h-1.6537a24.299,24.299,0,0,0-24.31784,24.28133q0,.32178.00782.64425Z" transform="translate(-20 1.5)"/><path class="cls-4" d="M5475.65827,786.17224,5466.409,971.78392h31.30045l26.99142-180.67141a24.29893,24.29893,0,0,0-24.01788-27.99825h-.75643A24.29947,24.29947,0,0,0,5475.65827,786.17224Z" transform="translate(-20 1.5)"/><path class="cls-3" d="M5549.87685,763.11424a24.29925,24.29925,0,0,1,23.53795,30.33535l-44.40491,178.33433h-31.30045l28.12866-188.06353A24.29923,24.29923,0,0,1,5549.87685,763.11424Z" transform="translate(-20 1.5)"/><path class="cls-2" d="M5382.94113,841.36536H5518.5764v62.6009H5382.94113Z" transform="translate(-20 1.5)"/><path class="cls-2" d="M5346.42394,684.86312a15.5981,15.5981,0,0,0-29.35461-7.41364,15.4444,15.4444,0,0,0-1.94584-.193,15.6577,15.6577,0,1,0,2.17016,31.08135,15.58754,15.58754,0,0,0,27.13292-15.35222q-.08509-.14966-.1728-.29736A15.49333,15.49333,0,0,0,5346.42394,684.86312Z" transform="translate(-20 1.5)"/><path class="cls-2" d="M5602.04427,695.2966a15.59809,15.59809,0,0,0-29.3546-7.413,15.44659,15.44659,0,0,0-1.94585-.193,15.6577,15.6577,0,1,0,2.17016,31.08135,15.58754,15.58754,0,1,0,27.13291-15.35222q-.08509-.14966-.17281-.298A15.49305,15.49305,0,0,0,5602.04427,695.2966Z" transform="translate(-20 1.5)"/><path d="M5578.3394,755.19523a21.06137,21.06137,0,0,0-10.48043-14.88858,20.4414,20.4414,0,0,0-10.81431-2.8327,21.0809,21.0809,0,0,0-20.867-15.65022,20.94517,20.94517,0,0,0-15.525-15.12855,20.95131,20.95131,0,0,0-15.12856-15.525,19.3623,19.3623,0,0,0-1.66414-8.50329,21.44588,21.44588,0,0,0-17.403-12.93231,66.05949,66.05949,0,0,1-40.92012-.71208,21.67108,21.67108,0,0,1-31.96753.58558q-.54678.48027-1.05965.997a20.1544,20.1544,0,0,0-10.95516-.35473,21.13275,21.13275,0,0,0-15.65022,16.49012,20.76354,20.76354,0,0,0,1.04335,11.15339,20.89987,20.89987,0,0,0-5.67581,4.01689,20.198,20.198,0,0,0-12.87492.193,20.9242,20.9242,0,0,0-12.90622,12.74971,20.68892,20.68892,0,0,0-1.04334,9.72923,20.95544,20.95544,0,0,0-9.95355,12.90621,19.47216,19.47216,0,0,0-10.78822,2.81183A21.10812,21.10812,0,0,0,5323.1938,755.205a20.72492,20.72492,0,0,0,3.65171,15.19115,29.37546,29.37546,0,0,0-4.69506,23.77791L5368.449,977h164.64036L5578.475,794.7427a29.266,29.266,0,0,0-4.17339-23.83008,20.57319,20.57319,0,0,0,4.03775-15.71739ZM5338.891,749.33161a9.30219,9.30219,0,0,1,8.46155-.76165,5.21737,5.21737,0,0,0,6.98521-5.21674c0-.13042-.073-.52167-.08868-.66774a10.433,10.433,0,0,1,7.726-10.01615,5.217,5.217,0,0,0,3.66868-6.40094,5.15986,5.15986,0,0,0-.19433-.57906,10.19431,10.19431,0,0,1-.15128-7.38691,10.55822,10.55822,0,0,1,6.427-6.33834,10.017,10.017,0,0,1,8.48242.82425,5.21716,5.21716,0,0,0,6.97479-1.74239,10.2989,10.2989,0,0,1,8.08594-4.78375,5.21646,5.21646,0,0,0,3.48478-8.73283,10.30357,10.30357,0,0,1-2.60837-8.94671,10.56384,10.56384,0,0,1,7.88249-8.20593,9.91239,9.91239,0,0,1,7.49125,1.11116,5.21713,5.21713,0,0,0,6.97478-1.74239,10.43342,10.43342,0,0,1,19.22369,5.55061,5.21674,5.21674,0,1,0,10.43348,0,10.40214,10.40214,0,0,1,20.17837-3.563,5.217,5.217,0,0,0,3.876,3.31263,5.15887,5.15887,0,0,0,4.84636-1.565,10.43467,10.43467,0,0,1,8.52415-3.33872,10.91377,10.91377,0,0,1,8.71718,6.71917,9.07761,9.07761,0,0,1,.13043,7.20953,5.21638,5.21638,0,0,0,4.90374,7.00087c.22953,0,.75643-.073.986-.09912a10.43311,10.43311,0,0,1,10.43349,10.43348,5.217,5.217,0,0,0,5.21674,5.21675,10.4331,10.4331,0,0,1,10.43348,10.28741c0,.13042-.07825.68339-.08867.81381a5.21718,5.21718,0,0,0,6.99043,5.21674,10.23635,10.23635,0,0,1,3.53172-.673,10.43311,10.43311,0,0,1,10.43349,10.28741c0,.13042-.07825.68339-.08868.81381a5.21619,5.21619,0,0,0,6.9852,5.21674,9.35415,9.35415,0,0,1,8.48242.76686,10.58,10.58,0,0,1,5.36281,7.37126,10.34647,10.34647,0,0,1-1.16333,6.55223l-.12519-.07825a29.09479,29.09479,0,0,0-3.38045-2.01887c-.2817-.14607-.56341-.27649-.85031-.41213a28.8695,28.8695,0,0,0-3.43784-1.38766c-.10434-.0313-.19823-.07824-.30256-.10955a29.22584,29.22584,0,0,0-3.88126-.90771c-.31822-.05217-.63121-.09911-.94944-.14607a29.99793,29.99793,0,0,0-4.03775-.31822,29.44833,29.44833,0,0,0-24.51869,13.1827l-.06782.10956-.05739-.10434a29.46373,29.46373,0,0,0-24.55-13.18792h-.75643a29.32632,29.32632,0,0,1-48.64611,0h-1.6537a29.41459,29.41459,0,0,1-48.6409,0h-.866a34.97717,34.97717,0,0,1-54.46278.52167c-.52167.08869-1.00161.21911-1.50242.33909a28.9784,28.9784,0,0,0-3.65172,1.10074c-.48516.18258-.97553.35474-1.45025.56341a29.01454,29.01454,0,0,0-4.236,2.26406c-.10434.06782-.22432.12-.32866.1878l-.04695.02608a10.32112,10.32112,0,0,1-.94423-6.17141,10.5944,10.5944,0,0,1,5.39407-7.39733Zm180.65054,41.014-6.83915,45.803h-34.29487l2.478-49.71033a18.78028,18.78028,0,0,1,3.22916-9.55707,19.03641,19.03641,0,0,1,15.81716-8.55024h.75643a19.11149,19.11149,0,0,1,18.85332,22.01465Zm-88.98718-2.67619a19.06728,19.06728,0,0,1,18.794-19.3365c.08608-.0013.1715-.002.25758-.002h1.67457a19.21071,19.21071,0,0,1,19.062,20.06359l-2.3997,47.75405h-34.81653l-2.56141-48.19225Zm-46.309-10.79865a19.06265,19.06265,0,0,1,15.87977-8.5398h.866a19.20282,19.20282,0,0,1,19.08283,18.749l.03131.56862v.20345l2.551,48.29659h-34.24791l-7.30343-48.04619a18.81275,18.81275,0,0,1,3.16656-11.22643Zm-7.679,189.69636-44.27448-174.86a19.18192,19.18192,0,1,1,37.75878-6.59918l.61035,4.00124c.03652.6834.07825,1.36678.18259,2.18582l6.88088,44.85354V909.183h11.21077l1.11639,7.30344,7.679,50.08073h-21.16432Zm31.723,0-5.34716-35.06693L5399.5408,909.183h27.00707l3.057,57.38415Zm53.15337,0H5440.054l-3.04657-57.38415h27.31484Zm31.77,0H5471.8918l2.864-57.38415h27.03836Zm-17.93516-67.81763h-87.11958V846.5821h125.20179v52.16742Zm93.06667-106.55716-43.41371,174.37479h-21.16432l8.58154-57.38415h11.44554V836.14862l7.20432-51.64574a19.08286,19.08286,0,1,1,37.70137,5.93535q-.13889.88227-.36,1.74892Z" transform="translate(-20 1.5)"/><path d="M5351.64068,700.51334a20.5271,20.5271,0,0,0-1.565-7.82511,20.52707,20.52707,0,0,0,1.565-7.82511,20.80947,20.80947,0,0,0-37.25275-12.8071,20.86772,20.86772,0,1,0,.35474,41.73393,20.80969,20.80969,0,0,0,36.898-13.27661Zm-29.83976,5.21675-2.13365-2.97876-3.47435.49037a7.43512,7.43512,0,0,1-1.06943.09912,10.43348,10.43348,0,0,1,0-20.867,11.05637,11.05637,0,0,1,1.29376.15129l3.53695.44864,1.70066-3.13005a10.38657,10.38657,0,0,1,19.55234,4.91939,10.22805,10.22805,0,0,1-1.46069,5.21674l-1.5285,2.60837,1.5285,2.60837a10.22811,10.22811,0,0,1,1.46069,5.21675,10.43311,10.43311,0,0,1-10.43348,10.43348A10.31941,10.31941,0,0,1,5321.80092,705.73009Z" transform="translate(-20 1.5)"/><path d="M5607.261,695.2966a20.80947,20.80947,0,0,0-37.25275-12.8071,20.86772,20.86772,0,0,0,.35475,41.73393,20.80969,20.80969,0,0,0,36.898-13.27661,20.5271,20.5271,0,0,0-1.565-7.82511A20.52952,20.52952,0,0,0,5607.261,695.2966Zm-11.89417,10.43349a10.228,10.228,0,0,1,1.46069,5.21674,10.43311,10.43311,0,0,1-10.43349,10.43348,10.31862,10.31862,0,0,1-8.9728-5.21674l-2.13365-2.97876-3.47435.49037a7.51854,7.51854,0,0,1-1.07466.11477,10.43348,10.43348,0,0,1,0-20.867,11.0561,11.0561,0,0,1,1.29376.15128l3.537.44864,1.70066-3.13a10.38656,10.38656,0,0,1,19.55757,4.90373,10.22818,10.22818,0,0,1-1.46069,5.21675l-1.5285,2.60837Z" transform="translate(-20 1.5)"/><path class="cls-5" d="M776.66949,334.02019a2.9,2.9,0,0,1,1.40443,2.84184c-.13622,3.73593,2.42222,6.38527,5.62109,6.44111a5.81124,5.81124,0,0,0,5.904-5.70148,3.73839,3.73839,0,0,1,1.44116-3.33063,2.838,2.838,0,0,0,1.5615-2.42148c.04526-2.59248-3.86506-3.9447-5.32523-1.476-1.14158,1.92962-5.60916,1.89846-6.70954-.11711a2.838,2.838,0,0,0-2.42148-1.56151,2.90389,2.90389,0,0,0-2.952,2.85074A2.838,2.838,0,0,0,776.66949,334.02019Z" transform="translate(-20 1.5)"/><path class="cls-6" d="M763.741,336.69407a20.20164,20.20164,0,0,0,40.12647.70042,8.66848,8.66848,0,1,0-5.13088-16.55662,19.77911,19.77911,0,0,0-29.29-.51126,8.615,8.615,0,0,0-2.75472-.53837,8.6816,8.6816,0,0,0-2.95086,16.90583Zm14.50574-13.80188a8.43441,8.43441,0,0,1,5.7626,2.40208,8.43439,8.43439,0,0,1,5.84292-2.1995,8.71508,8.71508,0,0,1,8.5522,8.85607,8.47745,8.47745,0,0,1-3.02722,6.34974,11.60865,11.60865,0,0,1-23.1828-.40465,8.47749,8.47749,0,0,1-2.80377-6.45153A8.71509,8.71509,0,0,1,778.24676,322.89219Z" transform="translate(-20 1.5)"/><path class="cls-6" d="M811.93273,413.64384l20.25376.35353A17.59638,17.59638,0,0,0,849.902,396.69953l.40515-23.211a5.79427,5.79427,0,0,1,3.19505-5.07988,5.4171,5.4171,0,0,0,2.78264-4.84058,5.945,5.945,0,0,0-2.85492-5.15143,5.44734,5.44734,0,0,0-5.48076-.20344,17.44279,17.44279,0,0,0-9.24753,15.07276l-.40515,23.211a5.81124,5.81124,0,0,1-5.904,5.70147l-7.801-.13617A41.70967,41.70967,0,0,1,811.93273,413.64384Z" transform="translate(-20 1.5)"/><path class="cls-6" d="M762.77763,377.76519l11.90552.20781a20.17187,20.17187,0,0,1,11.13059-5.36645,2.90079,2.90079,0,0,1,.77264,5.7499,14.86829,14.86829,0,0,0-12.18406,11.50416,14.66143,14.66143,0,0,0,.08819,5.52261l-.1824-.00319c.01.08067.00237.16335.01354.244a14.74257,14.74257,0,0,0-12.10448,14.24973,2.90016,2.90016,0,0,0,2.85074,2.952l28.07316.49c15.617.2726,33.11486-14.26764,33.46691-34.43648a34.97464,34.97464,0,0,0-19.91191-31.97585,25.97379,25.97379,0,0,1-23.30492,13.80791,25.54728,25.54728,0,0,1-2.89705-.299l-.055,3.14974a2.90387,2.90387,0,0,1-2.952,2.85074l-14.5069-.25322a5.80364,5.80364,0,1,0-.20257,11.60552Z" transform="translate(-20 1.5)"/><g id="Ticket"><path d="M5207.925,869.19489a3.65324,3.65324,0,1,0-2.58228-1.07A3.67884,3.67884,0,0,0,5207.925,869.19489Z" transform="translate(-20 1.5)"/><path d="M5260.24409,864.35845a3.65785,3.65785,0,1,0,1.06716,2.58229A3.6855,3.6855,0,0,0,5260.24409,864.35845Z" transform="translate(-20 1.5)"/><path d="M5270.44484,857.81a3.65324,3.65324,0,1,0-2.58514-1.07A3.67884,3.67884,0,0,0,5270.44484,857.81Z" transform="translate(-20 1.5)"/><path d="M5336.04063,879.845h-10.19076l17.939-17.93905a10.95806,10.95806,0,0,0,0-15.49515l-16.27126-16.27126a3.65355,3.65355,0,0,0-5.16457,0,10.95673,10.95673,0,0,1-15.49515-15.49515,3.651,3.651,0,0,0,0-5.16457L5290.5881,793.21a10.95462,10.95462,0,0,0-15.49514,0l-60.3228,60.32137a3.65241,3.65241,0,0,0,5.166,5.16458l60.32137-60.32137a3.651,3.651,0,0,1,5.16457,0l13.94578,13.94435A18.26937,18.26937,0,0,0,5324.68,837.63107l13.94435,13.94435a3.65614,3.65614,0,0,1,0,5.16457L5315.5193,879.845h-16.01161l11.99979-11.99979a3.65355,3.65355,0,0,0,0-5.16457l-37.18921-37.18922a3.6527,3.6527,0,0,0-5.166,0L5214.7987,879.845h-43.84181A10.96887,10.96887,0,0,0,5160,890.80192v23.00946a3.65293,3.65293,0,0,0,3.6523,3.6523,10.95689,10.95689,0,0,1,0,21.91377,3.652,3.652,0,0,0-3.6523,3.6523v23.00946a10.96979,10.96979,0,0,0,10.95689,10.95688h165.08374a10.96978,10.96978,0,0,0,10.95689-10.95688V943.02975a3.652,3.652,0,0,0-3.65229-3.6523,10.95689,10.95689,0,1,1,0-21.91377,3.65293,3.65293,0,0,0,3.65229-3.6523V890.80192A10.96886,10.96886,0,0,0,5336.04063,879.845Zm-64.30607-46.60671,32.02463,32.02463L5289.17712,879.845h-14.46223l10.70721-10.70865a3.6519,3.6519,0,0,0-5.16457-5.16457l-15.87322,15.87179h-39.255Zm67.95837,77.28742a18.26429,18.26429,0,0,0,0,35.78964v19.72382a3.6566,3.6566,0,0,1-3.6523,3.65229H5170.95689a3.6566,3.6566,0,0,1-3.6523-3.65229V946.31539a18.26429,18.26429,0,0,0,0-35.78964V890.80192a3.65568,3.65568,0,0,1,3.6523-3.65229h165.08374a3.65568,3.65568,0,0,1,3.6523,3.65229Z" transform="translate(-20 1.5)"/><path d="M5238.00219,922.23734a3.651,3.651,0,1,0-2.58229,1.07A3.6839,3.6839,0,0,0,5238.00219,922.23734Z" transform="translate(-20 1.5)"/><path d="M5274.15991,922.23734a3.651,3.651,0,1,0-2.58229,1.07A3.68387,3.68387,0,0,0,5274.15991,922.23734Z" transform="translate(-20 1.5)"/><path d="M5256.08105,922.23734a3.651,3.651,0,1,0-2.58229,1.07A3.68387,3.68387,0,0,0,5256.08105,922.23734Z" transform="translate(-20 1.5)"/><path d="M5217.341,923.30735a3.65324,3.65324,0,1,0-2.58229-1.07A3.68135,3.68135,0,0,0,5217.341,923.30735Z" transform="translate(-20 1.5)"/><path d="M5292.23877,922.23734a3.651,3.651,0,1,0-2.58229,1.07A3.68387,3.68387,0,0,0,5292.23877,922.23734Z" transform="translate(-20 1.5)"/><path d="M5217.341,940.83837h72.31544a3.6523,3.6523,0,1,0,0-7.30459H5217.341a3.6523,3.6523,0,1,0,0,7.30459Z" transform="translate(-20 1.5)"/><path d="M5230.60629,951.0648a3.65324,3.65324,0,1,0,2.58228,1.07A3.68136,3.68136,0,0,0,5230.60629,951.0648Z" transform="translate(-20 1.5)"/><path d="M5309.01365,898.47174H5197.98387a3.652,3.652,0,0,0-3.65229,3.6523v52.593a3.65293,3.65293,0,0,0,3.65229,3.6523H5213.198a3.6523,3.6523,0,1,0,0-7.30459h-11.56179V905.77633h103.72518V951.0648h-59.29273a3.6523,3.6523,0,0,0,0,7.30459h62.945a3.65293,3.65293,0,0,0,3.65229-3.6523V902.124A3.652,3.652,0,0,0,5309.01365,898.47174Z" transform="translate(-20 1.5)"/></g><g id="Clapperboard"><path d="M5095.41008,379.30964l14.912,76.71569a26.0798,26.0798,0,0,0,30.54237,20.6011l184.11765-35.78884a26.07323,26.07323,0,0,0,20.6011-30.54239l-14.912-76.71569Z" transform="translate(-20 1.5)"/><polygon points="5163.283 239.477 5126.772 256.001 5168.011 296.953 5207.635 279.464 5163.283 239.477"/><polygon points="5116.626 260.595 5077.274 278.392 5118.09 318.97 5157.773 301.459 5116.626 260.595"/><path d="M5311.36467,235.129l-15.123-31.32639a15.73945,15.73945,0,0,0-20.52345-7.66618l-32.782,14.84314,41.95433,41.73669,23.88326-10.54434a5.19351,5.19351,0,0,0,2.78739-2.97254A5.25347,5.25347,0,0,0,5311.36467,235.129Z" transform="translate(-20 1.5)"/><polygon points="5212.78 217.076 5173.645 234.788 5218.078 274.865 5254.652 258.722 5212.78 217.076"/><polygon points="5117.013 319.657 5108.598 363.743 5148.726 355.943 5157.141 311.857 5117.013 319.657"/><polygon points="5168.157 309.716 5159.742 353.802 5199.869 346.002 5208.285 301.916 5168.157 309.716"/><path d="M5315.61782,283.44018l-25.17282,4.8931-8.41281,44.09607,46.65321-9.06846-6.959-35.80082A5.19908,5.19908,0,0,0,5315.61782,283.44018Z" transform="translate(-20 1.5)"/><polygon points="5219.301 299.775 5210.886 343.861 5251.003 336.063 5259.428 291.975 5219.301 299.775"/><path d="M5087.12922,281.497l-7.95289,3.59446a15.62251,15.62251,0,0,0-7.85417,20.92074l16.76705,35.63489,5.33254,27.43353,24.16016-4.69626,7.89524-41.35227,2.38634-1.04753Z" transform="translate(-20 1.5)"/></g><g id="movie-film"><path d="M180.86937,950.60367H261.1389a51.56363,51.56363,0,0,0,36.90391-15.45585c14.84529-15.01133,27.2942-24.31631,50.07833-24.31631H368v30.2494H348.12114c-11.61157,0-17.06824,3.467-28.925,15.45586a81.11759,81.11759,0,0,1-58.05719,24.31631H180.86937Z" transform="translate(-20 1.5)"/><circle class="cls-7" cx="156.83518" cy="856.33517" r="126.01726"/><path class="cls-8" d="M196.10747,974.4292a126.0362,126.0362,0,0,1-49.41379-241.97409,126.036,126.036,0,1,0,79.55593,238.33627A126.28567,126.28567,0,0,1,196.10747,974.4292Z" transform="translate(-20 1.5)"/><circle class="cls-4" cx="225.4872" cy="834.78305" r="30.97595"/><circle class="cls-4" cx="200.36339" cy="913.48844" r="30.97595"/><circle class="cls-4" cx="113.31338" cy="913.48844" r="30.97595"/><circle class="cls-4" cx="88.18317" cy="834.78305" r="30.97595"/><circle class="cls-4" cx="156.83518" cy="784.4905" r="30.97595"/><circle class="cls-4" cx="156.83518" cy="856.33518" r="18.10892"/><path d="M215.30715,840.25811a30.97594,30.97594,0,0,0,33.5044,23.8191,73.24886,73.24886,0,0,0,.58328-9.242,72.2915,72.2915,0,0,0-18.78728-48.71679A30.98361,30.98361,0,0,0,215.30715,840.25811Z" transform="translate(-20 1.5)"/><path d="M240.94359,888.84063a30.97646,30.97646,0,0,0-48.37119,36.83645A72.676,72.676,0,0,0,240.94359,888.84063Z" transform="translate(-20 1.5)"/><path d="M152.07818,887.34643a30.98186,30.98186,0,0,0-39.34948,1.49483,72.67852,72.67852,0,0,0,48.37182,36.8371A30.984,30.984,0,0,0,152.07818,887.34643Z" transform="translate(-20 1.5)"/><path d="M123.06473,806.11839a72.2915,72.2915,0,0,0-18.78728,48.71679,73.24886,73.24886,0,0,0,.58328,9.242,30.97238,30.97238,0,0,0,18.204-57.95882Z" transform="translate(-20 1.5)"/><path d="M176.83582,782.27616a72.27572,72.27572,0,0,0-30.401,6.66221,30.97682,30.97682,0,0,0,60.802,0A72.27356,72.27356,0,0,0,176.83582,782.27616Z" transform="translate(-20 1.5)"/><path d="M199.76008,854.83518a22.92459,22.92459,0,1,0-22.9249,22.92426A22.95064,22.95064,0,0,0,199.76008,854.83518Zm-36.2127,0a13.28876,13.28876,0,1,1,13.28844,13.28844A13.30333,13.30333,0,0,1,163.54738,854.83518Z" transform="translate(-20 1.5)"/><path class="cls-9" d="M280.365,825.22687a35.61911,35.61911,0,0,0-34.84891-27.74346,35.80667,35.80667,0,0,0-34.07419,46.86285c5.60741,17.38751,24.32724,27.922,42.10469,23.81525A35.8356,35.8356,0,0,0,280.365,825.22687Zm-35.94162,34.195a26.05448,26.05448,0,0,1-13.96489-4.683c-14.28735-9.99555-14.62395-31.77059-.78049-42.29162a67.57457,67.57457,0,0,1,14.8989,42.388C244.57692,856.36277,244.52553,857.89616,244.4234,859.42184Zm9.71869-1.45373c.04175-1.04453.07065-2.08968.07065-3.13293a77.18774,77.18774,0,0,0-15.7231-46.753c.36744-.1015.73682-.19914,1.11069-.28522a26.30633,26.30633,0,0,1,5.91639-.67836,26.16153,26.16153,0,0,1,8.62537,50.84952Z" transform="translate(-20 1.5)"/><path class="cls-9" d="M184.64469,909.75422l-.00579.09186a35.78276,35.78276,0,0,0,35.74762,37.94266,36.125,36.125,0,0,0,35.4457-30.99458c2.59782-19.18621-11.15507-37.47884-30.32136-40.21863-.14068-.01992-.28073-.04176-.42141-.06038C204.80346,873.80362,185.9526,889.36675,184.64469,909.75422Zm9.684.31349a26.09745,26.09745,0,0,1,40.35482-19.97055,67.62345,67.62345,0,0,1-39.23514,29.88645A25.61869,25.61869,0,0,1,194.32868,910.06771Zm51.95507,5.43268a26.4095,26.4095,0,0,1-25.89915,22.65188,25.96818,25.96818,0,0,1-20.20567-9.533,77.22479,77.22479,0,0,0,41.57472-31.67358A25.96757,25.96757,0,0,1,246.28375,915.50039Z" transform="translate(-20 1.5)"/><path class="cls-9" d="M111.62444,940.46871a35.47556,35.47556,0,0,0,21.66325,7.31938c20.31424,0,36.999-17.64448,35.74441-37.94971l-.0045-.07708a35.75719,35.75719,0,0,0-40.86681-33.18577,35.78816,35.78816,0,0,0-16.53635,63.89318Zm17.81535-54.34409c.05846-.00835.11691-.01735.176-.0257,15.75071-2.179,30.42414,11.04008,29.83315,26.9077-.00128.0257-.00193.05139-.00257.07709a25.94744,25.94744,0,0,1-1.22374,6.90053,67.62011,67.62011,0,0,1-39.2345-29.88645A26.11078,26.11078,0,0,1,129.43979,886.12462Zm-17.52114,10.82165a77.22823,77.22823,0,0,0,41.57408,31.67294,26.15093,26.15093,0,0,1-41.57408-31.67294Z" transform="translate(-20 1.5)"/><path class="cls-9" d="M137.95207,813.5277a36.0934,36.0934,0,0,0-29.79716-16.04428,35.801,35.801,0,0,0-30.33228,54.76486,36.13871,36.13871,0,0,0,30.39009,16.83827,35.596,35.596,0,0,0,34.03308-24.79489A36.22686,36.22686,0,0,0,137.95207,813.5277Zm-3.6507,21.09731a26.35563,26.35563,0,0,1-25.05377,24.79745c-.10214-1.52631-.15289-3.059-.15289-4.58729a67.57626,67.57626,0,0,1,14.89441-42.38284c.11756.08929.23576.1773.35139.26788A26.60478,26.60478,0,0,1,134.30137,834.625ZM85.99572,847.14322a26.16494,26.16494,0,0,1,22.15854-40.02463,26.34173,26.34173,0,0,1,7.0258.96423,77.1964,77.1964,0,0,0-15.72117,46.75236c0,1.04388.02827,2.089.07,3.13421A25.96006,25.96006,0,0,1,85.99572,847.14322Z" transform="translate(-20 1.5)"/><path class="cls-9" d="M141.73509,789.93086a35.72213,35.72213,0,1,0-.69441-6.93652A35.24583,35.24583,0,0,0,141.73509,789.93086Zm59.18835,3.26268c-6.46563,15.21175-26.2711,20.68618-39.60965,10.841a26.35847,26.35847,0,0,1-8.56753-10.84415l-.02248-.05268c-.03084-.07194-.57109-1.40426-.54411-1.41453a67.977,67.977,0,0,1,49.31164,0C201.49774,791.72569,200.93244,793.173,200.92344,793.19354Zm-24.08826-36.35916a26.18711,26.18711,0,0,1,26.13427,25.15591,77.61656,77.61656,0,0,0-52.2679,0A26.187,26.187,0,0,1,176.83518,756.83438Z" transform="translate(-20 1.5)"/><path class="cls-9" d="M196,985c57-13,55-20,73-33,22.25617-23.46644,38.67167-62.34544,38.67167-97.16351a130.50185,130.50185,0,0,0-47.49977-100.865,4.81811,4.81811,0,1,0-6.18012,7.393,121.20873,121.20873,0,0,1-73.26241,214.60322c-1.29313.04111-2.59011.06873-3.89352.06873A121.20065,121.20065,0,1,1,238.48938,750.476a4.81885,4.81885,0,1,0,5.02827-8.22062A130.68831,130.68831,0,0,0,176.83646,724C104.69307,723.99936,46,782.69179,46,854.83518,46,926.97792,104.69307,985.671,176.83582,985.671q1.71133,0,3.413-.04432a4.82675,4.82675,0,0,0,.62055.04432" transform="translate(-20 1.5)"/><g id="test"><path d="M5364,893.612" transform="translate(-20 1.5)"/><path d="M5250,642c-303.18064-36.19848-1660.39733,102.35982-2435,154-30,2-271,17-271,17L330,943c-6.29679,0-44.17749,30.70741-53,30-1.043-.08363-4.76508-12.18924-3.95025-12.84564L308,932c0-7.05843,20.94157-20,28-20L2618,785c371.91943-20.796,2359.40354-195,2708-195" transform="translate(-20 1.5)"/><path d="M4028,876" transform="translate(-20 1.5)"/></g></g><path id="projo1" class="cls-10" d="M5538.21634,273a10.13879,10.13879,0,0,1-7.211-3.05085l-38.08722-38.11695a49.09038,49.09038,0,0,1-55.283-55.32806l-38.08723-38.11828a10.308,10.308,0,0,1,7.57048-17.59214l59.35941,1.65553,49.74342-49.78265a23.18022,23.18022,0,0,1,18.257-6.75354V2.65522A2.6551,2.6551,0,0,1,5537.13125,0h17.44116a2.65511,2.65511,0,0,1,2.65306,2.65522V80.704l16.85483,16.86859,10.67456-10.68326a36.20047,36.20047,0,0,0,0-51.10494A36.93933,36.93933,0,0,1,5573.87734,9.5017V2.65522a2.65306,2.65306,0,1,1,5.30611,0V9.503a31.66743,31.66743,0,0,0,9.32283,22.52818,41.51764,41.51764,0,0,1,0,58.61389l-10.67456,10.68326,18.83933,18.85469a23.34682,23.34682,0,0,1,0,32.999l-49.74209,49.784,1.65417,59.40912a10.12764,10.12764,0,0,1-6.22142,9.75527A10.49474,10.49474,0,0,1,5538.21634,273ZM5406.812,126.09886a4.99831,4.99831,0,0,0-3.51131,8.53121l131.45745,131.56462a4.99382,4.99382,0,0,0,8.52294-3.67482l-.23081-8.26968c-.01591-.0146-.03051-.03053-.04644-.04647l-127.771-127.87121-8.26161-.231C5406.91807,126.10019,5406.86368,126.09886,5406.812,126.09886Zm16.13985.44873L5542.834,246.52749l-1.21111-43.50039-75.20478-75.2674Zm19.57688,54.85411a43.76209,43.76209,0,0,0,45.4972,45.53428Zm28.771-56.26669,72.947,73.00649,9.3215-9.32778-72.947-73.00781Zm13.07292-13.08357,72.947,73.00649,35.60131-35.63034a18.05613,18.05613,0,0,0,0-25.49007l-20.69248-20.708-.02389-.02389-.02388-.0239-14.95526-14.96745v33.931a9.86491,9.86491,0,0,1-9.84947,9.85749h-3.047a9.86491,9.86491,0,0,1-9.84946-9.85749V71.24476a17.91906,17.91906,0,0,0-14.50556,5.17634Zm61.48053,14.64086a6.07708,6.07708,0,0,0,6.06754-6.07248V5.31043h-12.13506V120.61982A6.07619,6.07619,0,0,0,5545.85316,126.6923Zm0-5.08607a2.65511,2.65511,0,0,1-2.65306-2.65521v-1.12714a2.65306,2.65306,0,1,1,5.30611,0V118.951A2.6551,2.6551,0,0,1,5545.85316,121.60623Z" transform="translate(-20 1.5)"/><path id="projo1-2" data-name="projo1" class="cls-10" d="M82.63829,272.13044a10.12764,10.12764,0,0,1-6.22142-9.75527L78.071,202.96605,28.329,153.18207a23.34682,23.34682,0,0,1,0-32.999l18.83933-18.85469L36.49372,90.64509a41.51764,41.51764,0,0,1,0-58.61389A31.66743,31.66743,0,0,0,45.81655,9.503V2.65522a2.65306,2.65306,0,1,1,5.30611,0V9.5017A36.93933,36.93933,0,0,1,40.24514,35.78435a36.20047,36.20047,0,0,0,0,51.10494L50.9197,97.57255,67.77453,80.704V2.65522A2.65511,2.65511,0,0,1,70.42759,0H87.86875a2.6551,2.6551,0,0,1,2.653,2.65522V65.91306a23.18022,23.18022,0,0,1,18.257,6.75354l49.74342,49.78265,59.35941-1.65553a10.308,10.308,0,0,1,7.57048,17.59214l-38.08723,38.11828a49.09038,49.09038,0,0,1-55.283,55.32806L93.99466,269.94915A10.13879,10.13879,0,0,1,86.78366,273,10.49474,10.49474,0,0,1,82.63829,272.13044ZM218.02887,126.10151l-8.26161.231L81.99622,254.20372c-.01593.01594-.03053.03187-.04644.04647l-.23081,8.26968a4.99382,4.99382,0,0,0,8.52294,3.67482L221.69936,134.63007a4.99831,4.99831,0,0,0-3.51131-8.53121C218.13632,126.09886,218.08193,126.10019,218.02887,126.10151Zm-59.447,1.65819L83.37713,203.0271,82.166,246.52749,202.0482,126.54759ZM136.97412,226.936a43.76209,43.76209,0,0,0,45.4972-45.53428Zm7.40467-111.13007-72.947,73.00781,9.3215,9.32778,72.947-73.00649ZM105.02607,76.4211a17.91906,17.91906,0,0,0-14.50556-5.17634v50.90049a9.86491,9.86491,0,0,1-9.84946,9.85749H77.624a9.86491,9.86491,0,0,1-9.84947-9.85749v-33.931L52.81929,103.1817l-.02388.0239-.02389.02389L32.079,123.93752a18.05613,18.05613,0,0,0,0,25.49007l35.60131,35.63034,72.947-73.00649ZM85.21436,120.61982V5.31043H73.0793V120.61982a6.06753,6.06753,0,1,0,12.13506,0Zm-8.72057-1.6688v-1.12714a2.65306,2.65306,0,1,1,5.30611,0V118.951a2.65306,2.65306,0,1,1-5.30611,0Z" transform="translate(-20 1.5)"/></g></svg>