<svg xmlns="http://www.w3.org/2000/svg" viewBox="0 0 5625 1023.30612"><defs><style>.cls-1{fill:#0e5705;}.cls-1,.cls-2{stroke:#000;stroke-miterlimit:10;stroke-width:5px;}.cls-2{fill:#fdf5e6;}.cls-3{fill:none;}</style></defs><title>logo_qui_a_dit</title><g id="icons"><g id="Banner2"><path class="cls-1" d="M4795.5,999.5s-2.56-10.94154-20.08631-28.41758Z" transform="translate(0 11.90184)"/><path class="cls-1" d="M4787.12315,529.26135c-38.21686-269.56522-1861.62634-251.21562-1986.01343-249.66371C1247.57627,288.29122,916.71953,97.8526,847.54658,26.48562l252.50942,370.369L837.73428,470.24223C876.0182,739.83232,2699.42775,721.472,2823.75606,719.92019c1540.0364-8.62607,1878.422,178.36779,1951.65789,251.16234l-250.2599-354.96339Z" transform="translate(0 11.90184)"/><path class="cls-1" d="M847.54658,26.48562,829.5,0S831.6488,10.11411,847.54658,26.48562Z" transform="translate(0 11.90184)"/></g><g id="speaker"><path class="cls-1" d="M633.08757,181.71073c-4.70922-9.42-15.75566-13.03064-24.74266-8.0851-8.96987,4.94553-12.42509,16.58351-7.69879,25.98426a361.78662,361.78662,0,0,1,0,321.5533c-4.72634,9.40076-1.27112,21.04,7.69879,25.98425,8.94791,4.94553,20.02732,1.358,24.74266-8.08512a401.81029,401.81029,0,0,0,0-357.35159Z" transform="translate(0 11.90184)"/><path class="cls-1" d="M568.13254,217.45385c-4.6909-9.42-15.73734-13.02935-24.74265-8.0851-8.96988,4.94553-12.42509,16.58351-7.69879,25.98426a281.36,281.36,0,0,1,.00123,250.06706c-4.72757,9.40076-1.27232,21.03874,7.69756,25.98427,8.94791,4.94553,20.02732,1.358,24.74265-8.08512a321.3784,321.3784,0,0,0,0-285.86537Z" transform="translate(0 11.90184)"/><path class="cls-1" d="M503.17879,253.15846c-4.70922-9.42-15.82657-13.01138-24.761-8.06585-8.95156,4.94553-12.40678,16.58351-7.68044,26.00352a200.93367,200.93367,0,0,1,0,178.58082c-4.72634,9.42-1.27112,21.058,7.68044,26.00352,9.00166,4.97506,20.08357,1.27329,24.761-8.06585a241.12172,241.12172,0,0,0,0-214.45616Z" transform="translate(0 11.90184)"/><path class="cls-1" d="M308.33333,206.3601c-80.87077,0-146.66666,69.09754-146.66666,154.02644S227.46256,514.413,308.33333,514.413,455,445.31543,455,360.38654,389.20412,206.3601,308.33333,206.3601Z" transform="translate(0 11.90184)"/><path class="cls-1" d="M417.1991,514.413c-30.53234,23.87411-67.96166,38.50661-108.86577,38.50661s-78.33345-14.6325-108.86577-38.50661A195.02687,195.02687,0,0,0,125,668.43942V770.82978c0,31.85009,24.67178,57.75991,55,57.75991H436.66667c30.32821,0,55-25.90982,55-57.75991V668.43942A195.02685,195.02685,0,0,0,417.1991,514.413Z" transform="translate(0 11.90184)"/></g><g id="loupe"><polygon class="cls-1" points="5299.434 644.747 5258.923 602.182 5311.587 546.846 5352.098 589.412 5299.434 644.747"/><path class="cls-1" d="M5292.60373,571.033c-77.91634,81.86867-206.25012,81.86867-284.16647,0s-77.91635-216.71222,0-298.58089,206.25013-81.86868,284.16647,0S5371.66625,489.16424,5292.60373,571.033ZM5041.66606,307.3664c-60.72884,63.80933-60.72884,166.146,0,229.95538s158.12509,63.80932,218.854,0,60.72883-166.146,0-229.95537S5101.24979,243.55707,5041.66606,307.3664Z" transform="translate(0 11.90184)"/><path class="cls-1" d="M5359.06243,567.42106c60.72884,44.54679,106.56258,79.46114,120.31258,95.113,27.5,28.895,27.5,75.84929,0,104.74423s-72.18756,28.89493-99.68755,0c-13.75-14.44747-48.125-62.60614-90.52124-126.41546Z" transform="translate(0 11.90184)"/><path class="cls-1" d="M5312.0836,674.574c-6.875-10.83562-14.89621-21.67124-21.77121-32.50682l69.89625-73.44176c11.45869,8.42809,21.77121,15.65182,30.93751,22.87555Z" transform="translate(0 11.90184)"/><path class="cls-1" d="M5301.77112,654.10594l69.89621-73.44173a19.58622,19.58622,0,0,0,0-26.48743,17.37072,17.37072,0,0,0-25.20871,0l-69.89622,73.44286a19.58622,19.58622,0,0,0,0,26.48743C5283.4374,662.534,5294.89609,662.534,5301.77112,654.10594Z" transform="translate(0 11.90184)"/></g></g><g id="Texte"><path class="cls-2" d="M1690.24681,666.34879a32.97445,32.97445,0,0,1-22.54681-16.252c-1.13842-2.037,2.35807,3.74435-.095-.837q-9.02417-16.459-14.71826-29.01465-27.53979,22.31689-64.56885,21.02051-65.05079-2.272-110.14648-75.09668-39.41382-64.0752-39.40625-133.42579,0-66.01756,37.50683-118.86523,41.77222-59.33788,104.92481-57.13574,63.137,2.20458,97.80273,75.14062,27.06226,56.99854,27.062,128.24414a372.49645,372.49645,0,0,1-5.22265,63.46778,230.43723,230.43723,0,0,1-15.956,53.98954,2.92329,2.92329,0,0,0,.25855,2.827C1717.58506,627.971,1724.61409,641.1792,1763.5,680.5ZM1585.94434,602.708q20.6099.71955,36.263-11.68012a13.68154,13.68154,0,0,0,2.55679-18.67146,556.094,556.094,0,0,0-41.19384-51.43163,422.30571,422.30571,0,0,0-56.97265-52.81445l67.71126,2.36463a35.74919,35.74919,0,0,1,28.81859,16.3877l27.38567,42.57482q5.21925-22.13966,7.834-41.76367a296.89874,296.89874,0,0,0,2.61084-39.09668q0-38.47413-19.46533-88.55469-23.26758-60.18311-55.07373-61.29785-43.686-1.52637-62.19532,54.82812-11.87256,36.167-11.86914,92.21,0,50.833,14.24317,94.54785Q1546.53857,601.33446,1585.94434,602.708Z" transform="translate(0 11.90184)"/><path class="cls-2" d="M1789.61475,449.74512q0-17.10058-1.42432-38.52442-1.42457-21.4248-3.32324-37.6416l80.71142,22.29395Q1857.5,438.81934,1853.709,472.88379a636.4155,636.4155,0,0,0-3.79785,70.6416v8.54981q0,23.2793,4.273,34.82519,6.64233,18.28857,24.688,18.91211,38.45655,1.3418,53.64941-51.80176,9.01247-31.98194,9.02051-83.75976,0-38.94288-2.37353-74.65821-2.38112-35.70849-7.12207-72.92382l77.38818-12.02247q-9.0249,52.41064-13.53125,97.61524-4.51831,45.208-4.51025,93.17969,0,83.60742-28.01172,116.34668-23.74586,27.67089-69.31641,26.0791-42.72949-1.49268-74.53955-23.02735-36.564-24.54492-36.55713-64.92675,0-17.56788,3.32324-53.084Q1789.60791,467.31983,1789.61475,449.74512Z" transform="translate(0 11.90184)"/><path class="cls-2" d="M2114.83252,402.20215l8.0708,160.35644-49.85107-1.74023q0-19.94971-1.42432-60.375-1.42457-40.418-1.42432-60.84961a167.70728,167.70728,0,0,1,1.187-18.24609q1.17919-10.64649,2.61132-20.57129Zm4.273-36.42578q0,12.8247-5.22266,19.76758-5.2295,6.94189-17.09179,6.52832a26.91727,26.91727,0,0,1-16.8545-6.52637,19.60913,19.60913,0,0,1-7.35888-15.69434q0-10.44286,8.5459-19.88965,8.54589-9.43066,18.99072-9.07324a16.62585,16.62585,0,0,1,14.00586,7.85059A30.20611,30.20611,0,0,1,2119.10547,365.77637Z" transform="translate(0 11.90184)"/><path class="cls-2" d="M2445.74512,475.9834a68.43,68.43,0,0,1,15.90478,2.45508,97.22234,97.22234,0,0,1,15.43018,5.76367v-21.375a199.39769,199.39769,0,0,0-7.12158-53.44824q-5.23023-14.43311-11.86914-22.502-6.65479-8.06982-15.19288-8.36816-4.75122-.167-18.51611,13.12793a157.01562,157.01562,0,0,0-11.63183,13.60644,107.74641,107.74641,0,0,0-8.78321,13.23145l-52.70019-2.31543q13.76513-35.14454,40.356-56.06641,27.52954-20.88133,52.2251-20.02636a85.969,85.969,0,0,1,51.27539,18.89062q24.21313,17.94581,28.48633,48.01953V406.502q5.2185,25.36524,6.647,58.18262,1.42383,15.25635,2.13623,37.83691.71191,22.59083.71192,50.61231V599.209l-.47461,38.458-61.72022,3.54492v-5.70019a65.10464,65.10464,0,0,1-33.23437,7.38965q-29.91065-1.04444-49.85059-30.24121v.47558a93.23308,93.23308,0,0,1-16.61767-53.78027,118.36414,118.36414,0,0,1,4.51074-34.043,86.96692,86.96692,0,0,1,12.10693-25.70215,63.68289,63.68289,0,0,1,24.4502-18.14648Q2426.75048,475.32325,2445.74512,475.9834Zm1.89892,40.916q-12.81812-.44823-18.99072,10.499-6.17578,10.95117-6.17236,26.14746a67.39035,67.39035,0,0,0,6.647,30.15723q5.69751,14.92676,15.668,15.27148a39.06514,39.06514,0,0,0,10.44433-1.05957q5.21925-1.24365,13.76856-7.12012.468-17.55029.94971-32.02929.46728-14.46681.9497-32.0293a53.46545,53.46545,0,0,0-11.39453-7.28516A31.75293,31.75293,0,0,0,2447.644,516.89941Z" transform="translate(0 11.90184)"/><path class="cls-2" d="M2908.168,654.58105q-12.35157,9.54346-18.042,12.66993a39.69986,39.69986,0,0,1-20.88965,5.44629q-52.23341-1.8252-74.06445-21.11231-24.21313-21.2622-24.21338-73.04492,0-46.5454,21.36474-72.40332,23.2566-28.63476,68.8418-27.04688,17.55908.61377,30.86035,6.30274,18.03809,7.75488,20.415,22.56347l1.42383-57.90039a451.95279,451.95279,0,0,0-4.03516-61.8916q-4.03857-29.10791-12.581-65.03906l78.33691,4.63574q-5.2295,57.29591-8.30762,103.02246-3.09521,45.73681-3.08593,93.2295,0,23.75684,1.42382,55.625,3.315,74.69384,3.32325,93.69043l-63.14551-.30469Zm-7.59668-112.36523a42.73947,42.73947,0,0,0-15.668-12.42187,51.98927,51.98927,0,0,0-19.94043-4.4961,60.216,60.216,0,0,0-18.51562,2.20313q-9.02492,2.53564-14.95508,22.99023-5.94288,20.45508-5.93555,34.70508,0,15.208,14.71875,30.43945,14.71,15.24171,29.91016,15.76953a66.73483,66.73483,0,0,0,14.95508-1.14062,93.45086,93.45086,0,0,0,15.43066-4.44824Z" transform="translate(0 11.90184)"/><path class="cls-2" d="M3088.57617,436.20605l8.07129,160.35743-49.85156-1.74121q0-19.94971-1.42383-60.375-1.42528-40.41651-1.4248-60.84961a167.95578,167.95578,0,0,1,1.18652-18.2461q1.18067-10.64647,2.61133-20.57129Zm4.27246-36.4248q0,12.8247-5.22265,19.7666-5.22949,6.94337-17.0918,6.52832a26.91009,26.91009,0,0,1-16.85352-6.52637,19.60676,19.60676,0,0,1-7.35937-15.69433q0-10.44141,8.5459-19.88867,8.54443-9.43066,18.99023-9.07422a16.629,16.629,0,0,1,14.00586,7.85156A30.20771,30.20771,0,0,1,3092.84863,399.78125Z" transform="translate(0 11.90184)"/><path class="cls-2" d="M3162.6377,364.69336l38.457,1.34277-1.89942-58.0166,48.42578,1.69141-3.79687,57.81738,66.46777,2.32129V423.999l-70.2666-5.77832,4.27344,146.92383q.94482,18.09082,2.373,35.708,2.3701,15.29,7.59667,15.46484,9.96974.34863,16.14258-32.68554,4.74024-36.88477,5.69727-43.502l56.02344,19.53223q-13.29786,50.83593-36.55762,74.72266-19.47363,19.749-44.62891,18.86621-19.47216-.6797-33.23437-9.23535-16.62451-10.07667-16.61621-28.6045V414.01074l-40.83106-.001Z" transform="translate(0 11.90184)"/><path class="cls-2" d="M3435.15625,685.335q0,17.57813-18.51562,16.92774-13.7754-.48048-21.12793-6.67579-7.36671-6.19043-7.3584-19.96875a38.6384,38.6384,0,0,1,3.55957-17.21289q3.5625-7.23486,12.583-6.92382Q3435.15235,652.55958,3435.15625,685.335Z" transform="translate(0 11.90184)"/><path class="cls-2" d="M3542.92383,689.09766q0,17.57813-18.5166,16.92871-13.7754-.48194-21.127-6.67578-7.3667-6.19044-7.35937-19.96875a38.64268,38.64268,0,0,1,3.56055-17.21387q3.5625-7.2334,12.582-6.92285Q3542.91895,656.32178,3542.92383,689.09766Z" transform="translate(0 11.90184)"/><path class="cls-2" d="M3650.69141,692.86133q0,17.57813-18.51661,16.92773-13.77538-.48046-21.12792-6.6748-7.36671-6.19044-7.3584-19.96973a38.628,38.628,0,0,1,3.56054-17.21289q3.561-7.23486,12.582-6.92383Q3650.68653,660.08593,3650.69141,692.86133Z" transform="translate(0 11.90184)"/><path class="cls-2" d="M3973.5293,641.43555q4.74022-17.88135,7.5957-34.88477A211.71168,211.71168,0,0,0,3983.97363,571.5q0-13.771-4.748-33.89062-10.44727-44.061-10.44434-56.415l121.542,4.24414q0-50.3423-9.9707-80.14746-16.1455-47.58985-57.44727-49.03125-35.14012-1.22754-47.47656,31.11718-7.60107,20.16211-7.59766,63.38379l-53.17382-6.60644q0-46.54687,28.72461-78.084,28.71972-31.52783,75.72461-29.89355,65.98681,2.30419,102.55078,58.68164,31.80323,49.09276,31.80957,118.91015,0,21.854-6.17188,33.98536-8.54443,16.333-28.01074,15.64648a254.47623,254.47623,0,0,1-35.13281-4.07715q-4.752-.63281-59.34668-12.99707,0,9.97413-1.42383,29.875-1.4253,19.8999-1.42481,30.34961a74.14962,74.14962,0,0,0,9.96973,37.39844Zm.94922,57.98242a84.12789,84.12789,0,0,1,11.86914-7.18555q7.58935-3.53027,13.76855-3.31933,8.5459.29881,11.63184,5.63183,3.08349,5.33936,3.08593,14.35742a27.18437,27.18437,0,0,1-6.17187,17.59668,18.86323,18.86323,0,0,1-16.14258,7.27442q-10.92773-.38234-14.48047-10.71875A72.38892,72.38892,0,0,1,3974.47852,699.418Z" transform="translate(0 11.90184)"/></g><g id="Ancrage"><rect class="cls-3" x="5624" y="1010.90184" width="1" height="1"/><rect class="cls-3" x="5624" y="11.90184" width="1" height="1"/><rect class="cls-3" y="1010.90184" width="1" height="1"/><rect class="cls-3" y="11.90184" width="1" height="1"/></g></svg>