<?xml version="1.0" encoding="UTF-8" standalone="no"?>
<!-- Created with Inkscape (http://www.inkscape.org/) -->

<svg
   xmlns:dc="http://purl.org/dc/elements/1.1/"
   xmlns:cc="http://creativecommons.org/ns#"
   xmlns:rdf="http://www.w3.org/1999/02/22-rdf-syntax-ns#"
   xmlns:svg="http://www.w3.org/2000/svg"
   xmlns="http://www.w3.org/2000/svg"
   xmlns:sodipodi="http://sodipodi.sourceforge.net/DTD/sodipodi-0.dtd"
   xmlns:inkscape="http://www.inkscape.org/namespaces/inkscape"
   width="140mm"
   height="24.888889mm"
   viewBox="0 0 140 24.888889"
   version="1.1"
   id="svg8"
   inkscape:version="0.92.4 (5da689c313, 2019-01-14)"
   sodipodi:docname="Horoscopedess3.svg">
  <defs
     id="defs2" />
  <sodipodi:namedview
     id="base"
     pagecolor="#ffffff"
     bordercolor="#666666"
     borderopacity="1.0"
     inkscape:pageopacity="0.0"
     inkscape:pageshadow="2"
     inkscape:zoom="2.8"
     inkscape:cx="206.7561"
     inkscape:cy="102.06001"
     inkscape:document-units="mm"
     inkscape:current-layer="layer1"
     showgrid="false"
     inkscape:window-width="1920"
     inkscape:window-height="1001"
     inkscape:window-x="-9"
     inkscape:window-y="-9"
     inkscape:window-maximized="1"
     fit-margin-top="0"
     fit-margin-left="0"
     fit-margin-right="0"
     fit-margin-bottom="0" />
  <metadata
     id="metadata5">
    <rdf:RDF>
      <cc:Work
         rdf:about="">
        <dc:format>image/svg+xml</dc:format>
        <dc:type
           rdf:resource="http://purl.org/dc/dcmitype/StillImage" />
        <dc:title></dc:title>
      </cc:Work>
    </rdf:RDF>
  </metadata>
  <g
     inkscape:label="Calque 1"
     inkscape:groupmode="layer"
     id="layer1"
     transform="translate(0,-272.11111)">
    <path
       style="fill:#191970;fill-opacity:1;stroke:none;stroke-width:0.24727266;stroke-opacity:1"
       id="path20"
       sodipodi:type="arc"
       sodipodi:cx="70"
       sodipodi:cy="297"
       sodipodi:rx="70"
       sodipodi:ry="24.888889"
       sodipodi:start="3.1415927"
       sodipodi:end="0"
       sodipodi:open="true"
       d="M 0,297 A 70,24.888889 0 0 1 70.000002,272.11111 70,24.888889 0 0 1 140,297"
       inkscape:export-xdpi="96"
       inkscape:export-ydpi="96" />
    <g
       id="flowRoot10"
       style="font-style:normal;font-weight:normal;font-size:42.66666794px;line-height:1.25;font-family:sans-serif;letter-spacing:0px;word-spacing:0px;fill:#ffc107;fill-opacity:1;stroke:none"
       transform="matrix(0.26352016,0,0,0.28152492,10.377062,251.39993)"
       aria-label="HOROSCOPE">
      <path
         inkscape:connector-curvature="0"
         id="path7118"
         style="font-style:normal;font-variant:normal;font-weight:normal;font-stretch:normal;font-family:'Bell MT';-inkscape-font-specification:'Bell MT';fill:#ffc107;fill-opacity:1"
         d="m 120.12175,140.01693 0.1875,-5.79167 q 0,-3.8125 -0.77084,-5 -0.75,-1.20833 -2.54166,-1.20833 -1.04167,0 -1.04167,-0.4375 0,-0.39584 0.625,-0.39584 l 6.0625,0.20834 5.14583,-0.10417 q 0.60417,0 0.60417,0.375 0,0.33333 -0.39583,0.33333 -1.58334,0 -2.45834,0.45834 -0.875,0.45833 -1.16666,1.5625 -0.27084,1.10416 -0.45834,6.3125 -0.16666,5.1875 -0.16666,7.54166 l -0.0625,5.125 q 0,2.39584 0.45833,3.125 0.45833,0.70834 1.35417,1.125 0.91666,0.39584 1.875,0.5 0.66666,0.0833 0.66666,0.39584 0,0.33333 -0.5625,0.33333 l -6.41666,-0.16667 -4.1875,0.14584 q -0.72917,0 -0.72917,-0.375 0,-0.3125 0.52083,-0.33334 1.66667,-0.10416 2.16667,-0.4375 0.52083,-0.33333 0.83333,-1.27083 0.3125,-0.9375 0.35417,-3.16667 l 0.10417,-7.5625 q -1.79167,-0.125 -3.64584,-0.125 -8.0625,0 -10.22916,0.29167 -0.16667,4 -0.16667,6.58333 0,2.89584 0.125,3.5625 0.125,0.66667 0.77083,1.25 0.66667,0.5625 1.8125,0.79167 0.70834,0.14583 0.70834,0.45833 0,0.375 -0.45834,0.375 -0.14583,0 -0.41666,-0.0417 -1.125,-0.125 -4.66667,-0.125 -3.85417,0 -4.729168,0.16666 -0.1875,0.0208 -0.375,0.0208 -0.479167,0 -0.479167,-0.3125 0,-0.35417 0.645833,-0.4375 1.604162,-0.1875 2.291662,-0.89584 0.6875,-0.70833 0.9375,-5.3125 0.27084,-4.60416 0.27084,-11.1875 0,-5.35416 -0.5,-6.75 -0.5,-1.39583 -2.437502,-1.54166 -0.4375,-0.0417 -0.4375,-0.33334 0,-0.41666 0.895832,-0.41666 l 8.39584,-0.125 q 0.89583,0 1.0625,0.0625 0.1875,0.0417 0.1875,0.33333 0,0.33333 -0.54167,0.39583 -2.0625,0.20834 -2.52083,0.75 -0.4375,0.54167 -0.4375,6.75 0,0.64584 0.0625,4.52084 2.125,0.16666 5,0.16666 3.70833,0 8.875,-0.16666 z" />
      <path
         inkscape:connector-curvature="0"
         id="path7120"
         style="font-style:normal;font-variant:normal;font-weight:normal;font-stretch:normal;font-family:'Bell MT';-inkscape-font-specification:'Bell MT';fill:#ffc107;fill-opacity:1"
         d="m 131.41341,140.49609 q 0,-2.8125 1.70834,-6.16666 1.70833,-3.375 4.97916,-5.5625 3.29167,-2.1875 7.41667,-2.1875 5.77083,0 9.52083,4.125 3.77084,4.125 3.77084,9.41666 0,5.625 -4.16667,10.10417 -4.16667,4.45833 -10.02083,4.45833 -5.60417,0 -9.41667,-3.91666 -3.79167,-3.91667 -3.79167,-10.27084 z m 4.64584,-0.66666 q 0,3.39583 1.04166,6.97916 1.04167,3.5625 3.27084,5.1875 2.22916,1.60417 4.77083,1.60417 4.10417,0 6.5625,-3.97917 2.47917,-4 2.47917,-9.25 0,-5.08333 -2.52084,-8.91666 -2.52083,-3.85417 -6.58333,-3.85417 -3.0625,0 -5.10417,2.0625 -2.04166,2.04167 -2.97916,4.89583 -0.9375,2.85417 -0.9375,5.27084 z" />
      <path
         inkscape:connector-curvature="0"
         id="path7122"
         style="font-style:normal;font-variant:normal;font-weight:normal;font-stretch:normal;font-family:'Bell MT';-inkscape-font-specification:'Bell MT';fill:#ffc107;fill-opacity:1"
         d="m 177.95508,140.35026 q 2.875,1.25 4,2.625 1.125,1.35417 1.66667,4.20833 0.70833,3.75 1.95833,5.04167 1.25,1.27083 3.27083,1.35417 0.5625,0.0417 0.5625,0.41666 0,0.375 -0.64583,0.375 -5.83333,0 -7.08333,-0.375 -1.22917,-0.39583 -1.83334,-4.27083 -0.5625,-3.77083 -1.1875,-5.5 -0.60416,-1.75 -1.95833,-2.66667 -1.33333,-0.9375 -4.1875,-0.9375 -1.08333,0 -2.45833,0.22917 -0.10417,1.3125 -0.10417,2.72917 0,5.35416 0.14583,6.9375 0.14584,1.5625 0.875,2.29166 0.75,0.70834 2.47917,0.75 0.75,0.0208 0.75,0.35417 0,0.39583 -0.91667,0.39583 h -10.3125 q -0.89583,0 -0.89583,-0.39583 0,-0.35417 0.70833,-0.35417 1.58333,0 2.1875,-0.47916 0.625,-0.47917 0.97917,-1.47917 0.35416,-1.02083 0.35416,-3.66667 l -0.0417,-4.25 0.0208,-6.47916 q 0,-4.95834 -0.22917,-6.5625 -0.20833,-1.60417 -0.77083,-2.14584 -0.5625,-0.5625 -2.60417,-0.875 -0.4375,-0.0625 -0.4375,-0.35416 0,-0.33334 0.875,-0.33334 l 12.33334,-0.27083 q 5.10417,0 7.39583,1.95833 2.3125,1.95834 2.3125,4.79167 0,1.79167 -0.9375,3.27083 -0.91666,1.47917 -2.1875,2.14584 -1.27083,0.66666 -4.08333,1.52083 z m -7.89583,-0.54167 q 4,-0.0833 6,-0.5625 2,-0.47916 3.39583,-2.10416 1.41667,-1.625 1.41667,-3.85417 0,-2.35417 -1.5625,-4.10417 -1.5625,-1.75 -5,-1.75 -1.875,0 -4.14584,0.5 -0.25,5.72917 -0.25,9.125 0,1.16667 0.14584,2.75 z" />
      <path
         inkscape:connector-curvature="0"
         id="path7124"
         style="font-style:normal;font-variant:normal;font-weight:normal;font-stretch:normal;font-family:'Bell MT';-inkscape-font-specification:'Bell MT';fill:#ffc107;fill-opacity:1"
         d="m 189.72592,140.49609 q 0,-2.8125 1.70833,-6.16666 1.70833,-3.375 4.97917,-5.5625 3.29166,-2.1875 7.41666,-2.1875 5.77084,0 9.52084,4.125 3.77083,4.125 3.77083,9.41666 0,5.625 -4.16667,10.10417 -4.16666,4.45833 -10.02083,4.45833 -5.60417,0 -9.41667,-3.91666 -3.79166,-3.91667 -3.79166,-10.27084 z m 4.64583,-0.66666 q 0,3.39583 1.04167,6.97916 1.04166,3.5625 3.27083,5.1875 2.22917,1.60417 4.77083,1.60417 4.10417,0 6.5625,-3.97917 2.47917,-4 2.47917,-9.25 0,-5.08333 -2.52083,-8.91666 -2.52084,-3.85417 -6.58334,-3.85417 -3.0625,0 -5.10416,2.0625 -2.04167,2.04167 -2.97917,4.89583 -0.9375,2.85417 -0.9375,5.27084 z" />
      <path
         inkscape:connector-curvature="0"
         id="path7126"
         style="font-style:normal;font-variant:normal;font-weight:normal;font-stretch:normal;font-family:'Bell MT';-inkscape-font-specification:'Bell MT';fill:#ffc107;fill-opacity:1"
         d="m 235.53841,128.51693 q 0.5625,-0.5625 0.75,-1.16667 0.16667,-0.5 0.47917,-0.5 0.16667,0 0.375,0.20833 0.14583,0.75 0.41667,3.02084 l 0.5,3.91666 q 0,0.375 -0.45834,0.375 -0.25,0 -0.4375,-0.41666 -1.10416,-2.72917 -3.27083,-4.54167 -2.16667,-1.79167 -4.72917,-1.79167 -2.52083,0 -3.8125,1.52084 -1.27083,1.52083 -1.27083,3.22916 0,2.08334 1.39583,3.1875 1.39584,1.10417 5.75,2.5 3.20834,1 4.79167,1.9375 1.60417,0.9375 2.6875,2.625 1.08333,1.6875 1.08333,3.625 0,3.29167 -2.72916,5.89584 -2.72917,2.60416 -6.6875,2.60416 -3.5625,0 -7.16667,-2.22916 -0.70833,0.58333 -0.91667,1.375 -0.16666,0.66666 -0.54166,0.66666 -0.33334,0 -0.47917,-0.85416 -0.14583,-0.85417 -0.60417,-8.08334 0.0833,-0.25 0.4375,-0.25 0.3125,0 0.5,0.45834 3.20834,8.0625 8.95834,8.0625 2.85416,0 4.45833,-1.70834 1.625,-1.72916 1.625,-3.95833 0,-1.54167 -0.875,-2.83333 -0.85417,-1.29167 -2.29167,-2.08334 -1.41666,-0.79166 -4.5,-1.77083 -3.95833,-1.27083 -5.39583,-2.39583 -1.41667,-1.14584 -2.08333,-2.5625 -0.66667,-1.4375 -0.66667,-2.77084 0,-2.77083 2.5,-4.91666 2.52083,-2.14584 6.16667,-2.14584 1.375,0 2.875,0.4375 1.52083,0.4375 3.16666,1.33334 z" />
      <path
         inkscape:connector-curvature="0"
         id="path7128"
         style="font-style:normal;font-variant:normal;font-weight:normal;font-stretch:normal;font-family:'Bell MT';-inkscape-font-specification:'Bell MT';fill:#ffc107;fill-opacity:1"
         d="m 264.41342,128.76693 q 1.14584,-1.02084 1.3125,-1.375 0.20834,-0.5 0.60417,-0.5 0.41667,0 0.45833,0.75 l 0.47917,7.27083 q 0,0.625 -0.0625,0.77083 -0.0417,0.125 -0.29167,0.125 -0.33333,0 -0.70833,-0.89583 -1.375,-3.3125 -3.83333,-5.4375 -2.47917,-2.10417 -5.375,-2.10417 -2.54167,0 -4.66667,1.64584 -2.125,1.625 -3.3125,4.66666 -1.16667,3.02084 -1.16667,6.5 0,5.91667 3.25,9.625 3.27084,3.6875 7.29167,3.6875 2.72917,0 5.02083,-1.72916 2.29167,-1.72917 3.45834,-4 0.3125,-0.625 0.64583,-0.625 0.45833,0 0.45833,0.5 0,0.60416 -1.58333,2.64583 -1.58333,2.04167 -4.16667,3.3125 -2.5625,1.27083 -5.52083,1.27083 -3.47917,0 -6.625,-1.77083 -3.125,-1.77083 -4.95833,-4.89583 -1.83334,-3.125 -1.83334,-7.33334 0,-4.125 1.77084,-7.4375 1.79166,-3.3125 5.02083,-5.14583 3.22917,-1.83333 6.66667,-1.83333 1.83333,0 3.75,0.58333 1.91666,0.5625 3.91666,1.72917 z" />
      <path
         inkscape:connector-curvature="0"
         id="path7130"
         style="font-style:normal;font-variant:normal;font-weight:normal;font-stretch:normal;font-family:'Bell MT';-inkscape-font-specification:'Bell MT';fill:#ffc107;fill-opacity:1"
         d="m 270.66342,140.49609 q 0,-2.8125 1.70833,-6.16666 1.70833,-3.375 4.97917,-5.5625 3.29166,-2.1875 7.41666,-2.1875 5.77084,0 9.52084,4.125 3.77083,4.125 3.77083,9.41666 0,5.625 -4.16667,10.10417 -4.16666,4.45833 -10.02083,4.45833 -5.60417,0 -9.41667,-3.91666 -3.79166,-3.91667 -3.79166,-10.27084 z m 4.64583,-0.66666 q 0,3.39583 1.04167,6.97916 1.04166,3.5625 3.27083,5.1875 2.22917,1.60417 4.77083,1.60417 4.10417,0 6.5625,-3.97917 2.47917,-4 2.47917,-9.25 0,-5.08333 -2.52083,-8.91666 -2.52084,-3.85417 -6.58334,-3.85417 -3.0625,0 -5.10416,2.0625 -2.04167,2.04167 -2.97917,4.89583 -0.9375,2.85417 -0.9375,5.27084 z" />
      <path
         inkscape:connector-curvature="0"
         id="path7132"
         style="font-style:normal;font-variant:normal;font-weight:normal;font-stretch:normal;font-family:'Bell MT';-inkscape-font-specification:'Bell MT';fill:#ffc107;fill-opacity:1"
         d="m 309.16341,141.12109 q 0,0.9375 -0.125,2.8125 -0.0625,0.91667 -0.0625,1.85417 0,0.70833 0.0625,3.0625 0.0833,2.33333 0.29167,2.91667 0.22917,0.58333 0.95833,1.125 0.75,0.54166 1.60417,0.58333 0.95833,0.0625 0.95833,0.4375 0,0.29167 -0.29166,0.35417 -0.29167,0.0417 -2.20834,0.0417 l -5.72917,-0.0208 q -2.41666,0 -2.58333,-0.0625 -0.14583,-0.0833 -0.14583,-0.29167 0,-0.33333 0.79166,-0.5 1.39584,-0.3125 1.9375,-0.97916 0.5625,-0.66667 0.6875,-2.85417 0.125,-2.20833 0.125,-5.08333 l -0.0625,-5.5625 0.0625,-6 q 0,-3.1875 -0.4375,-4.0625 -0.4375,-0.89584 -1.70833,-1.125 -1.375,-0.25 -1.375,-0.60417 0,-0.35417 0.625,-0.35417 l 4.125,0.0208 6.625,-0.0417 q 6.54167,0 8.79167,2.04167 2.27083,2.04166 2.27083,5.10416 0,3.64584 -2.95833,5.47917 -2.95833,1.83333 -8.89583,1.83333 -1.4375,0 -3.33334,-0.125 z m 0,-0.83333 q 3.0625,0.10417 3.47917,0.10417 2.125,0 4,-0.72917 1.875,-0.72917 2.72917,-2.625 0.875,-1.89583 0.875,-3.75 0,-2.35417 -1.60417,-3.97917 -1.58333,-1.64583 -5.72917,-1.64583 -2.14583,0 -3.75,0.45833 -0.0208,0.75 -0.0208,0.9375 l 0.0833,4.79167 -0.0833,5.10417 q 0,0.375 0.0208,1.33333 z" />
      <path
         inkscape:connector-curvature="0"
         id="path7134"
         style="font-style:normal;font-variant:normal;font-weight:normal;font-stretch:normal;font-family:'Bell MT';-inkscape-font-specification:'Bell MT';fill:#ffc107;fill-opacity:1"
         d="m 349.93425,127.28776 q 0.60416,2.33333 1.1875,6.54167 -0.10417,0.16666 -0.22917,0.16666 -0.14583,0 -0.3125,-0.16666 -1.4375,-2.3125 -2.75,-3.52084 -1.3125,-1.20833 -2.64583,-1.70833 -1.3125,-0.52083 -4.54167,-0.52083 -3.04167,0 -4.8125,0.35416 -0.16667,0.20834 -0.16667,0.77084 0,0.14583 -0.0417,0.52083 -0.20834,1.66667 -0.20834,9.04167 0,0.3125 0.0417,0.875 1.58333,0.0625 2.16667,0.0625 2.625,0 3.79166,-0.77084 1.1875,-0.79166 2.0625,-3.375 0.14584,-0.4375 0.41667,-0.4375 0.39583,0 0.39583,0.60417 l -0.0833,0.83333 q -0.16667,1.64584 -0.16667,3.39584 0,2.83333 0.10417,5.10416 0,0.70834 -0.39583,0.70834 -0.29167,0 -0.39584,-0.5 -0.4375,-2.45834 -1.83333,-3.54167 -1.39583,-1.08333 -6.0625,-1.08333 -0.0625,1.52083 -0.0625,4.91666 0,4.39584 0.3125,5.58334 0.3125,1.1875 1.5,1.89583 1.1875,0.6875 4.02083,0.6875 8.10417,0 10.45834,-5.58333 0.29166,-0.6875 0.60416,-0.6875 0.33334,0 0.33334,0.45833 0,0.25 -0.10417,0.54167 -0.125,0.39583 -0.60417,2.95833 -0.10416,0.54167 -0.79166,3.25 l -8.72917,-0.0208 q -1.875,0 -5.52083,-0.16667 -3.625,-0.14583 -6.43751,-0.16667 -2.79166,0 -2.91666,-0.10416 -0.125,-0.10417 -0.125,-0.22917 0,-0.41667 0.6875,-0.41667 2.3125,0 3.04166,-1.22916 0.72917,-1.22917 0.72917,-5.97917 l -0.0208,-4.27083 0.0625,-4 q 0,-1.20834 -0.14584,-4.5625 -0.125,-3.375 -0.25,-3.85417 -0.10416,-0.47917 -0.64583,-0.9375 -0.52083,-0.47917 -2.33333,-0.95833 -0.54167,-0.14584 -0.54167,-0.45834 0,-0.375 0.72917,-0.375 l 4.25,0.22917 q 2.25,0.10417 11.0625,0.10417 5.79167,0 5.91667,0.0208 z" />
    </g>
    <path
       inkscape:connector-curvature="0"
       style="fill:#ffc107;stroke-width:0.02492"
       d="m 29.466087,287.53468 c -0.0851,-0.25358 -0.318582,-0.43366 -0.594815,-0.45763 l -3.752147,-0.32817 -1.483701,-3.34505 C 23.526023,283.15869 23.276872,283 23.000049,283 c -0.276824,0 -0.525976,0.15869 -0.635376,0.4044 l -1.483701,3.34448 -3.752745,0.32817 c -0.275732,0.0246 -0.508617,0.20405 -0.594214,0.45763 -0.0856,0.25354 -0.0065,0.53166 0.202039,0.70697 l 2.83618,2.39587 -0.836323,3.54854 c -0.0612,0.26092 0.04394,0.53063 0.268691,0.68711 0.120806,0.084 0.262144,0.12683 0.404672,0.12683 0.122891,0 0.244788,-0.0319 0.354188,-0.0949 l 3.236589,-1.86326 3.2354,1.86326 c 0.236754,0.13719 0.535194,0.12463 0.759452,-0.0319 0.224851,-0.15698 0.329891,-0.42678 0.268693,-0.68712 l -0.836322,-3.54854 2.836177,-2.39539 c 0.208585,-0.1758 0.288235,-0.45341 0.202638,-0.70745 z m 0,0"
       id="path4547"
       inkscape:export-xdpi="96"
       inkscape:export-ydpi="96" />
    <path
       inkscape:connector-curvature="0"
       style="fill:#ffc107;stroke-width:0.02492002"
       d="m 123.46618,287.53468 c -0.0851,-0.25358 -0.31859,-0.43366 -0.59482,-0.45763 l -3.75214,-0.32816 -1.4837,-3.34506 C 117.52609,283.15869 117.27697,283 117.00014,283 c -0.27681,0 -0.52597,0.15869 -0.63537,0.4044 l -1.4837,3.34449 -3.75276,0.32816 c -0.27573,0.0246 -0.50862,0.20405 -0.59422,0.45763 -0.0856,0.25354 -0.007,0.53166 0.20204,0.70698 l 2.83618,2.39587 -0.83631,3.54853 c -0.0613,0.26092 0.044,0.53064 0.26869,0.68712 0.1208,0.084 0.26214,0.12682 0.40468,0.12682 0.12288,0 0.24478,-0.0319 0.35417,-0.0949 l 3.2366,-1.86326 3.23541,1.86326 c 0.23675,0.1372 0.53519,0.12464 0.75945,-0.0319 0.22485,-0.15697 0.32989,-0.42678 0.26869,-0.68711 l -0.83633,-3.54855 2.83618,-2.39539 c 0.2086,-0.17579 0.28824,-0.45342 0.20264,-0.70746 z m 0,0"
       id="path4547-1"
       inkscape:export-xdpi="96"
       inkscape:export-ydpi="96" />
    <path
       inkscape:connector-curvature="0"
       style="fill:#ffc107;stroke-width:0.0249199"
       d="m 99.966085,278.53468 c -0.08508,-0.25358 -0.31858,-0.43366 -0.594805,-0.45763 l -3.752106,-0.32817 -1.483695,-3.34505 C 94.026044,274.15869 93.776932,274 93.500106,274 c -0.27681,0 -0.525962,0.15869 -0.635365,0.4044 l -1.483686,3.34448 -3.752717,0.32817 c -0.275729,0.0246 -0.508616,0.20405 -0.594212,0.45763 -0.08556,0.25354 -0.0073,0.53166 0.202044,0.70697 l 2.836154,2.39587 -0.836313,3.54854 c -0.06118,0.26092 0.04396,0.53063 0.268685,0.68711 0.120802,0.084 0.262136,0.12683 0.404673,0.12683 0.12289,0 0.244781,-0.0319 0.354176,-0.0949 l 3.236561,-1.86326 3.235375,1.86326 c 0.236753,0.13719 0.5352,0.12463 0.759442,-0.0319 0.224857,-0.15698 0.329889,-0.42678 0.2687,-0.68712 l -0.83632,-3.54854 2.836153,-2.39539 c 0.208585,-0.1758 0.288224,-0.45341 0.202629,-0.70745 z m 0,0"
       id="path4547-1-6"
       inkscape:export-xdpi="96"
       inkscape:export-ydpi="96" />
    <path
       inkscape:connector-curvature="0"
       style="fill:#ffc107;stroke-width:0.0249199"
       d="m 52.966081,279.06385 c -0.08508,-0.25358 -0.31858,-0.43366 -0.594805,-0.45763 l -3.752107,-0.32817 -1.483694,-3.34505 c -0.109435,-0.24514 -0.358547,-0.40383 -0.635373,-0.40383 -0.27681,0 -0.525963,0.15869 -0.635366,0.4044 l -1.483686,3.34448 -3.752716,0.32817 c -0.275729,0.0246 -0.508616,0.20405 -0.594212,0.45763 -0.08556,0.25354 -0.0073,0.53166 0.202044,0.70697 l 2.836153,2.39587 -0.836312,3.54854 c -0.06118,0.26092 0.04396,0.53063 0.268685,0.68711 0.120802,0.084 0.262136,0.12683 0.404673,0.12683 0.12289,0 0.244781,-0.0319 0.354176,-0.0949 l 3.236561,-1.86326 3.235374,1.86326 c 0.236754,0.13719 0.535201,0.12463 0.759442,-0.0319 0.224859,-0.15698 0.32989,-0.42678 0.268701,-0.68712 l -0.83632,-3.54854 2.836153,-2.39539 c 0.208585,-0.1758 0.288226,-0.45341 0.202629,-0.70745 z m 0,0"
       id="path4547-1-6-5"
       inkscape:export-xdpi="96"
       inkscape:export-ydpi="96" />
    <path
       inkscape:connector-curvature="0"
       style="fill:#ffc107;stroke-width:0.0249199"
       d="m 76.466082,277.53468 c -0.08509,-0.25358 -0.318581,-0.43366 -0.594806,-0.45763 l -3.752106,-0.32817 -1.483695,-3.34505 C 70.52604,273.15869 70.276928,273 70.000102,273 c -0.27681,0 -0.525963,0.15869 -0.635365,0.4044 l -1.483687,3.34448 -3.752716,0.32817 c -0.275729,0.0246 -0.508616,0.20405 -0.594212,0.45763 -0.08556,0.25354 -0.0073,0.53166 0.202044,0.70697 l 2.836153,2.39587 -0.836311,3.54854 c -0.06118,0.26092 0.04396,0.53063 0.268685,0.68711 0.120802,0.084 0.262136,0.12683 0.404672,0.12683 0.122891,0 0.244781,-0.0319 0.354176,-0.0949 l 3.236561,-1.86326 3.235375,1.86326 c 0.236753,0.13719 0.5352,0.12463 0.759441,-0.0319 0.224859,-0.15698 0.329891,-0.42678 0.268701,-0.68712 l -0.83632,-3.54854 2.836154,-2.39539 c 0.208584,-0.1758 0.288225,-0.45341 0.202629,-0.70745 z m 0,0"
       id="path4547-1-6-2"
       inkscape:export-xdpi="96"
       inkscape:export-ydpi="96" />
    <g
       transform="matrix(0.01367188,0,0,0.01397365,19.5,286.17275)"
       id="g4691"
       inkscape:export-xdpi="96"
       inkscape:export-ydpi="96">
      <g
         id="g4689">
        <path
           inkscape:connector-curvature="0"
           d="m 511.976,416.063 c -0.005,-0.075 -0.004,-0.149 -0.011,-0.224 -0.027,-0.297 -0.07,-0.588 -0.131,-0.873 -0.006,-0.028 -0.015,-0.056 -0.022,-0.084 -0.059,-0.262 -0.132,-0.518 -0.218,-0.768 -0.023,-0.067 -0.048,-0.132 -0.073,-0.198 -0.084,-0.227 -0.179,-0.448 -0.284,-0.663 -0.018,-0.038 -0.03,-0.077 -0.049,-0.115 L 471.076,334.02 V 73.72 c 0,-8.006 -6.513,-14.519 -14.519,-14.519 H 55.441 c -8.006,0 -14.519,6.513 -14.519,14.519 V 334.018 L 0.811,413.137 c -0.019,0.038 -0.031,0.077 -0.049,0.115 -0.105,0.215 -0.199,0.436 -0.284,0.662 -0.025,0.066 -0.05,0.132 -0.073,0.199 -0.085,0.251 -0.159,0.508 -0.218,0.77 -0.006,0.027 -0.015,0.054 -0.021,0.081 -0.061,0.286 -0.104,0.577 -0.131,0.874 -0.007,0.074 -0.007,0.149 -0.011,0.223 C 0.014,416.217 0,416.371 0,416.529 v 19.026 c 0,9.509 7.735,17.244 17.244,17.244 h 477.512 c 9.509,0 17.244,-7.735 17.244,-17.244 v -19.026 c 0,-0.158 -0.014,-0.312 -0.024,-0.466 z M 55.923,74.203 H 456.077 V 328.312 H 55.923 Z M 53.029,343.311 H 458.97 l 33.318,65.717 h -164.78 l -8.271,-29.989 c -1.684,-6.105 -7.282,-10.369 -13.615,-10.369 h -99.246 c -6.333,0 -11.932,4.264 -13.615,10.368 l -8.271,29.99 H 19.711 Z m 258.919,65.718 H 200.052 l 6.993,-25.358 h 97.91 z M 497,435.554 c 0,1.237 -1.007,2.244 -2.244,2.244 H 17.244 c -1.237,0 -2.244,-1.007 -2.244,-2.244 v -11.526 h 482 z"
           id="path4687" />
      </g>
    </g>
    <g
       transform="matrix(0.01367188,0,0,0.01397365,19.5,286.17275)"
       id="g4697"
       inkscape:export-xdpi="96"
       inkscape:export-ydpi="96">
      <g
         id="g4695">
        <path
           inkscape:connector-curvature="0"
           d="m 432.577,213.756 c -4.143,0 -7.5,3.357 -7.5,7.5 v 76.055 H 86.923 v -76.055 c 0,-4.143 -3.357,-7.5 -7.5,-7.5 -4.143,0 -7.5,3.357 -7.5,7.5 v 79.294 c 0,6.485 5.275,11.761 11.761,11.761 h 344.633 c 6.485,0 11.761,-5.275 11.761,-11.761 v -79.294 c -10e-4,-4.141 -3.358,-7.5 -7.501,-7.5 z"
           id="path4693" />
      </g>
    </g>
    <g
       transform="matrix(0.01367188,0,0,0.01397365,19.5,286.17275)"
       id="g4703"
       inkscape:export-xdpi="96"
       inkscape:export-ydpi="96">
      <g
         id="g4701">
        <path
           inkscape:connector-curvature="0"
           d="M 428.316,90.203 H 83.684 c -6.485,0 -11.761,5.275 -11.761,11.761 v 79.294 c 0,4.143 3.357,7.5 7.5,7.5 4.143,0 7.5,-3.357 7.5,-7.5 v -76.055 h 338.154 v 76.055 c 0,4.143 3.357,7.5 7.5,7.5 4.143,0 7.5,-3.357 7.5,-7.5 v -79.294 c 0,-6.487 -5.275,-11.761 -11.761,-11.761 z"
           id="path4699" />
      </g>
    </g>
    <g
       transform="matrix(0.01420429,0,0,0.01458333,113.59093,285.93961)"
       id="g4954"
       inkscape:export-xdpi="96"
       inkscape:export-ydpi="96">
      <g
         id="g4952">
        <path
           inkscape:connector-curvature="0"
           d="m 414.61,211.775 c -3.406,-9.558 -12.463,-15.933 -22.61,-15.915 -10.137,0.031 -19.158,6.438 -22.526,16 H 320 v -32 h 32 c 4.417,10e-4 7.999,-3.579 8,-7.996 0,-0.001 0,-0.003 0,-0.004 v -33.474 c 12.497,-4.418 19.047,-18.13 14.629,-30.628 -4.418,-12.497 -18.13,-19.047 -30.628,-14.629 -12.498,4.418 -19.047,18.13 -14.629,30.628 2.416,6.835 7.793,12.212 14.628,14.629 v 25.475 h -24 v -16 c 10e-4,-4.417 -3.579,-7.999 -7.996,-8 -0.001,0 -0.003,0 -0.004,0 H 296 V 98.385 c 12.497,-4.418 19.047,-18.13 14.629,-30.628 -4.418,-12.497 -18.13,-19.047 -30.628,-14.629 -12.497,4.418 -19.047,18.13 -14.629,30.628 2.416,6.835 7.793,12.212 14.628,14.629 V 139.86 H 248 V 12.141 c 0.001,-4.417 -3.579,-7.999 -7.996,-8 -0.001,0 -0.003,0 -0.004,0 -98.691,0 -176,71.453 -176,162.664 0,43.328 17.199,100.695 44.891,149.703 4.973,8.797 11.461,18.047 18.328,27.844 14.521,20.699 30.681,43.976 32.438,64.238 -6.15,4.347 -9.749,11.458 -9.61,18.988 0.023,5.409 1.891,10.649 5.295,14.853 -4.735,4.672 -7.383,11.058 -7.342,17.71 0.014,13.249 10.751,23.986 24,24 h 136 c 13.339,-0.083 24.086,-10.963 24.003,-24.302 -10e-4,-0.087 -0.002,-0.174 -0.003,-0.261 -0.005,-6.507 -2.664,-12.73 -7.363,-17.232 3.448,-4.366 5.321,-9.768 5.316,-15.331 -0.024,-12.671 -10.315,-22.923 -22.986,-22.899 -0.338,0.001 -0.676,0.009 -1.014,0.024 H 248 V 251.859 h 16 v 24 c -10e-4,4.417 3.579,7.999 7.996,8 0.001,0 0.003,0 0.004,0 h 24 v 9.474 c -12.497,4.418 -19.046,18.131 -14.627,30.627 4.419,12.496 18.131,19.046 30.627,14.627 12.497,-4.418 19.046,-18.131 14.627,-30.627 -2.416,-6.835 -7.793,-12.211 -14.627,-14.627 v -17.474 c 10e-4,-4.417 -3.579,-7.999 -7.996,-8 -0.001,0 -0.003,0 -0.004,0 h -24 v -16 h 32 c 4.417,0.001 7.999,-3.579 8,-7.996 0,-0.001 0,-0.003 0,-0.004 v -16 h 49.475 c 4.442,12.464 18.146,18.967 30.61,14.525 12.463,-4.441 18.966,-18.145 14.525,-30.609 z M 352,107.859 c 4.418,0 8,3.582 8,8 0,4.418 -3.582,8 -8,8 -4.418,0 -8,-3.582 -8,-8 0.004,-4.416 3.584,-7.995 8,-8 z M 140.32,335.164 c -6.641,-9.469 -12.91,-18.406 -17.5,-26.531 C 96.809,262.594 80,206.922 80,166.805 80,87.024 146.137,24.008 232,20.313 v 55.888 c -2.124,0.159 -4.291,0.352 -6.609,0.636 -3.396,0.413 -6.153,2.941 -6.859,6.289 l -2.438,11.594 c -2.008,0.477 -4.01,1.016 -6.008,1.617 l -7.973,-8.891 c -2.284,-2.555 -5.942,-3.369 -9.094,-2.023 -8.954,3.861 -17.405,8.796 -25.168,14.695 -2.733,2.06 -3.852,5.631 -2.785,8.883 l 3.672,11.188 c -1.512,1.422 -2.984,2.898 -4.41,4.406 l -11.176,-3.672 c -3.251,-1.053 -6.813,0.062 -8.883,2.781 -5.907,7.765 -10.846,16.22 -14.707,25.18 -1.344,3.152 -0.53,6.809 2.023,9.094 l 8.895,7.969 c -0.598,1.977 -1.133,3.958 -1.605,5.945 l -12.441,2.484 c -3.74,0.746 -6.433,4.03 -6.433,7.844 v 27.28 c 0,3.814 2.693,7.098 6.434,7.844 l 12.441,2.484 c 0.473,1.984 1.008,3.966 1.605,5.945 l -8.898,7.969 c -2.55,2.287 -3.363,5.942 -2.023,9.094 3.862,8.959 8.8,17.415 14.707,25.18 2.068,2.722 5.632,3.837 8.883,2.781 l 11.176,-3.672 c 1.43,1.508 2.898,2.984 4.41,4.406 l -3.672,11.172 c -1.066,3.251 0.051,6.82 2.781,8.883 7.763,5.908 16.218,10.848 25.176,14.711 3.152,1.338 6.806,0.525 9.094,-2.023 l 7.973,-8.891 c 1.996,0.602 3.999,1.141 6.008,1.617 l 2.434,11.586 c 0.703,3.351 3.461,5.883 6.859,6.297 2.321,0.284 4.489,0.477 6.613,0.636 v 88.622 h -56.69 c -3.271,-23.577 -19.971,-47.56 -34.992,-68.977 z M 168,195.859 c 0.051,36.644 27.587,67.419 64,71.528 v 27.511 l -1.324,-6.297 c -0.668,-3.189 -3.203,-5.655 -6.41,-6.234 -4.742,-0.863 -9.404,-2.12 -13.937,-3.758 -0.869,-0.309 -1.785,-0.467 -2.707,-0.469 -2.274,0 -4.441,0.969 -5.957,2.664 l -7.523,8.391 c -4.169,-2.083 -8.192,-4.446 -12.043,-7.07 l 3.473,-10.57 c 1.017,-3.098 0.054,-6.502 -2.434,-8.609 -3.689,-3.123 -7.114,-6.546 -10.238,-10.234 -2.113,-2.471 -5.506,-3.427 -8.598,-2.422 l -10.566,3.477 c -2.626,-3.852 -4.989,-7.877 -7.074,-12.047 l 8.398,-7.523 c 2.422,-2.175 3.288,-5.599 2.191,-8.664 -1.636,-4.534 -2.893,-9.196 -3.758,-13.937 -0.584,-3.233 -3.086,-5.78 -6.309,-6.422 L 136,202.938 v -14.156 l 11.184,-2.234 c 3.222,-0.641 5.725,-3.189 6.309,-6.422 0.865,-4.744 2.122,-9.409 3.757,-13.946 1.099,-3.066 0.231,-6.491 -2.195,-8.664 L 146.664,150 c 2.087,-4.168 4.449,-8.193 7.07,-12.047 l 10.57,3.477 c 3.092,1.004 6.484,0.049 8.598,-2.422 3.132,-3.691 6.559,-7.121 10.246,-10.258 2.478,-2.103 3.436,-5.498 2.422,-8.586 l -3.469,-10.57 c 3.851,-2.623 7.873,-4.985 12.039,-7.07 l 7.523,8.391 c 2.176,2.42 5.598,3.287 8.664,2.195 4.533,-1.639 9.195,-2.896 13.937,-3.758 3.206,-0.576 5.741,-3.039 6.41,-6.227 L 232,96.828 v 27.503 c -36.413,4.11 -63.949,34.884 -64,71.528 z m 64,-55.361 V 251.22 c -30.575,-4.377 -51.813,-32.712 -47.436,-63.287 3.521,-24.592 22.843,-43.914 47.436,-47.435 z m 84,319.643 c -0.004,4.416 -3.584,7.996 -8,8 H 172 c -4.499,-0.076 -8.085,-3.785 -8.009,-8.284 0.002,-0.093 0.005,-0.186 0.009,-0.279 0.004,-4.416 3.584,-7.996 8,-8 h 136 c 4.499,0.076 8.085,3.785 8.009,8.284 -0.001,0.093 -0.004,0.186 -0.009,0.279 z m -10.047,-40 c 4.03,-0.372 7.599,2.595 7.97,6.625 0.025,0.27 0.035,0.541 0.03,0.812 -0.004,4.416 -3.584,7.996 -8,8 H 174.047 c -4.499,-0.076 -8.085,-3.784 -8.009,-8.284 0.002,-0.093 0.005,-0.186 0.009,-0.279 0.171,-3.988 3.543,-7.082 7.531,-6.91 0.157,0.007 0.313,0.019 0.469,0.035 H 305.953 Z M 304,307.859 c 4.418,0 8,3.582 8,8 0,4.418 -3.582,8 -8,8 -4.418,0 -8,-3.582 -8,-8 0.004,-4.416 3.584,-7.995 8,-8 z m -16,-240 c 4.418,0 8,3.582 8,8 0,4.418 -3.582,8 -8,8 -4.418,0 -8,-3.582 -8,-8 0.004,-4.416 3.584,-7.995 8,-8 z m 16,168 h -56 v -80 h 56 z m 88,-8 c -4.418,0 -8,-3.582 -8,-8 0,-4.418 3.582,-8 8,-8 4.418,0 8,3.582 8,8 -0.004,4.417 -3.584,7.996 -8,8 z"
           id="path4950" />
      </g>
    </g>
    <g
       transform="matrix(0.01420429,0,0,0.01458333,113.59093,285.93961)"
       id="g4960"
       inkscape:export-xdpi="96"
       inkscape:export-ydpi="96">
      <g
         id="g4958">
        <path
           inkscape:connector-curvature="0"
           d="m 317.152,369.828 c -2.821,5.044 -5.317,10.263 -7.472,15.625 l 14.875,5.891 c 1.906,-4.73 4.112,-9.333 6.605,-13.781 z"
           id="path4956" />
      </g>
    </g>
    <g
       transform="matrix(0.01420429,0,0,0.01458333,113.59093,285.93961)"
       id="g4966"
       inkscape:export-xdpi="96"
       inkscape:export-ydpi="96">
      <g
         id="g4964">
        <path
           inkscape:connector-curvature="0"
           d="m 335.148,341.648 c -3.144,4.516 -6.281,9.109 -9.281,13.75 l 13.43,8.688 c 2.906,-4.484 5.941,-8.922 8.984,-13.297 z"
           id="path4962" />
      </g>
    </g>
    <g
       transform="matrix(0.01420429,0,0,0.01458333,113.59093,285.93961)"
       id="g4972"
       inkscape:export-xdpi="96"
       inkscape:export-ydpi="96">
      <g
         id="g4970">
        <path
           inkscape:connector-curvature="0"
           d="m 353.348,315.031 c -2.699,4.281 -5.707,8.711 -8.859,13.258 l 13.141,9.125 c 3.301,-4.75 6.441,-9.383 9.258,-13.867 z"
           id="path4968" />
      </g>
    </g>
    <g
       transform="matrix(0.01420429,0,0,0.01458333,113.59093,285.93961)"
       id="g4978"
       inkscape:export-xdpi="96"
       inkscape:export-ydpi="96">
      <g
         id="g4976">
        <path
           inkscape:connector-curvature="0"
           d="m 368.359,287.148 c -2.293,4.797 -4.69,9.539 -7.191,14.227 l 14.109,7.547 c 2.617,-4.898 5.124,-9.859 7.52,-14.883 z"
           id="path4974" />
      </g>
    </g>
    <g
       transform="matrix(0.01420429,0,0,0.01458333,113.59093,285.93961)"
       id="g4984"
       inkscape:export-xdpi="96"
       inkscape:export-ydpi="96">
      <g
         id="g4982">
        <path
           inkscape:connector-curvature="0"
           d="m 380.855,257.789 c -1.859,4.945 -3.84,9.898 -5.934,14.812 l 14.727,6.266 c 2.18,-5.133 4.241,-10.284 6.184,-15.453 z"
           id="path4980" />
      </g>
    </g>
    <g
       transform="matrix(0.01420429,0,0,0.01458333,113.59093,285.93961)"
       id="g4990"
       inkscape:export-xdpi="96"
       inkscape:export-ydpi="96">
      <g
         id="g4988">
        <path
           inkscape:connector-curvature="0"
           d="m 415.992,165.211 -16,0.125 0.008,1.469 c 0,4.461 -0.207,9.203 -0.621,14.078 l 15.945,1.344 c 0.449,-5.32 0.676,-10.508 0.676,-15.422 z"
           id="path4986" />
      </g>
    </g>
    <g
       transform="matrix(0.01420429,0,0,0.01458333,113.59093,285.93961)"
       id="g4996"
       inkscape:export-xdpi="96"
       inkscape:export-ydpi="96">
      <g
         id="g4994">
        <path
           inkscape:connector-curvature="0"
           d="m 411.918,131.156 -15.578,3.641 c 1.169,5.001 2.058,10.064 2.664,15.164 l 15.891,-1.891 c -0.679,-5.688 -1.673,-11.335 -2.977,-16.914 z"
           id="path4992" />
      </g>
    </g>
    <g
       transform="matrix(0.01420429,0,0,0.01458333,113.59093,285.93961)"
       id="g5002"
       inkscape:export-xdpi="96"
       inkscape:export-ydpi="96">
      <g
         id="g5000">
        <path
           inkscape:connector-curvature="0"
           d="m 400.418,98.828 -14.383,7 c 2.249,4.621 4.242,9.363 5.969,14.203 l 15.07,-5.359 c -1.922,-5.401 -4.144,-10.691 -6.656,-15.844 z"
           id="path4998" />
      </g>
    </g>
    <g
       transform="matrix(0.01420429,0,0,0.01458333,113.59093,285.93961)"
       id="g5008"
       inkscape:export-xdpi="96"
       inkscape:export-ydpi="96">
      <g
         id="g5006">
        <path
           inkscape:connector-curvature="0"
           d="m 382.117,69.859 -12.531,9.953 c 3.202,4.032 6.188,8.23 8.945,12.578 l 13.523,-8.547 c -3.062,-4.834 -6.379,-9.502 -9.937,-13.984 z"
           id="path5004" />
      </g>
    </g>
    <g
       transform="matrix(0.01420429,0,0,0.01458333,113.59093,285.93961)"
       id="g5014"
       inkscape:export-xdpi="96"
       inkscape:export-ydpi="96">
      <g
         id="g5012">
        <path
           inkscape:connector-curvature="0"
           d="m 358.141,45.445 -10.195,12.328 c 3.977,3.29 7.783,6.782 11.402,10.461 l 11.406,-11.219 c -4.005,-4.069 -8.215,-7.93 -12.613,-11.57 z"
           id="path5010" />
      </g>
    </g>
    <g
       transform="matrix(0.01420429,0,0,0.01458333,113.59093,285.93961)"
       id="g5020"
       inkscape:export-xdpi="96"
       inkscape:export-ydpi="96">
      <g
         id="g5018">
        <path
           inkscape:connector-curvature="0"
           d="m 329.836,26.375 -7.609,14.078 c 4.57,2.469 9.043,5.172 13.293,8.031 l 8.93,-13.281 c -4.677,-3.14 -9.591,-6.109 -14.614,-8.828 z"
           id="path5016" />
      </g>
    </g>
    <g
       transform="matrix(0.01420429,0,0,0.01458333,113.59093,285.93961)"
       id="g5026"
       inkscape:export-xdpi="96"
       inkscape:export-ydpi="96">
      <g
         id="g5024">
        <path
           inkscape:connector-curvature="0"
           d="m 298.477,13.102 -4.844,15.25 c 4.984,1.578 9.887,3.391 14.578,5.383 l 6.258,-14.719 c -5.152,-2.196 -10.535,-4.18 -15.992,-5.914 z"
           id="path5022" />
      </g>
    </g>
    <g
       transform="matrix(0.01420429,0,0,0.01458333,113.59093,285.93961)"
       id="g5032"
       inkscape:export-xdpi="96"
       inkscape:export-ydpi="96">
      <g
         id="g5030">
        <path
           inkscape:connector-curvature="0"
           d="m 265.285,5.758 -2.047,15.875 c 5.16,0.664 10.324,1.563 15.348,2.68 L 282.047,8.688 C 276.559,7.477 270.918,6.492 265.285,5.758 Z"
           id="path5028" />
      </g>
    </g>
    <g
       transform="matrix(0.0125,0,0,0.01271186,43.545835,277.97832)"
       id="g5514"
       inkscape:export-xdpi="96"
       inkscape:export-ydpi="96">
      <g
         id="g5512">
        <path
           inkscape:connector-curvature="0"
           d="M 472,76 H 384 V 12 c 0,-4.418 -3.582,-8 -8,-8 H 104 c -4.418,0 -8,3.582 -8,8 V 124 H 8 c -4.418,0 -8,3.582 -8,8 v 328 c 0,4.418 3.582,8 8,8 4.418,0 8,-3.582 8,-8 V 140 h 80 v 328 c 0,4.418 3.582,8 8,8 h 272 c 4.418,0 8,-3.582 8,-8 V 92 h 80 v 368 c 0,4.418 3.582,8 8,8 4.418,0 8,-3.582 8,-8 V 84 c 0,-4.418 -3.582,-8 -8,-8 z M 232,460 h -32 v -72 h 32 z m 48,0 h -32 v -72 h 32 z m 88,0 h -72 v -80 c 0,-4.418 -3.582,-8 -8,-8 h -96 c -4.418,0 -8,3.582 -8,8 v 80 H 112 V 20 h 256 z"
           id="path5510" />
      </g>
    </g>
    <g
       transform="matrix(0.0125,0,0,0.01271186,43.545835,277.97832)"
       id="g5520"
       inkscape:export-xdpi="96"
       inkscape:export-ydpi="96">
      <g
         id="g5518">
        <path
           inkscape:connector-curvature="0"
           d="m 184,36 h -48 c -4.418,0 -8,3.582 -8,8 v 48 c 0,4.418 3.582,8 8,8 h 48 c 4.418,0 8,-3.582 8,-8 V 44 c 0,-4.418 -3.582,-8 -8,-8 z m -8,48 H 144 V 52 h 32 z"
           id="path5516" />
      </g>
    </g>
    <g
       transform="matrix(0.0125,0,0,0.01271186,43.545835,277.97832)"
       id="g5526"
       inkscape:export-xdpi="96"
       inkscape:export-ydpi="96">
      <g
         id="g5524">
        <path
           inkscape:connector-curvature="0"
           d="m 264,36 h -48 c -4.418,0 -8,3.582 -8,8 v 48 c 0,4.418 3.582,8 8,8 h 48 c 4.418,0 8,-3.582 8,-8 V 44 c 0,-4.418 -3.582,-8 -8,-8 z m -8,48 H 224 V 52 h 32 z"
           id="path5522" />
      </g>
    </g>
    <g
       transform="matrix(0.0125,0,0,0.01271186,43.545835,277.97832)"
       id="g5532"
       inkscape:export-xdpi="96"
       inkscape:export-ydpi="96">
      <g
         id="g5530">
        <path
           inkscape:connector-curvature="0"
           d="m 344,36 h -48 c -4.418,0 -8,3.582 -8,8 v 48 c 0,4.418 3.582,8 8,8 h 48 c 4.418,0 8,-3.582 8,-8 V 44 c 0,-4.418 -3.582,-8 -8,-8 z m -8,48 H 304 V 52 h 32 z"
           id="path5528" />
      </g>
    </g>
    <g
       transform="matrix(0.0125,0,0,0.01271186,43.545835,277.97832)"
       id="g5538"
       inkscape:export-xdpi="96"
       inkscape:export-ydpi="96">
      <g
         id="g5536">
        <path
           inkscape:connector-curvature="0"
           d="m 184,116 h -48 c -4.418,0 -8,3.582 -8,8 v 48 c 0,4.418 3.582,8 8,8 h 48 c 4.418,0 8,-3.582 8,-8 v -48 c 0,-4.418 -3.582,-8 -8,-8 z m -8,48 h -32 v -32 h 32 z"
           id="path5534" />
      </g>
    </g>
    <g
       transform="matrix(0.0125,0,0,0.01271186,43.545835,277.97832)"
       id="g5544"
       inkscape:export-xdpi="96"
       inkscape:export-ydpi="96">
      <g
         id="g5542">
        <path
           inkscape:connector-curvature="0"
           d="m 264,116 h -48 c -4.418,0 -8,3.582 -8,8 v 48 c 0,4.418 3.582,8 8,8 h 48 c 4.418,0 8,-3.582 8,-8 v -48 c 0,-4.418 -3.582,-8 -8,-8 z m -8,48 h -32 v -32 h 32 z"
           id="path5540" />
      </g>
    </g>
    <g
       transform="matrix(0.0125,0,0,0.01271186,43.545835,277.97832)"
       id="g5550"
       inkscape:export-xdpi="96"
       inkscape:export-ydpi="96">
      <g
         id="g5548">
        <path
           inkscape:connector-curvature="0"
           d="m 344,116 h -48 c -4.418,0 -8,3.582 -8,8 v 48 c 0,4.418 3.582,8 8,8 h 48 c 4.418,0 8,-3.582 8,-8 v -48 c 0,-4.418 -3.582,-8 -8,-8 z m -8,48 h -32 v -32 h 32 z"
           id="path5546" />
      </g>
    </g>
    <g
       transform="matrix(0.0125,0,0,0.01271186,43.545835,277.97832)"
       id="g5556"
       inkscape:export-xdpi="96"
       inkscape:export-ydpi="96">
      <g
         id="g5554">
        <path
           inkscape:connector-curvature="0"
           d="m 184,196 h -48 c -4.418,0 -8,3.582 -8,8 v 48 c 0,4.418 3.582,8 8,8 h 48 c 4.418,0 8,-3.582 8,-8 v -48 c 0,-4.418 -3.582,-8 -8,-8 z m -8,48 h -32 v -32 h 32 z"
           id="path5552" />
      </g>
    </g>
    <g
       transform="matrix(0.0125,0,0,0.01271186,43.545835,277.97832)"
       id="g5562"
       inkscape:export-xdpi="96"
       inkscape:export-ydpi="96">
      <g
         id="g5560">
        <path
           inkscape:connector-curvature="0"
           d="m 264,196 h -48 c -4.418,0 -8,3.582 -8,8 v 48 c 0,4.418 3.582,8 8,8 h 48 c 4.418,0 8,-3.582 8,-8 v -48 c 0,-4.418 -3.582,-8 -8,-8 z m -8,48 h -32 v -32 h 32 z"
           id="path5558" />
      </g>
    </g>
    <g
       transform="matrix(0.0125,0,0,0.01271186,43.545835,277.97832)"
       id="g5568"
       inkscape:export-xdpi="96"
       inkscape:export-ydpi="96">
      <g
         id="g5566">
        <path
           inkscape:connector-curvature="0"
           d="m 344,196 h -48 c -4.418,0 -8,3.582 -8,8 v 48 c 0,4.418 3.582,8 8,8 h 48 c 4.418,0 8,-3.582 8,-8 v -48 c 0,-4.418 -3.582,-8 -8,-8 z m -8,48 h -32 v -32 h 32 z"
           id="path5564" />
      </g>
    </g>
    <g
       transform="matrix(0.0125,0,0,0.01271186,43.545835,277.97832)"
       id="g5574"
       inkscape:export-xdpi="96"
       inkscape:export-ydpi="96">
      <g
         id="g5572">
        <path
           inkscape:connector-curvature="0"
           d="m 184,276 h -48 c -4.418,0 -8,3.582 -8,8 v 48 c 0,4.418 3.582,8 8,8 h 48 c 4.418,0 8,-3.582 8,-8 v -48 c 0,-4.418 -3.582,-8 -8,-8 z m -8,48 h -32 v -32 h 32 z"
           id="path5570" />
      </g>
    </g>
    <g
       transform="matrix(0.0125,0,0,0.01271186,43.545835,277.97832)"
       id="g5580"
       inkscape:export-xdpi="96"
       inkscape:export-ydpi="96">
      <g
         id="g5578">
        <path
           inkscape:connector-curvature="0"
           d="m 264,276 h -48 c -4.418,0 -8,3.582 -8,8 v 48 c 0,4.418 3.582,8 8,8 h 48 c 4.418,0 8,-3.582 8,-8 v -48 c 0,-4.418 -3.582,-8 -8,-8 z m -8,48 h -32 v -32 h 32 z"
           id="path5576" />
      </g>
    </g>
    <g
       transform="matrix(0.0125,0,0,0.01271186,43.545835,277.97832)"
       id="g5586"
       inkscape:export-xdpi="96"
       inkscape:export-ydpi="96">
      <g
         id="g5584">
        <path
           inkscape:connector-curvature="0"
           d="m 344,276 h -48 c -4.418,0 -8,3.582 -8,8 v 48 c 0,4.418 3.582,8 8,8 h 48 c 4.418,0 8,-3.582 8,-8 v -48 c 0,-4.418 -3.582,-8 -8,-8 z m -8,48 h -32 v -32 h 32 z"
           id="path5582" />
      </g>
    </g>
    <g
       transform="matrix(0.0125,0,0,0.01271186,43.545835,277.97832)"
       id="g5592"
       inkscape:export-xdpi="96"
       inkscape:export-ydpi="96">
      <g
         id="g5590">
        <path
           inkscape:connector-curvature="0"
           d="m 48,156 h -8 c -4.418,0 -8,3.582 -8,8 v 8 c 0,4.418 3.582,8 8,8 h 8 c 4.418,0 8,-3.582 8,-8 v -8 c 0,-4.418 -3.582,-8 -8,-8 z"
           id="path5588" />
      </g>
    </g>
    <g
       transform="matrix(0.0125,0,0,0.01271186,43.545835,277.97832)"
       id="g5598"
       inkscape:export-xdpi="96"
       inkscape:export-ydpi="96">
      <g
         id="g5596">
        <path
           inkscape:connector-curvature="0"
           d="m 80,156 h -8 c -4.418,0 -8,3.582 -8,8 v 8 c 0,4.418 3.582,8 8,8 h 8 c 4.418,0 8,-3.582 8,-8 v -8 c 0,-4.418 -3.582,-8 -8,-8 z"
           id="path5594" />
      </g>
    </g>
    <g
       transform="matrix(0.0125,0,0,0.01271186,43.545835,277.97832)"
       id="g5604"
       inkscape:export-xdpi="96"
       inkscape:export-ydpi="96">
      <g
         id="g5602">
        <path
           inkscape:connector-curvature="0"
           d="m 48,188 h -8 c -4.418,0 -8,3.582 -8,8 v 8 c 0,4.418 3.582,8 8,8 h 8 c 4.418,0 8,-3.582 8,-8 v -8 c 0,-4.418 -3.582,-8 -8,-8 z"
           id="path5600" />
      </g>
    </g>
    <g
       transform="matrix(0.0125,0,0,0.01271186,43.545835,277.97832)"
       id="g5610"
       inkscape:export-xdpi="96"
       inkscape:export-ydpi="96">
      <g
         id="g5608">
        <path
           inkscape:connector-curvature="0"
           d="m 80,188 h -8 c -4.418,0 -8,3.582 -8,8 v 8 c 0,4.418 3.582,8 8,8 h 8 c 4.418,0 8,-3.582 8,-8 v -8 c 0,-4.418 -3.582,-8 -8,-8 z"
           id="path5606" />
      </g>
    </g>
    <g
       transform="matrix(0.0125,0,0,0.01271186,43.545835,277.97832)"
       id="g5616"
       inkscape:export-xdpi="96"
       inkscape:export-ydpi="96">
      <g
         id="g5614">
        <path
           inkscape:connector-curvature="0"
           d="m 48,220 h -8 c -4.418,0 -8,3.582 -8,8 v 8 c 0,4.418 3.582,8 8,8 h 8 c 4.418,0 8,-3.582 8,-8 v -8 c 0,-4.418 -3.582,-8 -8,-8 z"
           id="path5612" />
      </g>
    </g>
    <g
       transform="matrix(0.0125,0,0,0.01271186,43.545835,277.97832)"
       id="g5622"
       inkscape:export-xdpi="96"
       inkscape:export-ydpi="96">
      <g
         id="g5620">
        <path
           inkscape:connector-curvature="0"
           d="m 80,220 h -8 c -4.418,0 -8,3.582 -8,8 v 8 c 0,4.418 3.582,8 8,8 h 8 c 4.418,0 8,-3.582 8,-8 v -8 c 0,-4.418 -3.582,-8 -8,-8 z"
           id="path5618" />
      </g>
    </g>
    <g
       transform="matrix(0.0125,0,0,0.01271186,43.545835,277.97832)"
       id="g5628"
       inkscape:export-xdpi="96"
       inkscape:export-ydpi="96">
      <g
         id="g5626">
        <path
           inkscape:connector-curvature="0"
           d="m 48,252 h -8 c -4.418,0 -8,3.582 -8,8 v 8 c 0,4.418 3.582,8 8,8 h 8 c 4.418,0 8,-3.582 8,-8 v -8 c 0,-4.418 -3.582,-8 -8,-8 z"
           id="path5624" />
      </g>
    </g>
    <g
       transform="matrix(0.0125,0,0,0.01271186,43.545835,277.97832)"
       id="g5634"
       inkscape:export-xdpi="96"
       inkscape:export-ydpi="96">
      <g
         id="g5632">
        <path
           inkscape:connector-curvature="0"
           d="m 80,252 h -8 c -4.418,0 -8,3.582 -8,8 v 8 c 0,4.418 3.582,8 8,8 h 8 c 4.418,0 8,-3.582 8,-8 v -8 c 0,-4.418 -3.582,-8 -8,-8 z"
           id="path5630" />
      </g>
    </g>
    <g
       transform="matrix(0.0125,0,0,0.01271186,43.545835,277.97832)"
       id="g5640"
       inkscape:export-xdpi="96"
       inkscape:export-ydpi="96">
      <g
         id="g5638">
        <path
           inkscape:connector-curvature="0"
           d="m 48,284 h -8 c -4.418,0 -8,3.582 -8,8 v 8 c 0,4.418 3.582,8 8,8 h 8 c 4.418,0 8,-3.582 8,-8 v -8 c 0,-4.418 -3.582,-8 -8,-8 z"
           id="path5636" />
      </g>
    </g>
    <g
       transform="matrix(0.0125,0,0,0.01271186,43.545835,277.97832)"
       id="g5646"
       inkscape:export-xdpi="96"
       inkscape:export-ydpi="96">
      <g
         id="g5644">
        <path
           inkscape:connector-curvature="0"
           d="m 80,284 h -8 c -4.418,0 -8,3.582 -8,8 v 8 c 0,4.418 3.582,8 8,8 h 8 c 4.418,0 8,-3.582 8,-8 v -8 c 0,-4.418 -3.582,-8 -8,-8 z"
           id="path5642" />
      </g>
    </g>
    <g
       transform="matrix(0.0125,0,0,0.01271186,43.545835,277.97832)"
       id="g5652"
       inkscape:export-xdpi="96"
       inkscape:export-ydpi="96">
      <g
         id="g5650">
        <path
           inkscape:connector-curvature="0"
           d="m 48,316 h -8 c -4.418,0 -8,3.582 -8,8 v 8 c 0,4.418 3.582,8 8,8 h 8 c 4.418,0 8,-3.582 8,-8 v -8 c 0,-4.418 -3.582,-8 -8,-8 z"
           id="path5648" />
      </g>
    </g>
    <g
       transform="matrix(0.0125,0,0,0.01271186,43.545835,277.97832)"
       id="g5658"
       inkscape:export-xdpi="96"
       inkscape:export-ydpi="96">
      <g
         id="g5656">
        <path
           inkscape:connector-curvature="0"
           d="m 80,316 h -8 c -4.418,0 -8,3.582 -8,8 v 8 c 0,4.418 3.582,8 8,8 h 8 c 4.418,0 8,-3.582 8,-8 v -8 c 0,-4.418 -3.582,-8 -8,-8 z"
           id="path5654" />
      </g>
    </g>
    <g
       transform="matrix(0.0125,0,0,0.01271186,43.545835,277.97832)"
       id="g5664"
       inkscape:export-xdpi="96"
       inkscape:export-ydpi="96">
      <g
         id="g5662">
        <path
           inkscape:connector-curvature="0"
           d="m 48,348 h -8 c -4.418,0 -8,3.582 -8,8 v 8 c 0,4.418 3.582,8 8,8 h 8 c 4.418,0 8,-3.582 8,-8 v -8 c 0,-4.418 -3.582,-8 -8,-8 z"
           id="path5660" />
      </g>
    </g>
    <g
       transform="matrix(0.0125,0,0,0.01271186,43.545835,277.97832)"
       id="g5670"
       inkscape:export-xdpi="96"
       inkscape:export-ydpi="96">
      <g
         id="g5668">
        <path
           inkscape:connector-curvature="0"
           d="m 80,348 h -8 c -4.418,0 -8,3.582 -8,8 v 8 c 0,4.418 3.582,8 8,8 h 8 c 4.418,0 8,-3.582 8,-8 v -8 c 0,-4.418 -3.582,-8 -8,-8 z"
           id="path5666" />
      </g>
    </g>
    <g
       transform="matrix(0.0125,0,0,0.01271186,43.545835,277.97832)"
       id="g5676"
       inkscape:export-xdpi="96"
       inkscape:export-ydpi="96">
      <g
         id="g5674">
        <path
           inkscape:connector-curvature="0"
           d="m 48,380 h -8 c -4.418,0 -8,3.582 -8,8 v 8 c 0,4.418 3.582,8 8,8 h 8 c 4.418,0 8,-3.582 8,-8 v -8 c 0,-4.418 -3.582,-8 -8,-8 z"
           id="path5672" />
      </g>
    </g>
    <g
       transform="matrix(0.0125,0,0,0.01271186,43.545835,277.97832)"
       id="g5682"
       inkscape:export-xdpi="96"
       inkscape:export-ydpi="96">
      <g
         id="g5680">
        <path
           inkscape:connector-curvature="0"
           d="m 80,380 h -8 c -4.418,0 -8,3.582 -8,8 v 8 c 0,4.418 3.582,8 8,8 h 8 c 4.418,0 8,-3.582 8,-8 v -8 c 0,-4.418 -3.582,-8 -8,-8 z"
           id="path5678" />
      </g>
    </g>
    <g
       transform="matrix(0.0125,0,0,0.01271186,43.545835,277.97832)"
       id="g5688"
       inkscape:export-xdpi="96"
       inkscape:export-ydpi="96">
      <g
         id="g5686">
        <path
           inkscape:connector-curvature="0"
           d="m 48,412 h -8 c -4.418,0 -8,3.582 -8,8 v 8 c 0,4.418 3.582,8 8,8 h 8 c 4.418,0 8,-3.582 8,-8 v -8 c 0,-4.418 -3.582,-8 -8,-8 z"
           id="path5684" />
      </g>
    </g>
    <g
       transform="matrix(0.0125,0,0,0.01271186,43.545835,277.97832)"
       id="g5694"
       inkscape:export-xdpi="96"
       inkscape:export-ydpi="96">
      <g
         id="g5692">
        <path
           inkscape:connector-curvature="0"
           d="m 80,412 h -8 c -4.418,0 -8,3.582 -8,8 v 8 c 0,4.418 3.582,8 8,8 h 8 c 4.418,0 8,-3.582 8,-8 v -8 c 0,-4.418 -3.582,-8 -8,-8 z"
           id="path5690" />
      </g>
    </g>
    <g
       transform="matrix(0.0125,0,0,0.01271186,43.545835,277.97832)"
       id="g5700"
       inkscape:export-xdpi="96"
       inkscape:export-ydpi="96">
      <g
         id="g5698">
        <path
           inkscape:connector-curvature="0"
           d="m 440,108 h -32 c -4.418,0 -8,3.582 -8,8 v 32 c 0,4.418 3.582,8 8,8 h 32 c 4.418,0 8,-3.582 8,-8 v -32 c 0,-4.418 -3.582,-8 -8,-8 z m -8,32 h -16 v -16 h 16 z"
           id="path5696" />
      </g>
    </g>
    <g
       transform="matrix(0.0125,0,0,0.01271186,43.545835,277.97832)"
       id="g5706"
       inkscape:export-xdpi="96"
       inkscape:export-ydpi="96">
      <g
         id="g5704">
        <path
           inkscape:connector-curvature="0"
           d="m 440,172 h -32 c -4.418,0 -8,3.582 -8,8 v 32 c 0,4.418 3.582,8 8,8 h 32 c 4.418,0 8,-3.582 8,-8 v -32 c 0,-4.418 -3.582,-8 -8,-8 z m -8,32 h -16 v -16 h 16 z"
           id="path5702" />
      </g>
    </g>
    <g
       transform="matrix(0.0125,0,0,0.01271186,43.545835,277.97832)"
       id="g5712"
       inkscape:export-xdpi="96"
       inkscape:export-ydpi="96">
      <g
         id="g5710">
        <path
           inkscape:connector-curvature="0"
           d="m 440,236 h -32 c -4.418,0 -8,3.582 -8,8 v 32 c 0,4.418 3.582,8 8,8 h 32 c 4.418,0 8,-3.582 8,-8 v -32 c 0,-4.418 -3.582,-8 -8,-8 z m -8,32 h -16 v -16 h 16 z"
           id="path5708" />
      </g>
    </g>
    <g
       transform="matrix(0.0125,0,0,0.01271186,43.545835,277.97832)"
       id="g5718"
       inkscape:export-xdpi="96"
       inkscape:export-ydpi="96">
      <g
         id="g5716">
        <path
           inkscape:connector-curvature="0"
           d="m 440,300 h -32 c -4.418,0 -8,3.582 -8,8 v 32 c 0,4.418 3.582,8 8,8 h 32 c 4.418,0 8,-3.582 8,-8 v -32 c 0,-4.418 -3.582,-8 -8,-8 z m -8,32 h -16 v -16 h 16 z"
           id="path5714" />
      </g>
    </g>
    <g
       transform="matrix(0.0125,0,0,0.01271186,43.545835,277.97832)"
       id="g5724"
       inkscape:export-xdpi="96"
       inkscape:export-ydpi="96">
      <g
         id="g5722">
        <path
           inkscape:connector-curvature="0"
           d="m 440,364 h -32 c -4.418,0 -8,3.582 -8,8 v 32 c 0,4.418 3.582,8 8,8 h 32 c 4.418,0 8,-3.582 8,-8 v -32 c 0,-4.418 -3.582,-8 -8,-8 z m -8,32 h -16 v -16 h 16 z"
           id="path5720" />
      </g>
    </g>
    <g
       transform="matrix(0.08875683,0,0,0.09366795,60.057926,212.21061)"
       id="g6757"
       inkscape:export-xdpi="96"
       inkscape:export-ydpi="96">
      <path
         inkscape:connector-curvature="0"
         style="fill:none;stroke:#000000;stroke-width:4.03018999;stroke-linecap:round;stroke-miterlimit:4;stroke-dasharray:none;stroke-opacity:1"
         d="m 376.80085,744.70003 c 7.65963,1.33564 13.8338,8.37372 14.4794,17.22496 0.10217,1.40072 0.0606,2.77409 -0.11114,4.10286 m -13.2945,-21.08281 c -4.75513,-0.93896 -8.54878,-3.99584 -10.81177,-8.2371 m 9.59502,7.85668 c -8.2638,1.68043 -14.57387,8.98915 -14.75574,17.85878 -0.0288,1.40363 0.0974,2.77344 0.36268,4.09282 m 13.2589,-22.09674 c 4.74391,-1.06741 8.69501,-3.98007 11.17696,-7.90304 m -9.73983,-28.9597 c 7.65963,-1.35562 13.8338,-8.49902 14.4794,-17.48271 0.10217,-1.42167 0.0606,-2.8156 -0.11114,-4.16423 m -14.3145,21.71879 c -8.18152,1.63971 -13.51672,9.64303 -13.1065,19.18381 v 0 0 c 0.167,3.88416 1.37575,7.43746 3.30938,10.33759 m 9.60037,-29.1353 c -8.2638,-1.70557 -14.57387,-9.12366 -14.75574,-18.126 -0.0288,-1.42463 0.0974,-2.81495 0.36268,-4.15405 m 13.5989,22.10685 c 8.81572,2.01327 14.89357,10.49421 13.89318,20.0045 v 0 c -0.75329,3.81585 -2.0784,7.49 -4.20425,10.17305"
         stroke-miterlimit="4"
         id="path6731" />
      <path
         inkscape:connector-curvature="0"
         style="fill:none;stroke:#000000;stroke-width:1.70000005;stroke-linecap:butt;stroke-linejoin:miter;stroke-miterlimit:4;stroke-dasharray:none;stroke-opacity:1"
         d="m 367.73992,714.32264 17.9812,-0.22761"
         stroke-miterlimit="4"
         id="path6733" />
      <path
         inkscape:connector-curvature="0"
         style="fill:none;stroke:#000000;stroke-width:1.70000005;stroke-linecap:butt;stroke-linejoin:miter;stroke-miterlimit:4;stroke-dasharray:none;stroke-opacity:1"
         d="m 365.5275,720.00015 22.5883,-0.22761"
         stroke-miterlimit="4"
         id="path6735" />
      <path
         inkscape:connector-curvature="0"
         style="fill:none;stroke:#000000;stroke-width:1.70000005;stroke-linecap:butt;stroke-linejoin:miter;stroke-miterlimit:4;stroke-dasharray:none;stroke-opacity:1"
         d="m 364.69735,725.68475 24.34874,-0.22761"
         stroke-miterlimit="4"
         id="path6737" />
      <path
         inkscape:connector-curvature="0"
         style="fill:none;stroke:#000000;stroke-width:1.70000005;stroke-linecap:butt;stroke-linejoin:miter;stroke-miterlimit:4;stroke-dasharray:none;stroke-opacity:1"
         d="m 365.04675,731.48456 24.34874,-0.22761"
         stroke-miterlimit="4"
         id="path6739" />
      <path
         inkscape:connector-curvature="0"
         style="fill:none;stroke:#000000;stroke-width:1.70000005;stroke-linecap:butt;stroke-linejoin:miter;stroke-miterlimit:4;stroke-dasharray:none;stroke-opacity:1"
         d="m 367.19914,737.37695 18.48671,-0.22761"
         stroke-miterlimit="4"
         id="path6741" />
      <path
         inkscape:connector-curvature="0"
         style="fill:none;stroke:#000000;stroke-width:1.70000005;stroke-linecap:butt;stroke-linejoin:miter;stroke-miterlimit:4;stroke-dasharray:none;stroke-opacity:1"
         d="m 363.42518,694.655 26.79201,-0.22761"
         stroke-miterlimit="4"
         id="path6743" />
      <path
         inkscape:connector-curvature="0"
         style="fill:none;stroke:#000000;stroke-width:1.70000005;stroke-linecap:butt;stroke-linejoin:miter;stroke-miterlimit:4;stroke-dasharray:none;stroke-opacity:1"
         d="m 363.13946,688.51436 29.00767,-0.22761"
         stroke-miterlimit="4"
         id="path6745" />
      <path
         inkscape:connector-curvature="0"
         style="fill:none;stroke:#000000;stroke-width:1.70000005;stroke-linecap:butt;stroke-linejoin:miter;stroke-miterlimit:4;stroke-dasharray:none;stroke-opacity:1"
         d="m 365.6092,700.66744 21.72415,-0.22761"
         stroke-miterlimit="4"
         id="path6747" />
      <g
         transform="matrix(0.17,0,0,-0.17,301.50537,901.65143)"
         id="g6755">
        <path
           inkscape:connector-curvature="0"
           d="m 362.21213,848.55955 157.60006,-1.33888"
           style="fill:none;stroke:#000000;stroke-width:10;stroke-linecap:butt;stroke-linejoin:miter;stroke-miterlimit:4;stroke-dasharray:none;stroke-opacity:1"
           stroke-miterlimit="4"
           id="path6749" />
        <path
           inkscape:connector-curvature="0"
           d="m 360.53142,812.43813 170.63336,-1.33888"
           style="fill:none;stroke:#000000;stroke-width:10;stroke-linecap:butt;stroke-linejoin:miter;stroke-miterlimit:4;stroke-dasharray:none;stroke-opacity:1"
           stroke-miterlimit="4"
           id="path6751" />
        <path
           inkscape:connector-curvature="0"
           d="m 375.05934,883.92687 127.7891,-1.33888"
           style="fill:none;stroke:#000000;stroke-width:10;stroke-linecap:butt;stroke-linejoin:miter;stroke-miterlimit:4;stroke-dasharray:none;stroke-opacity:1"
           stroke-miterlimit="4"
           id="path6753" />
      </g>
    </g>
    <g
       id="g6908"
       transform="matrix(0.0125,0,0,0.0125,67,276.94585)"
       inkscape:export-xdpi="96"
       inkscape:export-ydpi="96">
      <g
         id="g6906">
        <path
           inkscape:connector-curvature="0"
           d="M 472.004,0 C 472.003,0 472.001,0 472,0 H 8 C 3.583,-0.001 0.001,3.579 0,7.996 0,7.997 0,7.999 0,8 V 168 H 16 V 16 H 464 V 192 H 184 v 16 h 288 c 4.417,0.001 7.999,-3.579 8,-7.996 0,-0.001 0,-0.003 0,-0.004 V 8 c 10e-4,-4.417 -3.579,-7.999 -7.996,-8 z"
           id="path6904" />
      </g>
    </g>
    <g
       id="g6914"
       transform="matrix(0.0125,0,0,0.0125,67,276.94585)"
       inkscape:export-xdpi="96"
       inkscape:export-ydpi="96">
      <g
         id="g6912">
        <rect
           x="264"
           y="40"
           width="160"
           height="16"
           id="rect6910" />
      </g>
    </g>
    <g
       id="g6920"
       transform="matrix(0.0125,0,0,0.0125,67,276.94585)"
       inkscape:export-xdpi="96"
       inkscape:export-ydpi="96">
      <g
         id="g6918">
        <rect
           x="288"
           y="88"
           width="160"
           height="16"
           id="rect6916" />
      </g>
    </g>
    <g
       id="g6926"
       transform="matrix(0.0125,0,0,0.0125,67,276.94585)"
       inkscape:export-xdpi="96"
       inkscape:export-ydpi="96">
      <g
         id="g6924">
        <rect
           x="256"
           y="136"
           width="160"
           height="16"
           id="rect6922" />
      </g>
    </g>
    <g
       id="g6932"
       transform="matrix(0.0125,0,0,0.0125,67,276.94585)"
       inkscape:export-xdpi="96"
       inkscape:export-ydpi="96">
      <g
         id="g6930">
        <path
           inkscape:connector-curvature="0"
           d="m 255.362,68.974 c -5.477,-13.165 -20.589,-19.397 -33.753,-13.92 -0.225,0.094 -0.449,0.19 -0.671,0.29 L 156.07,88.994 C 158.628,83.692 159.971,77.886 160,72 160,49.909 142.091,32 120,32 97.909,32 80,49.909 80,72 c 0.03,8.683 2.913,17.116 8.205,24 H 87.872 C 65.164,96.152 44.893,110.269 36.876,131.516 L 15.52,205.125 c -5.084,13.206 1.5,28.034 14.707,33.118 6.022,2.318 12.697,2.279 18.692,-0.11 6.888,-2.775 12.248,-8.379 14.715,-15.383 L 72,196.125 V 311.908 C 65.116,306.617 56.683,303.734 48,303.703 25.942,303.67 8.033,321.525 8,343.584 7.984,354.387 12.344,364.735 20.087,372.269 7.799,378.547 0.048,391.163 0,404.961 V 472 c -0.001,4.417 3.579,7.999 7.996,8 10e-4,0 0.003,0 0.004,0 h 80 c 4.417,10e-4 7.999,-3.579 8,-7.996 0,-0.001 0,-0.003 0,-0.004 V 404.961 C 95.961,393.622 90.693,382.936 81.724,376 h 60.553 c -8.97,6.936 -14.238,17.622 -14.276,28.961 V 472 c -0.001,4.417 3.579,7.999 7.996,8 10e-4,0 0.003,0 0.004,0 h 80 c 4.417,10e-4 7.999,-3.579 8,-7.996 0,-0.001 0,-0.003 0,-0.004 v -67.039 c -0.048,-13.798 -7.799,-26.414 -20.087,-32.692 15.795,-15.417 16.102,-40.72 0.685,-56.515 -9.494,-9.727 -23.281,-13.962 -36.598,-11.242 V 140.859 l 73.441,-38.133 c 13.164,-5.476 19.396,-20.588 13.92,-33.752 z M 120,48 c 13.255,0 24,10.745 24,24 0,13.255 -10.745,24 -24,24 C 106.751,95.986 96.014,85.249 96,72 96,58.745 106.745,48 120,48 Z M 48,319.703 c 13.255,0 24,10.745 24,24 0,13.255 -10.745,24 -24,24 -13.255,0 -24,-10.745 -24,-24 0.014,-13.249 10.751,-23.985 24,-24 z M 80,464 H 16 V 404.961 C 16.016,393.39 25.393,384.014 36.965,384 h 22.07 c 11.571,0.014 20.949,9.39 20.965,20.961 z M 208,404.961 V 464 h -64 v -59.039 c 0.016,-11.571 9.393,-20.947 20.965,-20.961 h 22.07 c 11.572,0.014 20.949,9.39 20.965,20.961 z m -32,-85.258 c 13.249,0.014 23.986,10.751 24,24 0,13.255 -10.745,24 -24,24 -13.255,0 -24,-10.745 -24,-24 0,-13.255 10.745,-24 24,-24 z M 240.723,82.32 c -1.071,2.748 -3.27,4.905 -6.039,5.922 l -78.367,40.656 C 153.665,130.274 152,133.013 152,136 V 311.908 C 137.015,322.988 131.824,343.041 139.552,360 H 128 V 224 H 112 V 360 H 84.448 c 2.276,-5.03 3.475,-10.48 3.522,-16 H 88 V 144 c -0.001,-4.419 -3.584,-8 -8.002,-7.999 -3.493,0.001 -6.582,2.268 -7.63,5.601 L 48.48,217.617 c -1.81,4.992 -7.325,7.572 -12.317,5.761 -0.35,-0.127 -0.693,-0.274 -1.027,-0.441 -4.615,-2.385 -6.574,-7.953 -4.468,-12.703 L 52.023,136.625 C 57.782,121.835 71.999,112.069 87.871,112 h 56.645 c 1.282,0.002 2.546,-0.307 3.684,-0.898 l 79.512,-41.273 c 4.77,-1.99 10.268,0.046 12.59,4.664 1.231,2.434 1.384,5.274 0.421,7.827 z"
           id="path6928" />
      </g>
    </g>
    <g
       id="g6938"
       transform="matrix(0.0125,0,0,0.0125,67,276.94585)"
       inkscape:export-xdpi="96"
       inkscape:export-ydpi="96">
      <g
         id="g6936">
        <path
           inkscape:connector-curvature="0"
           d="m 331.913,372.269 c 15.823,-15.416 16.153,-40.741 0.737,-56.564 -15.416,-15.823 -40.741,-16.153 -56.564,-0.737 -15.823,15.416 -16.153,40.741 -0.737,56.564 0.243,0.249 0.489,0.495 0.738,0.737 C 263.8,378.547 256.048,391.163 256,404.961 V 472 c -0.001,4.417 3.579,7.999 7.996,8 0.001,0 0.003,0 0.004,0 h 80 c 4.417,10e-4 7.999,-3.579 8,-7.996 0,-0.001 0,-0.003 0,-0.004 v -67.039 c -0.048,-13.798 -7.799,-26.414 -20.087,-32.692 z M 304,319.703 c 13.255,0 24,10.745 24,24 0,13.255 -10.745,24 -24,24 -13.255,0 -24,-10.745 -24,-24 0.014,-13.249 10.751,-23.985 24,-24 z M 336,464 h -64 v -59.039 c 0.016,-11.571 9.393,-20.947 20.965,-20.961 h 22.07 c 11.571,0.014 20.949,9.39 20.965,20.961 V 464 Z"
           id="path6934" />
      </g>
    </g>
    <g
       id="g6944"
       transform="matrix(0.0125,0,0,0.0125,67,276.94585)"
       inkscape:export-xdpi="96"
       inkscape:export-ydpi="96">
      <g
         id="g6942">
        <path
           inkscape:connector-curvature="0"
           d="m 459.913,372.269 c 15.823,-15.416 16.153,-40.741 0.737,-56.564 -15.416,-15.823 -40.741,-16.153 -56.564,-0.737 -15.823,15.416 -16.153,40.741 -0.737,56.564 0.243,0.249 0.489,0.495 0.738,0.737 C 391.8,378.547 384.048,391.163 384,404.961 V 472 c -10e-4,4.417 3.579,7.999 7.996,8 0.001,0 0.003,0 0.004,0 h 80 c 4.417,10e-4 7.999,-3.579 8,-7.996 0,-0.001 0,-0.003 0,-0.004 v -67.039 c -0.048,-13.798 -7.799,-26.414 -20.087,-32.692 z M 432,319.703 c 13.255,0 24,10.745 24,24 0,13.255 -10.745,24 -24,24 -13.255,0 -24,-10.745 -24,-24 0.014,-13.249 10.751,-23.985 24,-24 z M 464,464 h -64 v -59.039 c 0.016,-11.571 9.393,-20.947 20.965,-20.961 h 22.07 c 11.571,0.014 20.949,9.39 20.965,20.961 V 464 Z"
           id="path6940" />
      </g>
    </g>
  </g>
</svg>
